<?xml version="1.0" encoding="UTF-8"?>
<svg width="20px" height="20px" viewBox="0 0 20 20" version="1.1" xmlns="http://www.w3.org/2000/svg" xmlns:xlink="http://www.w3.org/1999/xlink">
    <title>icon_协议管理_on</title>
    <defs>
        <linearGradient x1="15.2754894%" y1="100%" x2="84.7245106%" y2="0%" id="linearGradient-1">
            <stop stop-color="#D8D8D8" offset="0%"></stop>
            <stop stop-color="#D8D8D8" offset="100%"></stop>
        </linearGradient>
        <linearGradient x1="0.91986534%" y1="100%" x2="99.0801347%" y2="0%" id="linearGradient-2">
            <stop stop-color="#D8D8D8" offset="0%"></stop>
            <stop stop-color="#D8D8D8" offset="100%"></stop>
        </linearGradient>
    </defs>
    <g id="1" stroke="none" stroke-width="1" fill="none" fill-rule="evenodd">
        <g id="切图" transform="translate(-230.000000, -50.000000)">
            <g id="icon_协议管理_on" transform="translate(230.000000, 50.000000)">
                <rect id="矩形" fill-opacity="0" fill="#D8D8D8" x="0" y="0" width="20" height="20"></rect>
                <path d="M14,1 C15.1045695,1 16,1.8954305 16,3 L16.0004943,10.5546065 C15.8357042,10.2234436 15.4940965,10 15.1049674,10 L13.8950428,10 C13.3854936,10 12.9574294,10.3831358 12.9011591,10.8895685 L12.8223495,11.595 L12.1726951,11.3101474 C11.7059763,11.1056625 11.1601389,11.2848091 10.9053643,11.7260917 L10.3004122,12.7738995 C10.0456354,13.2151858 10.163413,13.7774732 10.5738684,14.079419 L11.1453495,14.499 L10.5738541,14.9205789 C10.1634057,15.2225267 10.0456325,15.7848091 10.3004071,16.2260917 L10.9053592,17.2738995 C11.160136,17.7151858 11.70598,17.8943311 12.1727003,17.6898392 L12.8223495,17.404 L12.9011591,18.1104315 C12.9574294,18.6168642 13.3854936,19 13.8950428,19 L3,19 C1.8954305,19 1,18.1045695 1,17 L1,3 C1,1.8954305 1.8954305,1 3,1 L14,1 Z" id="形状结合" fill-opacity="0.1" fill="url(#linearGradient-1)" fill-rule="nonzero"></path>
                <path d="M14,1 C15.1045695,1 16,1.8954305 16,3 L16,8.5 C16,8.77614237 15.7761424,9 15.5,9 C15.2238576,9 15,8.77614237 15,8.5 L15,3 C15,2.44771525 14.5522847,2 14,2 L3,2 C2.44771525,2 2,2.44771525 2,3 L2,17 C2,17.5522847 2.44771525,18 3,18 L9.7,18 C9.97614237,18 10.2,18.2238576 10.2,18.5 C10.2,18.7761424 9.97614237,19 9.7,19 L3,19 C1.8954305,19 1,18.1045695 1,17 L1,3 C1,1.8954305 1.8954305,1 3,1 L14,1 Z M15.1049674,10 C15.6145123,10 16.0425743,10.3831295 16.0988499,10.8895572 L16.1763495,11.594 L16.8273049,11.3101474 C17.2940237,11.1056625 17.8398611,11.2848091 18.0946357,11.7260917 L18.699598,12.7739172 C18.9543705,13.215196 18.8366016,13.7774733 18.4261601,14.0794232 L17.8533495,14.499 L18.4261459,14.9205789 C18.8365943,15.2225267 18.9543675,15.7848091 18.6995929,16.2260917 L18.0946306,17.2739172 C17.8398582,17.715196 17.2940273,17.8943438 16.8273102,17.689866 L16.1763495,17.404 L16.098832,18.1104202 C16.0425669,18.6168579 15.6145005,19 15.104947,19 L13.8950428,19 C13.3854936,19 12.9574294,18.6168642 12.9011591,18.1104315 L12.8223495,17.404 L12.1727003,17.6898392 C11.70598,17.8943311 11.160136,17.7151858 10.9053592,17.2738995 L10.3004071,16.2260917 C10.0456325,15.7848091 10.1634057,15.2225267 10.5738541,14.9205789 L11.1453495,14.499 L10.5738684,14.079419 C10.163413,13.7774732 10.0456354,13.2151858 10.3004122,12.7738995 L10.9053643,11.7260917 C11.1601389,11.2848091 11.7059763,11.1056625 12.1726951,11.3101474 L12.8223495,11.595 L12.9011591,10.8895685 C12.9574294,10.3831358 13.3854936,10 13.8950428,10 L15.1049674,10 Z M15.1049674,11 L13.8949764,11.000596 L13.830886,11.5748952 C13.2337188,11.7109285 12.7043348,12.0251348 12.3016128,12.4586352 L11.7713897,12.2260917 L11.1664325,13.2738995 L11.6323807,13.6159485 C11.5463248,13.8954167 11.5,14.1922985 11.5,14.5 C11.5,14.8073317 11.5462135,15.1038696 11.6320705,15.3830437 L11.1664325,15.7260917 L11.771,16.773 L12.3006798,16.54036 C12.7035169,16.9743797 13.2332575,17.2889665 13.830886,17.4251048 L13.8950428,18 L15.104947,18 L15.168007,17.4253567 C15.765627,17.2894597 16.2954164,16.9751331 16.6983872,16.5413648 L17.2286052,16.7739172 L17.8335726,15.7260917 L17.3676193,15.3840515 C17.4536752,15.1045833 17.5,14.8077015 17.5,14.5 C17.5,14.1919287 17.4535638,13.8947031 17.3673089,13.6149409 L17.8335726,13.2739172 L17.2286103,12.2260917 L16.6974537,12.4576308 C16.2945984,12.0243817 15.7651656,11.7104353 15.168007,11.5746433 L15.1049674,11 Z M14.5,12.5 C15.6045695,12.5 16.5,13.3954305 16.5,14.5 C16.5,15.6045695 15.6045695,16.5 14.5,16.5 C13.3954305,16.5 12.5,15.6045695 12.5,14.5 C12.5,13.3954305 13.3954305,12.5 14.5,12.5 Z M14.5,13.5 C13.9477153,13.5 13.5,13.9477153 13.5,14.5 C13.5,15.0522847 13.9477153,15.5 14.5,15.5 C15.0522847,15.5 15.5,15.0522847 15.5,14.5 C15.5,13.9477153 15.0522847,13.5 14.5,13.5 Z M7.5,13 C7.77614237,13 8,13.2238576 8,13.5 C8,13.7761424 7.77614237,14 7.5,14 L5.5,14 C5.22385763,14 5,13.7761424 5,13.5 C5,13.2238576 5.22385763,13 5.5,13 L7.5,13 Z M11.5,9 C11.7761424,9 12,9.22385763 12,9.5 C12,9.77614237 11.7761424,10 11.5,10 L5.5,10 C5.22385763,10 5,9.77614237 5,9.5 C5,9.22385763 5.22385763,9 5.5,9 L11.5,9 Z M11.5,5 C11.7761424,5 12,5.22385763 12,5.5 C12,5.77614237 11.7761424,6 11.5,6 L5.5,6 C5.22385763,6 5,5.77614237 5,5.5 C5,5.22385763 5.22385763,5 5.5,5 L11.5,5 Z" id="形状结合" fill="url(#linearGradient-2)" fill-rule="nonzero"></path>
            </g>
        </g>
    </g>
</svg>
