<?xml version="1.0" encoding="UTF-8"?>
<svg width="20px" height="20px" viewBox="0 0 20 20" version="1.1" xmlns="http://www.w3.org/2000/svg"
    xmlns:xlink="http://www.w3.org/1999/xlink">
    <title>下箭头</title>
    <g id="用户中心" stroke="none" stroke-width="1" fill="none" fill-rule="evenodd">
        <g id="中心切换" transform="translate(-160.000000, -433.000000)" fill-rule="nonzero">
            <g id="2备份-5" transform="translate(20.000000, 416.000000)">
                <g id="下箭头"
                    transform="translate(150.000000, 27.000000) scale(1, -1) translate(-150.000000, -27.000000) translate(140.000000, 17.000000)">
                    <rect id="矩形" fill="#000000" opacity="0" x="0" y="0" width="20" height="20"></rect>
                    <path
                        d="M10.4699686,12.1045596 L13.2360446,8.48028352 C13.394819,8.27223088 13.4217874,7.99210744 13.3056211,7.75758535 C13.1894548,7.52306327 12.950278,7.37477008 12.6885622,7.37499942 L7.15727013,7.37499942 C6.89565764,7.37499942 6.65668024,7.52336467 6.54065753,7.75784244 C6.42463481,7.99232021 6.45164944,8.27231301 6.61036102,8.48028352 L9.37643699,12.1045596 C9.50657955,12.2749983 9.70875834,12.3749994 9.92320279,12.3749994 C10.1376472,12.3749994 10.339826,12.2749983 10.4699686,12.1045596 L10.4699686,12.1045596 Z"
                        id="路径" fill="currentColor"></path>
                </g>
            </g>
        </g>
    </g>
</svg>