<?xml version="1.0" encoding="UTF-8"?>
<svg width="20px" height="20px" viewBox="0 0 20 20" version="1.1" xmlns="http://www.w3.org/2000/svg" xmlns:xlink="http://www.w3.org/1999/xlink">
    <title>编组 2备份 10</title>
    <g id="页面-1" stroke="none" stroke-width="1" fill="none" fill-rule="evenodd">
        <g id="icon_资产台账_off">
            <rect id="矩形" fill-opacity="0" fill="#D8D8D8" x="0" y="0" width="20" height="20"></rect>
            <path d="M13,1 C14.1045695,1 15,1.8954305 15,3 L15,17 C15,18.1045695 14.1045695,19 13,19 L3,19 C1.8954305,19 1,18.1045695 1,17 L1,3 C1,1.8954305 1.8954305,1 3,1 L13,1 Z M18.3564856,3.00027703 C18.6874306,3.01129823 18.947006,3.28833196 18.9362946,3.61940211 C18.9334559,3.70714228 18.9115601,3.79137822 18.8746152,3.86689183 C18.5657797,4.50098633 18.1945954,5.57669796 17.768063,7.08251633 C17.3166136,8.67630082 17.0563961,12.1658891 16.9999721,17.5052835 C16.9970541,17.7814104 16.7708435,18.0028901 16.4947165,18 C16.2185896,17.9970541 15.9971099,17.7708435 15.9999994,17.4947165 L16.0127446,16.5282695 C16.0902649,11.6420754 16.3511846,8.4153567 16.8059168,6.80998245 C17.0861586,5.82062439 17.3447015,5.0066605 17.5834365,4.36494161 L17.725,4 L16.4999994,4 C16.2545401,4 16.0503916,3.82312484 16.0080557,3.58987563 L15.9999994,3.5 C15.9999994,3.22385763 16.2238576,3 16.4999994,3 L18.3564856,3.00027703 Z M13,2 L3,2 C2.44771525,2 2,2.44771525 2,3 L2,17 C2,17.5522847 2.44771525,18 3,18 L13,18 C13.5522847,18 14,17.5522847 14,17 L14,3 C14,2.44771525 13.5522847,2 13,2 Z M6.29355339,5.44644661 L8,7.153 L9.70776695,5.44644661 C9.9030291,5.25118446 10.2196116,5.25118446 10.4148737,5.44644661 C10.6101359,5.64170876 10.6101359,5.95829124 10.4148737,6.15355339 L8.868,7.7 L10,7.7 C10.2761424,7.7 10.5,7.92385763 10.5,8.2 C10.5,8.47614237 10.2761424,8.7 10,8.7 L8.499,8.7 L8.499,10.2 L9.5,10.2 C9.77614237,10.2 10,10.4238576 10,10.7 C10,10.9761424 9.77614237,11.2 9.5,11.2 L8.499,11.2 L8.5,14.2 C8.5,14.4761424 8.27614237,14.7 8,14.7 C7.72385763,14.7 7.5,14.4761424 7.5,14.2 L7.499,11.2 L6.5,11.2 C6.22385763,11.2 6,10.9761424 6,10.7 C6,10.4238576 6.22385763,10.2 6.5,10.2 L7.499,10.2 L7.499,8.7 L6,8.7 C5.72385763,8.7 5.5,8.47614237 5.5,8.2 C5.5,7.92385763 5.72385763,7.7 6,7.7 L7.133,7.7 L5.58644661,6.15355339 C5.39118446,5.95829124 5.39118446,5.64170876 5.58644661,5.44644661 C5.78170876,5.25118446 6.09829124,5.25118446 6.29355339,5.44644661 Z" id="形状结合" fill="currentColor"></path>
        </g>
    </g>
</svg>
