<?xml version="1.0" encoding="UTF-8"?>
<svg width="20px" height="20px" viewBox="0 0 20 20" version="1.1" xmlns="http://www.w3.org/2000/svg" xmlns:xlink="http://www.w3.org/1999/xlink">
    <title>icon_客户管理_on</title>
    <defs>
        <linearGradient x1="0%" y1="58.660285%" x2="100%" y2="41.339715%" id="linearGradient-1">
            <stop stop-color="#1D41E7" offset="0%"></stop>
            <stop stop-color="#F42F3B" offset="100%"></stop>
        </linearGradient>
        <linearGradient x1="0%" y1="100%" x2="100%" y2="0%" id="linearGradient-2">
            <stop stop-color="#1D41E7" offset="0%"></stop>
            <stop stop-color="#F42F3B" offset="100%"></stop>
        </linearGradient>
    </defs>
    <g id="1" stroke="none" stroke-width="1" fill="none" fill-rule="evenodd">
        <g id="切图" transform="translate(-200.000000, -50.000000)">
            <g id="icon_客户管理_on" transform="translate(200.000000, 50.000000)">
                <rect id="矩形" fill-opacity="0" fill="#D8D8D8" x="0" y="0" width="20" height="20"></rect>
                <path d="M14.483,11.374 L14.2990763,11.5248514 C13.085796,12.4705417 11.5839229,13 10,13 C8.44734658,13 6.97463737,12.4911019 5.77585894,11.5821848 L5.515,11.375 L5.39743981,11.455206 C3.52972257,12.7695255 2.29799465,14.8267972 2.04733557,17.1270092 L2.039,17.213 L2.37605584,17.2866573 C4.49271095,17.7220764 6.80448489,17.9586332 9.31144441,17.9950356 L10,18 C12.77358,18 15.3148659,17.76166 17.6239442,17.2866573 L17.96,17.213 L17.9526644,17.1270092 C17.7020054,14.8267972 16.4702774,12.7695255 14.6025602,11.455206 L14.483,11.374 Z" id="路径" fill-opacity="0.1" fill="url(#linearGradient-1)" fill-rule="nonzero"></path>
                <path d="M10,2 C7.790861,2 6,3.790861 6,6 C6,8.209139 7.790861,10 10,10 C12.209139,10 14,8.209139 14,6 C14,3.790861 12.209139,2 10,2 Z" id="路径" fill-opacity="0.1" fill="url(#linearGradient-2)" fill-rule="nonzero"></path>
                <path d="M14.3579475,10.1235797 C17.1261974,11.6584995 19,14.6104247 19,18 C16.3137085,18.6666667 13.3137085,19 10,19 C6.6862915,19 3.6862915,18.6666667 1,18 C1,14.6104247 2.87380261,11.6584995 5.64205249,10.1235797 C6.73607358,11.2795408 8.28390066,12 10,12 C11.6568542,12 13.1568542,11.3284271 14.2426407,10.2426407 L14.3579475,10.1235797 Z M14.483,11.374 L14.2990763,11.5248514 C13.3756132,12.2446439 12.2849633,12.7233059 11.1181985,12.9109118 L11.5299311,14.55829 L10.5366563,16.5448396 C10.3884628,16.8412267 10.0280589,16.9613613 9.73167184,16.8131678 C9.6155554,16.7551096 9.52140191,16.6609561 9.46334369,16.5448396 L8.47006887,14.55829 L8.88221122,12.910955 C7.74600704,12.7282881 6.68257618,12.2696603 5.77585894,11.5821848 L5.515,11.375 L5.39743981,11.455206 C3.52972257,12.7695255 2.29799465,14.8267972 2.04733557,17.1270092 L2.039,17.213 L2.37605584,17.2866573 C4.49271095,17.7220764 6.80448489,17.9586332 9.31144441,17.9950356 L10,18 C12.77358,18 15.3148659,17.76166 17.6239442,17.2866573 L17.96,17.213 L17.9526644,17.1270092 C17.7020054,14.8267972 16.4702774,12.7695255 14.6025602,11.455206 L14.483,11.374 Z M10,13 L9.891,12.997 L9.53,14.4431183 L10,15.3831183 L10.469,14.4431183 L10.1084808,12.9991715 C10.072365,12.9997234 10.036204,13 10,13 Z M10,1 C12.7614237,1 15,3.23857625 15,6 C15,8.76142375 12.7614237,11 10,11 C7.23857625,11 5,8.76142375 5,6 C5,3.23857625 7.23857625,1 10,1 Z M10,2 C7.790861,2 6,3.790861 6,6 C6,8.209139 7.790861,10 10,10 C12.209139,10 14,8.209139 14,6 C14,3.790861 12.209139,2 10,2 Z" id="形状结合" fill="url(#linearGradient-2)" fill-rule="nonzero"></path>
            </g>
        </g>
    </g>
</svg>