<?xml version="1.0" encoding="UTF-8"?>
<svg width="20px" height="20px" viewBox="0 0 20 20" version="1.1" xmlns="http://www.w3.org/2000/svg" xmlns:xlink="http://www.w3.org/1999/xlink">
    <title>园区运维</title>
    <defs>
        <linearGradient x1="4.26300946%" y1="100%" x2="95.7369905%" y2="0%" id="linearGradient-1">
            <stop stop-color="#1D41E7" offset="0%"></stop>
            <stop stop-color="#F42F3B" offset="100%"></stop>
        </linearGradient>
    </defs>
    <g id="页面-1" stroke="none" stroke-width="1" fill="none" fill-rule="evenodd">
        <g id="电站效率" transform="translate(-30.000000, -231.000000)" fill-rule="nonzero">
            <g id="编组-2备份" transform="translate(0.000000, 214.000000)">
                <g id="园区运维" transform="translate(30.000000, 17.000000)">
                    <rect id="矩形" fill="#000000" opacity="0" x="0" y="0" width="20" height="20"></rect>
                    <path d="M11.3127212,1.21860955 L18.4064308,8.31231917 C18.7489652,8.65424944 18.9375168,9.10952929 18.9375168,9.594375 C18.9393457,10.2047789 18.6322234,10.7744627 18.1214315,11.1083081 L18.093125,12.27125 C18.093125,12.5819102 17.8412852,12.83375 17.530625,12.83375 C17.2199648,12.83375 16.968125,12.5819102 16.968125,12.27125 L16.968125,10.77625 C16.9682838,10.5702517 17.0805308,10.3837757 17.2557735,10.2855529 L17.3484172,10.2441141 C17.6266002,10.1498546 17.8135572,9.88811493 17.8124996,9.59415015 C17.8125,9.41025579 17.7408799,9.23742938 17.6109518,9.10818876 L10.5173211,2.01393277 C10.2484432,1.74582802 9.81343178,1.74582802 9.54461951,2.01386723 L2.45080583,9.10768083 C2.28307801,9.27545362 2.21369707,9.51783609 2.26724387,9.74894017 C2.31186621,9.9415269 2.43660077,10.1036044 2.60680827,10.1967883 L2.7141124,10.2441243 C2.94123324,10.3222436 3.09375441,10.5359992 3.09375,10.7762489 L3.09375,17.5 C3.09375,17.8793118 3.40215104,18.1875 3.78125,18.1875 L10.03125,18.1875 C10.3419102,18.1875 10.59375,18.4393398 10.59375,18.75 C10.59375,19.0606602 10.3419102,19.3125 10.03125,19.3125 L3.78125,19.3125 C2.7820178,19.3125 1.96875,18.4992322 1.96875,17.5 L1.96875,11.16 C1.48572051,10.8080928 1.18967889,10.3197134 1.13439355,9.77775307 C1.07910821,9.23579272 1.2704391,8.69769649 1.65546552,8.31229781 L8.74915376,1.21860955 C9.45744207,0.511614779 10.6044329,0.511614779 11.3127212,1.21860955 Z M7.42083056,5.95760478 C9.0136678,5.33650915 10.8171143,5.61561581 12.1476861,6.68914682 C13.478258,7.76267782 14.1323373,9.46635031 13.8620361,11.1544935 L13.8620361,11.1544935 L16.7183058,14.0473192 L16.8728069,14.2150003 C17.4600278,14.9071476 17.6755879,15.8479368 17.4381839,16.7339405 C17.1809962,17.6937779 16.4312779,18.4434962 15.4714405,18.7006839 C14.5116032,18.9578715 13.4874689,18.6834556 12.7848192,17.9808058 L12.7848192,17.9808058 L9.93669417,15.1326808 L9.64658856,15.1651767 C8.0060352,15.3021646 6.43268164,14.641367 5.42457325,13.3795163 C4.35716437,12.043439 4.08689373,10.2380919 4.71623874,8.64800094 C4.78596225,8.47184612 4.93967707,8.34262221 5.12519336,8.30420436 C5.31070965,8.26578651 5.5031027,8.32333627 5.63705091,8.45731426 L5.63705091,8.45731426 L7.55393083,10.3741942 L7.63643722,10.4447032 C7.75299472,10.5293332 7.89410164,10.5757507 8.04,10.5757507 C8.22237295,10.5757507 8.39725927,10.5032233 8.52610673,10.3741566 L8.52610673,10.3741566 L9.13794417,9.76231917 L9.20845325,9.67981278 C9.29308319,9.56325528 9.33950073,9.42214836 9.33950073,9.27625 C9.33950073,9.09387705 9.26697332,8.91899073 9.13790658,8.79014327 L9.13790658,8.79014327 L7.22731917,6.87955583 L7.15589397,6.7924588 C7.07340783,6.66831365 7.04275037,6.51492268 7.07398721,6.36609368 C7.11303326,6.18005743 7.24349414,6.02637746 7.42083056,5.95760478 Z M9.10356091,6.7582433 L8.8575,6.77125 L10.0543578,8.12777035 C10.3186766,8.45031491 10.4649121,8.85589918 10.4649121,9.2765625 C10.4649121,9.75732058 10.2739107,10.2183836 9.93393457,10.5583021 L9.93393457,10.5583021 L9.32205583,11.1701808 L9.18910465,11.2906078 C8.86656009,11.5549266 8.46097582,11.7011621 8.0403125,11.7011621 C7.55955442,11.7011621 7.09849142,11.5101607 6.75857292,11.1701846 L6.75857292,11.1701846 L5.62919417,10.0408058 L5.59597966,10.2803442 C5.48201263,11.3936232 5.9376923,12.4368341 6.76015444,13.1525089 C7.64136388,13.9193033 8.83678039,14.217128 9.97473645,13.9533861 L9.97473645,13.9533861 L10.3122199,13.8752649 L13.5808058,17.1854442 L13.7152828,17.3061621 C14.3656185,17.8292729 15.3192727,17.7890338 15.9229412,17.1854472 C16.5691154,16.5386235 16.5693162,15.4903521 15.9236136,14.8433503 L15.9236136,14.8433503 L12.6029442,11.5226808 L12.6995827,11.2418399 L12.7486994,10.9977679 C12.924679,9.93729742 12.6233381,8.84771986 11.916953,8.0261353 C11.2105679,7.20455074 10.1784887,6.74325009 9.10356091,6.7582433 L9.10356091,6.7582433 Z M12.4232417,13.1610034 L12.5400028,13.1673275 C12.6552037,13.1857145 12.7638521,13.2397887 12.8490987,13.3250354 L15.0365987,15.5125354 C15.1786764,15.654613 15.2341641,15.8616958 15.1821601,16.0557775 C15.130156,16.2498592 14.9785609,16.4014543 14.7844792,16.4534583 C14.5903975,16.5054623 14.3833148,16.4499747 14.2412371,16.307897 L12.0537371,14.120397 C11.9116594,13.9783193 11.8561718,13.7712366 11.9081758,13.5771549 C11.9601798,13.3830732 12.1117749,13.2314781 12.3058566,13.179474 L12.4232417,13.1610034 Z" id="形状结合" fill="url(#linearGradient-1)"></path>
                </g>
            </g>
        </g>
    </g>
</svg>