<?xml version="1.0" encoding="UTF-8"?>
<svg width="20px" height="20px" viewBox="0 0 20 20" version="1.1" xmlns="http://www.w3.org/2000/svg" xmlns:xlink="http://www.w3.org/1999/xlink">
    <title>icon_绩效分析_on</title>
    <defs>
        <linearGradient x1="0%" y1="100%" x2="100%" y2="0%" id="linearGradient-1">
            <stop stop-color="#1D41E7" offset="0%"></stop>
            <stop stop-color="#F42F3B" offset="100%"></stop>
        </linearGradient>
    </defs>
    <g id="v1.0.0（我的资产+结算+告警）" stroke="none" stroke-width="1" fill="none" fill-rule="evenodd">
        <g id="切图" transform="translate(-530.000000, -50.000000)">
            <g id="icon_绩效分析_on" transform="translate(530.000000, 50.000000)">
                <rect id="矩形" fill-opacity="0" fill="#D8D8D8" x="0" y="0" width="20" height="20"></rect>
                <path d="M3.22588129,11.0007734 C3.65933386,11.4098179 4.15924215,11.7491963 4.7077024,12.001005 L2,12 L2,18 L5,18 L5.00012566,12.1251088 C5.32000232,12.2500209 5.65444123,12.3458505 6.00019187,12.4093471 L6,19 L1,19 L1,12 C1,11.4477153 1.44771525,11 2,11 L3.22588129,11.0007734 Z M8.50017618,12.2929177 L8.5,18 L11.5,18 L11.5,13.621 L12.5,14.621 L12.5,19 L7.5,19 L7.50061211,12.4775233 C7.84386961,12.4465522 8.17803096,12.3840437 8.50017618,12.2929177 Z M18,6 C18.5522847,6 19,6.44771525 19,7 L19,19 L14,19 L14,15.5 C14.358628,15.5 14.717256,15.3721888 15.0016967,15.1165665 L15,18 L18,18 L18,7 L15,7 L15,12.879 L14,11.879 L14,7 C14,6.44771525 14.4477153,6 15,6 L18,6 Z M7,2.5 C9.48528137,2.5 11.5,4.51471863 11.5,7 C11.5,8.06240691 11.1318328,9.03882377 10.5161235,9.80862564 L14.3535534,13.6464466 C14.5488155,13.8417088 14.5488155,14.1582912 14.3535534,14.3535534 C14.1582912,14.5488155 13.8417088,14.5488155 13.6464466,14.3535534 L9.80862564,10.5161235 C9.03882377,11.1318328 8.06240691,11.5 7,11.5 C4.51471863,11.5 2.5,9.48528137 2.5,7 C2.5,4.51471863 4.51471863,2.5 7,2.5 Z M7,3.5 C5.06700338,3.5 3.5,5.06700338 3.5,7 C3.5,8.93299662 5.06700338,10.5 7,10.5 C8.93299662,10.5 10.5,8.93299662 10.5,7 C10.5,5.06700338 8.93299662,3.5 7,3.5 Z M12.5,7 L12.5,10.379 L11.8029083,9.68196751 C12.2025065,8.96789278 12.4474722,8.15556294 12.4924694,7.29031407 L12.5,7 Z M11.5,1 C12.0522847,1 12.5,1.44771525 12.5,2 L12.5,7 L12.4923591,6.7075731 C12.4365589,5.64240535 12.0777033,4.65750795 11.500399,3.83748757 L11.5,2 L9.29431414,1.99992133 C8.77353719,1.76056684 8.20894706,1.60017965 7.61588097,1.53409697 C7.78269968,1.21634474 8.11608483,1 8.5,1 L11.5,1 Z" id="形状结合" fill="url(#linearGradient-1)" fill-rule="nonzero"></path>
            </g>
        </g>
    </g>
</svg>