<?xml version="1.0" encoding="UTF-8"?>
<svg width="20px" height="20px" viewBox="0 0 20 20" version="1.1" xmlns="http://www.w3.org/2000/svg" xmlns:xlink="http://www.w3.org/1999/xlink">
    <title>icon_收益绩效_on</title>
    <defs>
        <linearGradient x1="0%" y1="100%" x2="100%" y2="0%" id="linearGradient-1">
            <stop stop-color="#1D41E7" offset="0%"></stop>
            <stop stop-color="#F42F3B" offset="100%"></stop>
        </linearGradient>
    </defs>
    <g id="1" stroke="none" stroke-width="1" fill="none" fill-rule="evenodd">
        <g id="切图" transform="translate(-140.000000, -50.000000)">
            <g id="icon_收益绩效_on" transform="translate(140.000000, 50.000000)">
                <rect id="矩形" fill-opacity="0" fill="#D8D8D8" x="0" y="0" width="20" height="20"></rect>
                <path d="M16.5,1.5 C17.6045695,1.5 18.5,2.3954305 18.5,3.5 L18.5,16.5 C18.5,17.6045695 17.6045695,18.5 16.5,18.5 L11.5,18.5 L11.5,10.5 C9.43678432,11.7030075 7.85109491,12.3633049 6.74293179,12.4808921 L6.56265947,12.4954649 L6.455,12.498 L6.31291554,12.4946744 C5.29454917,12.4378674 3.94686172,11.9266051 2.2698532,10.9608874 L1.95155487,10.7744896 L1.81903052,10.695 L1.5,10.5 L1.5,3.5 C1.5,2.3954305 2.3954305,1.5 3.5,1.5 L16.5,1.5 Z" id="形状结合" fill-opacity="0.1" fill="url(#linearGradient-1)" fill-rule="nonzero"></path>
                <path d="M11,16 C11.2761424,16 11.5,16.2238576 11.5,16.5 C11.5,17.9915219 9.23092434,19 6.5,19 C3.76907566,19 1.5,17.9915219 1.5,16.5 C1.5,16.2238576 1.72385763,16 2,16 C2.24545989,16 2.44960837,16.1768752 2.49194433,16.4101244 L2.5,16.5 C2.5,17.2176171 4.26036159,18 6.5,18 C8.65965132,18 10.3736486,17.2725036 10.4933223,16.5770968 L10.5,16.5 C10.5,16.2238576 10.7238576,16 11,16 Z M18.5,14 C18.7761424,14 19,14.2238576 19,14.5 L19,16.5 C19,17.8807119 17.8807119,19 16.5,19 L13.5,19 C13.2238576,19 13,18.7761424 13,18.5 C13,18.2238576 13.2238576,18 13.5,18 L16.5,18 C17.3284271,18 18,17.3284271 18,16.5 L18,14.5 C18,14.2238576 18.2238576,14 18.5,14 Z M11,13 C11.2761424,13 11.5,13.2238576 11.5,13.5 C11.5,14.9915219 9.23092434,16 6.5,16 C3.76907566,16 1.5,14.9915219 1.5,13.5 C1.5,13.2238576 1.72385763,13 2,13 C2.24545989,13 2.44960837,13.1768752 2.49194433,13.4101244 L2.5,13.5 C2.5,14.2176171 4.26036159,15 6.5,15 C8.65965132,15 10.3736486,14.2725036 10.4933223,13.5770968 L10.5,13.5 C10.5,13.2238576 10.7238576,13 11,13 Z M6.5,8 C9.23092434,8 11.5,9.00847807 11.5,10.5 C11.5,11.9915219 9.23092434,13 6.5,13 C3.76907566,13 1.5,11.9915219 1.5,10.5 C1.5,9.00847807 3.76907566,8 6.5,8 Z M18,7.5 C18.5522847,7.5 19,7.94771525 19,8.5 L19,11.5 C19,12.0522847 18.5522847,12.5 18,12.5 L16.5,12.5 C15.1192881,12.5 14,11.3807119 14,10 C14,8.61928813 15.1192881,7.5 16.5,7.5 Z M6.5,9 C4.26036159,9 2.5,9.78238293 2.5,10.5 C2.5,11.2176171 4.26036159,12 6.5,12 C8.73963841,12 10.5,11.2176171 10.5,10.5 C10.5,9.78238293 8.73963841,9 6.5,9 Z M18,8.5 L16.5,8.5 C15.6715729,8.5 15,9.17157288 15,10 C15,10.8284271 15.6715729,11.5 16.5,11.5 L18,11.5 L18,8.5 Z M16.5,1 C17.8807119,1 19,2.11928813 19,3.5 L19,5.5 C19,5.77614237 18.7761424,6 18.5,6 C18.2238576,6 18,5.77614237 18,5.5 L18,3.5 C18,2.67157288 17.3284271,2 16.5,2 L3.5,2 C2.67157288,2 2,2.67157288 2,3.5 L2,6.5 C2,6.77614237 1.77614237,7 1.5,7 C1.22385763,7 1,6.77614237 1,6.5 L1,3.5 C1,2.11928813 2.11928813,1 3.5,1 L16.5,1 Z" id="形状结合" fill="url(#linearGradient-1)" fill-rule="nonzero"></path>
            </g>
        </g>
    </g>
</svg>