<?xml version="1.0" encoding="UTF-8"?>
<svg width="20px" height="20px" viewBox="0 0 20 20" version="1.1" xmlns="http://www.w3.org/2000/svg" xmlns:xlink="http://www.w3.org/1999/xlink">
    <title>icon_月度报告_on</title>
    <defs>
        <linearGradient x1="0%" y1="100%" x2="100%" y2="0%" id="linearGradient-1">
            <stop stop-color="#1D41E7" offset="0%"></stop>
            <stop stop-color="#F42F3B" offset="100%"></stop>
        </linearGradient>
    </defs>
    <g id="1" stroke="none" stroke-width="1" fill="none" fill-rule="evenodd">
        <g id="切图" transform="translate(-470.000000, -50.000000)">
            <g id="icon_月度报告_on" transform="translate(470.000000, 50.000000)">
                <rect id="矩形" fill-opacity="0" fill="#D8D8D8" x="0" y="0" width="20" height="20"></rect>
                <path d="M5,11 C5.55228475,11 6,11.4477153 6,12 L6,19 L1,19 L1,12 C1,11.4477153 1.44771525,11 2,11 L5,11 Z M5,12 L2,12 L2,18 L5,18 L5,12 Z M11.5,1 C12.0522847,1 12.5,1.44771525 12.5,2 L12.5,19 L7.5,19 L7.5,2 C7.5,1.44771525 7.94771525,1 8.5,1 L11.5,1 Z M11.5,2 L8.5,2 L8.5,18 L11.5,18 L11.5,2 Z M18,6 C18.5522847,6 19,6.44771525 19,7 L19,19 L14,19 L14,7 C14,6.44771525 14.4477153,6 15,6 L18,6 Z M18,7 L15,7 L15,18 L18,18 L18,7 Z" id="形状结合" fill="url(#linearGradient-1)" fill-rule="nonzero"></path>
            </g>
        </g>
    </g>
</svg>