<?xml version="1.0" encoding="UTF-8"?>
<svg width="20px" height="20px" viewBox="0 0 20 20" version="1.1" xmlns="http://www.w3.org/2000/svg" xmlns:xlink="http://www.w3.org/1999/xlink">
    <title>icon_我的资产_off</title>
    <g id="页面-1" stroke="none" stroke-width="1" fill="none" fill-rule="evenodd">
        <g id="icon_我的资产_off">
            <rect id="矩形" fill-opacity="0" fill="#D8D8D8" x="0" y="0" width="20" height="20"></rect>
            <path d="M9.7,1 L10.3,1 C10.4104569,1 10.5,1.08954305 10.5,1.2 L10.5,2.8 C10.5,2.91045695 10.4104569,3 10.3,3 L9.7,3 C9.58954305,3 9.5,2.91045695 9.5,2.8 L9.5,1.2 C9.5,1.08954305 9.58954305,1 9.7,1 Z M5.45140321,1.30705524 L6.0309587,1.15176381 C6.13765192,1.12317545 6.24731932,1.18649195 6.27590768,1.29318517 L6.69001815,2.83866648 C6.71860651,2.94535971 6.65529001,3.0550271 6.54859679,3.08361546 L5.9690413,3.23890689 C5.86234808,3.26749525 5.75268068,3.20417875 5.72409232,3.09748553 L5.30998185,1.55200421 C5.28139349,1.44531099 5.34470999,1.3356436 5.45140321,1.30705524 Z M13.9690413,1.15176381 L14.5485968,1.30705524 C14.65529,1.3356436 14.7186065,1.44531099 14.6900181,1.55200421 L14.2759077,3.09748553 C14.2473193,3.20417875 14.1376519,3.26749525 14.0309587,3.23890689 L13.4514032,3.08361546 C13.34471,3.0550271 13.2813935,2.94535971 13.3099819,2.83866648 L13.7240923,1.29318517 C13.7526807,1.18649195 13.8623481,1.12317545 13.9690413,1.15176381 Z M17.0502887,4.12572187 L18.9537762,8.88444041 C18.9820759,8.95518972 18.9677143,9.03587297 18.9167397,9.09251149 L10.1486588,18.8348235 C10.074767,18.9169255 9.94830906,18.9235812 9.86620705,18.8496894 C9.86099456,18.8449982 9.85603241,18.840036 9.85134117,18.8348235 L1.08326035,9.09251149 C1.03228568,9.03587297 1.01792411,8.95518972 1.04622384,8.88444041 L2.94971125,4.12572187 C2.98008392,4.04979019 3.05362568,4 3.13540659,4 L16.8645934,4 C16.9463743,4 17.0199161,4.04979019 17.0502887,4.12572187 Z M7.68,10.1904561 L9.981,16.4924561 L12.256,10.1984561 L7.68,10.1904561 Z M17.349,9.33745614 L13.344,10.1314561 L11.134,16.2454561 L17.349,9.33745614 Z M2.65,9.33945614 L8.799,16.1704561 L6.592,10.1274561 L2.65,9.33945614 Z M10.789,4.99945614 L9.147,4.99945614 L7.673,9.20045614 L12.265,9.20845614 L10.789,4.99945614 Z M11.849,4.99945614 L13.298,9.13045614 L17.628,8.26445614 L16.323,5 L11.849,4.99945614 Z M8.087,4.99945614 L3.676,5 L2.369,8.26445614 L6.639,9.12645614 L8.087,4.99945614 Z" id="形状结合" fill="currentColor"></path>
        </g>
    </g>
</svg>
