<?xml version="1.0" encoding="UTF-8"?>
<svg width="20px" height="20px" viewBox="0 0 20 20" version="1.1" xmlns="http://www.w3.org/2000/svg" xmlns:xlink="http://www.w3.org/1999/xlink">
    <title>编组 4</title>
    <g id="页面-1" stroke="none" stroke-width="1" fill="none" fill-rule="evenodd">
        <g id="编组-16">
            <rect id="矩形" fill-opacity="0" fill="#D8D8D8" x="0" y="0" width="20" height="20"></rect>
            <path d="M13,1 C13.2761424,1 13.5,1.22385763 13.5,1.5 L13.5,3 L16,3 C16.5522847,3 17,3.44771525 17,4 L17,6.5 L18.5,6.5 C18.7761424,6.5 19,6.72385763 19,7 C19,7.27614237 18.7761424,7.5 18.5,7.5 L17,7.5 L17,9.5 L18.5,9.5 C18.7761424,9.5 19,9.72385763 19,10 C19,10.2761424 18.7761424,10.5 18.5,10.5 L17,10.5 L17,12.5 L18.5,12.5 C18.7761424,12.5 19,12.7238576 19,13 C19,13.2761424 18.7761424,13.5 18.5,13.5 L17,13.5 L17,16 C17,16.5522847 16.5522847,17 16,17 L13.5,17 L13.5,18.5 C13.5,18.7761424 13.2761424,19 13,19 C12.7238576,19 12.5,18.7761424 12.5,18.5 L12.5,17 L10.5,17 L10.5,18.5 C10.5,18.7761424 10.2761424,19 10,19 C9.72385763,19 9.5,18.7761424 9.5,18.5 L9.5,17 L7.5,17 L7.5,18.5 C7.5,18.7761424 7.27614237,19 7,19 C6.72385763,19 6.5,18.7761424 6.5,18.5 L6.5,17 L4,17 C3.44771525,17 3,16.5522847 3,16 L3,13.5 L1.5,13.5 C1.22385763,13.5 1,13.2761424 1,13 C1,12.7238576 1.22385763,12.5 1.5,12.5 L3,12.5 L3,10.5 L1.5,10.5 C1.22385763,10.5 1,10.2761424 1,10 C1,9.72385763 1.22385763,9.5 1.5,9.5 L3,9.5 L3,7.5 L1.5,7.5 C1.22385763,7.5 1,7.27614237 1,7 C1,6.72385763 1.22385763,6.5 1.5,6.5 L3,6.5 L3,4 C3,3.44771525 3.44771525,3 4,3 L6.5,3 L6.5,1.5 C6.5,1.22385763 6.72385763,1 7,1 C7.27614237,1 7.5,1.22385763 7.5,1.5 L7.5,3 L9.5,3 L9.5,1.5 C9.5,1.22385763 9.72385763,1 10,1 C10.2761424,1 10.5,1.22385763 10.5,1.5 L10.5,3 L12.5,3 L12.5,1.5 C12.5,1.22385763 12.7238576,1 13,1 Z M16,4 L4,4 L4,16 L16,16 L16,4 Z M10.5857864,6 C10.8510029,6 11.1053568,6.10535684 11.2928932,6.29289322 L13.7071068,10.7071068 C13.8946432,10.8946432 14,11.1489971 14,11.4142136 L14,13 C14,13.5522847 13.5522847,14 13,14 L7,14 C6.44771525,14 6,13.5522847 6,13 L6,7 C6,6.44771525 6.44771525,6 7,6 L10.5857864,6 Z M10.5857864,7 L7,7 L7,13 L13,13 L13,11.4142136 L10.5857864,7 Z" id="形状结合" fill="currentColor"></path>
        </g>
    </g>
</svg>
