<?xml version="1.0" encoding="UTF-8"?>
<svg width="20px" height="20px" viewBox="0 0 20 20" version="1.1" xmlns="http://www.w3.org/2000/svg" xmlns:xlink="http://www.w3.org/1999/xlink">
    <title>icon_运维绩效_on</title>
    <defs>
        <linearGradient x1="22.4578713%" y1="100%" x2="77.5421287%" y2="0%" id="linearGradient-1">
            <stop stop-color="#1D41E7" offset="0%"></stop>
            <stop stop-color="#F42F3B" offset="100%"></stop>
        </linearGradient>
        <linearGradient x1="0%" y1="100%" x2="100%" y2="0%" id="linearGradient-2">
            <stop stop-color="#1D41E7" offset="0%"></stop>
            <stop stop-color="#F42F3B" offset="100%"></stop>
        </linearGradient>
    </defs>
    <g id="1" stroke="none" stroke-width="1" fill="none" fill-rule="evenodd">
        <g id="切图" transform="translate(-110.000000, -50.000000)">
            <g id="icon_运维绩效_on" transform="translate(110.000000, 50.000000)">
                <rect id="矩形" fill-opacity="0" fill="#D8D8D8" x="0" y="0" width="20" height="20"></rect>
                <path d="M3,1 L6,1 L6,1 C6.23958566,1.97744242 6.3593785,2.86796671 6.3593785,3.67157288 C6.3593785,4.47517904 6.23958566,5.25132142 6,6 L10,6 C10.2395857,6.80520485 10.3593785,7.52950259 10.3593785,8.17289322 C10.3593785,8.81628385 10.2395857,9.42575956 10,10.0013203 L14,10 C14.2395857,10.7308485 14.3593785,11.4730879 14.3593785,12.226718 C14.3593785,12.9803482 14.2395857,13.7381088 14,14.5 C14.2395857,15.3242606 14.3593785,16.104355 14.3593785,16.8402833 C14.3593785,17.5762115 14.2395857,18.296117 14,19 L3,19 C1.8954305,19 1,18.1045695 1,17 L1,3 C1,1.8954305 1.8954305,1 3,1 Z" id="矩形" fill-opacity="0.2" fill="url(#linearGradient-1)" fill-rule="nonzero"></path>
                <path d="M6.5,1 C6.77614237,1 7,1.22385763 7,1.5 C7,1.77614237 6.77614237,2 6.5,2 L3,2 C2.48716416,2 2.06449284,2.38604019 2.00672773,2.88337887 L2,3 L2,17 C2,17.5522847 2.44771525,18 3,18 L16.5,18 C16.7761424,18 17,18.2238576 17,18.5 C17,18.7761424 16.7761424,19 16.5,19 L3,19 C1.8954305,19 1,18.1045695 1,17 L1,3 C1,1.8954305 1.8954305,1 3,1 L6.5,1 Z M13.732233,13.0251263 L14.8535534,14.1464466 L14.8676,14.1610711 L14.881,14.177 L14.866,14.161 L14.8986419,14.198152 L14.9204888,14.2292723 L14.9460061,14.2737575 L14.9608342,14.3056707 C14.9669546,14.3201926 14.9723394,14.3348356 14.9770412,14.3497814 C14.9816794,14.364649 14.985656,14.3797696 14.9889143,14.3950129 C14.9912332,14.405629 14.9932062,14.4166163 14.9948142,14.4277219 C14.9973429,14.445461 14.9989382,14.4629328 14.9996194,14.4804335 L15,14.5 L14.996,14.553 L14.997,14.546 C14.9952978,14.5711059 14.992515,14.5884179 14.9888688,14.6054094 C14.9854633,14.6210906 14.9812913,14.6368029 14.976343,14.6523214 C14.9720341,14.6658512 14.9673657,14.6785709 14.9622078,14.6910366 C14.9567149,14.7043963 14.950287,14.7182057 14.943195,14.7317582 C14.9367067,14.7440467 14.9299807,14.7556825 14.922812,14.7670103 C14.9153907,14.7788346 14.9072255,14.7906092 14.8984974,14.8020925 C14.8880797,14.8157542 14.8770608,14.8288187 14.8654113,14.8412864 L13.732233,15.9748737 C13.5369709,16.1701359 13.2203884,16.1701359 13.0251263,15.9748737 C12.8298641,15.7796116 12.8298641,15.4630291 13.0251263,15.267767 L13.293,14.9996797 L4.5,15 C4.22385763,15 4,14.7761424 4,14.5 C4,14.2238576 4.22385763,14 4.5,14 L13.293,13.9996797 L13.0251263,13.732233 C12.8298641,13.5369709 12.8298641,13.2203884 13.0251263,13.0251263 C13.2203884,12.8298641 13.5369709,12.8298641 13.732233,13.0251263 Z M9.73223305,4.02512627 L10.8535534,5.14644661 L10.8676,5.1610711 L10.881,5.177 L10.866,5.161 L10.8986419,5.19815204 L10.9204888,5.22927229 L10.9460061,5.27375753 L10.9608342,5.30567073 C10.9669546,5.3201926 10.9723394,5.33483565 10.9770412,5.3497814 C10.9816794,5.36464904 10.985656,5.3797696 10.9889143,5.39501295 C10.9912332,5.40562898 10.9932062,5.41661634 10.9948142,5.42772188 C10.9973429,5.44546098 10.9989382,5.46293275 10.9996194,5.48043349 L11,5.5 L10.996,5.553 L10.997,5.546 C10.9952978,5.57110592 10.992515,5.5884179 10.9888688,5.60540939 C10.9854633,5.62109055 10.9812913,5.6368029 10.976343,5.6523214 C10.9720341,5.66585115 10.9673657,5.67857086 10.9622078,5.69103656 C10.9567149,5.70439626 10.950287,5.71820571 10.943195,5.73175819 C10.9367067,5.74404667 10.9299807,5.75568247 10.922812,5.76701032 C10.9153907,5.77883464 10.9072255,5.79060915 10.8984974,5.80209251 C10.8880797,5.81575424 10.8770608,5.82881868 10.8654113,5.84128643 L9.73223305,6.97487373 C9.5369709,7.17013588 9.22038841,7.17013588 9.02512627,6.97487373 C8.82986412,6.77961159 8.82986412,6.4630291 9.02512627,6.26776695 L9.293,5.99967966 L4.5,6 C4.22385763,6 4,5.77614237 4,5.5 C4,5.22385763 4.22385763,5 4.5,5 L9.293,4.99967966 L9.02512627,4.73223305 C8.82986412,4.5369709 8.82986412,4.22038841 9.02512627,4.02512627 C9.22038841,3.82986412 9.5369709,3.82986412 9.73223305,4.02512627 Z M18.9204888,9.73059264 C18.9298361,9.74518759 18.9382966,9.75990977 18.9460061,9.77507787 C18.9512364,9.78529877 18.9562376,9.79607992 18.9608342,9.80699108 C18.9669546,9.82151294 18.9723394,9.83615599 18.9770412,9.85110175 C18.9816794,9.86596939 18.985656,9.88108995 18.9889143,9.89633329 C18.9912332,9.90694932 18.9932062,9.91793669 18.9948142,9.92904222 C18.9973429,9.94678132 18.9989382,9.9642531 18.9996194,9.98175383 L18.9999012,9.99121586 L19,10.0013203 L18.996,10.054 L18.997,10.047 C18.9952978,10.0724263 18.992515,10.0897382 18.9888688,10.1067297 C18.9854633,10.1224109 18.9812913,10.1381232 18.976343,10.1536417 C18.9720341,10.1671715 18.9673657,10.1798912 18.9622078,10.1923569 C18.9567149,10.2057166 18.950287,10.2195261 18.943195,10.2330785 L18.9332586,10.2510648 L18.922812,10.2683307 C18.9153907,10.280155 18.9072255,10.2919295 18.8984974,10.3034128 C18.8880797,10.3170746 18.8770608,10.330139 18.8654113,10.3426068 L18.8535534,10.3548737 L17.732233,11.4761941 C17.5369709,11.6714562 17.2203884,11.6714562 17.0251263,11.4761941 C16.8298641,11.2809319 16.8298641,10.9643494 17.0251263,10.7690873 L17.293,10.501 L4.5,10.5013203 C4.22385763,10.5013203 4,10.2774627 4,10.0013203 C4,9.72517797 4.22385763,9.50132034 4.5,9.50132034 L17.293,9.501 L17.0251263,9.23355339 C16.8298641,9.03829124 16.8298641,8.72170876 17.0251263,8.52644661 C17.2203884,8.33118446 17.5369709,8.33118446 17.732233,8.52644661 L18.8535534,9.64776695 L18.8676,9.66239145 L18.882,9.679 L18.866,9.662 L18.8986419,9.69947239 L18.9204888,9.73059264 Z" id="形状结合" fill="url(#linearGradient-2)" fill-rule="nonzero"></path>
            </g>
        </g>
    </g>
</svg>