<?xml version="1.0" encoding="UTF-8"?>
<svg width="20px" height="20px" viewBox="0 0 20 20" version="1.1" xmlns="http://www.w3.org/2000/svg" xmlns:xlink="http://www.w3.org/1999/xlink">
    <title>编组 2备份 11</title>
    <g id="页面-1" stroke="none" stroke-width="1" fill="none" fill-rule="evenodd">
        <g id="园区运维">
            <rect id="矩形" fill="#000000" fill-rule="nonzero" opacity="0" x="0" y="0" width="20" height="20"></rect>
            <path d="M11.286229,1.24515028 C10.6333827,0.593496246 9.59995972,0.555163656 8.90233969,1.13015251 L8.77564602,1.24515028 L1.68199484,8.3388015 C1.30493173,8.71622916 1.11755804,9.24319621 1.17169995,9.77394744 C1.21982608,10.2457263 1.45424502,10.6760452 1.85023036,11.0306424 L2.00625,11.16 L2.00625,17.5 C2.00625,18.4295954 2.72507182,19.194897 3.6359139,19.2691032 L3.78125,19.275 L10.03125,19.275 C10.3211995,19.275 10.55625,19.0399495 10.55625,18.75 C10.55625,18.4922671 10.3705311,18.2779112 10.1256194,18.2334585 L10.03125,18.225 L3.78125,18.225 C3.41476315,18.225 3.11096747,17.9519335 3.0628799,17.5982988 L3.05625,17.5 L3.05625,10.7762482 C3.05625353,10.5840427 2.95166498,10.4100052 2.78831465,10.3182958 L2.70195484,10.2795988 C2.4653008,10.1984946 2.2871792,10.0011144 2.23071167,9.75740468 C2.18231092,9.5485106 2.22915067,9.33087839 2.35490911,9.16154314 L2.42428932,9.08116432 L9.51814122,1.98731257 C9.77324455,1.73294288 10.1702989,1.70750591 10.4538689,1.91107811 L10.5438388,1.98741744 L17.6373979,9.08160201 C17.7744128,9.21789198 17.85,9.40029135 17.8499994,9.59401524 C17.8511149,9.9041024 17.6539044,10.1801971 17.3605925,10.2795826 C17.1786923,10.3420237 17.0479556,10.4975333 17.0142056,10.6819373 L17.005625,10.77625 L17.005625,12.27125 C17.005625,12.5611995 17.2406755,12.79625 17.530625,12.79625 C17.7883579,12.79625 18.0027138,12.6105311 18.0471665,12.3656194 L18.055625,12.27125 L18.1009154,11.076918 C18.601077,10.7500204 18.9018077,10.1921924 18.9000166,9.594375 C18.9000166,9.17884137 18.7586831,8.78563801 18.498589,8.46946351 L18.3799143,8.33883568 L11.286229,1.24515028 Z M12.1241389,6.71833206 C10.8040303,5.65324298 9.01476555,5.37633112 7.4344539,5.99254265 C7.26888147,6.05675322 7.14712765,6.20017646 7.11068757,6.3737965 C7.08032084,6.51847986 7.11263142,6.66778292 7.1970304,6.78607236 L7.25383568,6.85303932 L9.16440053,8.76360423 C9.30051368,8.89948613 9.37700073,9.08392039 9.37700073,9.27625 C9.37700073,9.43011369 9.32804902,9.57892435 9.2388092,9.70183484 L9.16446068,9.78883568 L8.55264577,10.4006505 C8.41676387,10.5367637 8.23232961,10.6132507 8.04,10.6132507 C7.88613631,10.6132507 7.73732565,10.564299 7.61441516,10.4750592 L7.52741432,10.4007107 L5.61053146,8.48382782 C5.48551313,8.3587817 5.30594628,8.30506858 5.13279774,8.34092524 C4.95964921,8.3767819 4.81618204,8.49739088 4.75110698,8.66180151 C4.12671095,10.2393884 4.39485626,12.0305389 5.45387137,13.3561096 C6.46474942,14.6214272 8.0484876,15.2775942 9.72337326,15.1323813 L9.96321068,15.1061643 L12.8113357,17.9542893 C13.504512,18.6474656 14.5148384,18.9181818 15.4617348,18.6644617 C16.4086312,18.4107415 17.1482415,17.6711312 17.4019617,16.7242348 C17.6387671,15.8404648 17.4187303,14.9014402 16.8247616,14.2165868 L16.6917893,14.0738357 L13.8250077,11.1485646 C14.0931834,9.47369647 13.4442475,7.78342115 12.1241389,6.71833206 Z M9.0717032,6.72131725 C10.1689498,6.6966704 11.224871,7.16366624 11.945388,8.00168736 C12.665905,8.83970849 12.969302,9.95371248 12.7804403,11.0347644 L12.7360823,11.2504439 L12.6294607,11.4961643 L15.9501567,14.8168604 C16.610473,15.4785053 16.6102676,16.5504896 15.9494559,17.2119655 C15.3269317,17.8344052 14.3404571,17.8710193 13.6751112,17.3218038 L13.5542893,17.2119607 L10.3206768,13.9117989 L9.98320333,13.9899178 C8.83353588,14.256374 7.62581662,13.9554842 6.73553814,13.1807982 C5.90090206,12.4545301 5.44013915,11.3943939 5.47234702,10.296166 L5.48539683,10.0761001 L5.65571068,10.0142893 L6.78509167,11.1436703 C7.11797738,11.4766124 7.56950114,11.6636621 8.0403125,11.6636621 C8.45227244,11.6636621 8.84946531,11.5204522 9.16533809,11.2616005 L9.29553932,11.1436643 L9.90742031,10.5317833 C10.2403624,10.1988976 10.4274121,9.74737386 10.4274121,9.2765625 C10.4274121,8.86460256 10.2842022,8.46740969 10.0253505,8.15153691 L9.90741432,8.02133568 L8.78928932,6.90321068 L8.851,6.739 L8.85179,6.73283759 L9.0717032,6.72131725 Z M12.8711643,13.1913357 C12.7385601,13.0587314 12.5452852,13.0069436 12.3641444,13.0554801 C12.1830037,13.1040166 12.0415166,13.2455037 11.9929801,13.4266444 C11.952533,13.5775951 11.9817556,13.7369722 12.0693586,13.8626434 L12.1288357,13.9336643 L14.3163357,16.1211643 C14.4489399,16.2537686 14.6422148,16.3055564 14.8233556,16.2570199 C15.0044963,16.2084834 15.1459834,16.0669963 15.1945199,15.8858556 C15.234967,15.7349049 15.2057444,15.5755278 15.1181414,15.4498566 L15.0586643,15.3788357 L12.8711643,13.1913357 Z" id="形状" fill="currentColor"></path>
        </g>
    </g>
</svg>
