<?xml version="1.0" encoding="UTF-8"?>
<svg width="20px" height="20px" viewBox="0 0 20 20" version="1.1" xmlns="http://www.w3.org/2000/svg" xmlns:xlink="http://www.w3.org/1999/xlink">
    <title>主页备份</title>
    <g id="页面-1" stroke="none" stroke-width="1" fill="none" fill-rule="evenodd">
        <g id="用能方菜单" transform="translate(-141.000000, -81.000000)" fill-rule="nonzero">
            <g id="编组-19" transform="translate(0.000000, 64.000000)">
                <g id="主页备份" transform="translate(141.000000, 17.000000)">
                    <rect id="矩形" fill="#000000" opacity="0" x="0" y="0" width="20" height="20"></rect>
                    <path d="M16.9811351,12.1083017 L16.88917,12.1146222 C16.6553548,12.1490567 16.5126113,12.3261894 16.4571674,12.6954682 C16.4496821,12.7453051 16.4443519,12.795848 16.4407353,12.8524767 L16.4345842,13.0459996 L16.4381456,15.2114683 L16.4310453,15.8646921 C16.4067464,17.1667528 16.0554776,17.5717468 14.8288992,17.6327085 L14.5427292,17.6412203 L13.2875407,17.6404267 L12.9876055,17.6463021 L12.7306731,17.6588264 C12.6901066,17.6615405 12.6503359,17.6645861 12.610863,17.6679905 L12.3736157,17.6929406 C12.2309366,17.7104576 11.9717496,17.9180806 11.8984705,18.0823115 C11.866973,18.1529127 11.933465,18.4419621 12.0231791,18.5391622 C12.1069929,18.6299623 12.3689672,18.7125751 12.6404344,18.7239521 C12.8439579,18.7325201 13.0492593,18.7389833 13.2598399,18.7434701 L13.9109206,18.7511303 L14.6146845,18.7477039 C14.8603872,18.7447997 15.1183717,18.7401762 15.3921394,18.7339621 C16.7324054,18.7035245 17.4720174,17.9699037 17.5247149,16.6177312 L17.5330418,16.330555 L17.535049,16.1798855 L17.5175436,14.4130752 L17.5278413,13.5506569 L17.5260803,13.2198546 L17.5180209,12.9348337 L17.5027939,12.6612822 C17.4809183,12.3412553 17.320645,12.1536654 17.0765102,12.1155536 L16.9811351,12.1083017 Z M10.1277804,0.976476793 L9.93353652,0.976082257 C9.39818266,0.996930251 8.95627436,1.23829907 8.46749774,1.73783104 L0.688688622,9.66348959 L0.600356307,9.7643836 C0.587924789,9.77986923 0.576254893,9.79513169 0.564771151,9.81083379 C0.357832136,10.093749 0.353153457,10.3121552 0.547304347,10.5332645 C0.729885975,10.7411978 0.905345724,10.7833027 1.13439893,10.6631638 L1.24397761,10.5965255 L2.53440704,9.49648842 L2.5299589,15.3142648 L2.54082059,16.583057 C2.56080197,17.9980604 3.28289557,18.7093279 4.72551025,18.7355375 C5.28574679,18.7457239 5.849767,18.7491086 6.41741694,18.7457771 L7.27159491,18.7357533 C8.0224354,18.722532 8.17718478,18.6517459 8.2140684,18.0652684 L8.22330884,17.8202715 L8.23005036,17.085092 L8.22987564,15.5500433 L8.23005036,14.0915868 L11.0284152,14.0888693 L11.5872552,14.0915868 L11.8683114,14.0880433 L12.1167823,14.0791681 C12.1574129,14.0771947 12.1981363,14.0749617 12.239678,14.0724505 C12.6585139,14.0471247 12.877688,13.8315166 12.8601686,13.5366604 C12.8430929,13.2491834 12.643521,13.0694621 12.2680074,13.062917 L11.7410585,13.0549391 L10.66082,13.045965 L9.53257852,13.0459693 L8.3408752,13.0545551 C8.13611067,13.0566791 7.92805778,13.0591442 7.71639447,13.061942 C7.37240427,13.066468 7.21431543,13.2286981 7.20285063,13.5937365 L7.19095525,14.2150229 L7.19131945,17.6356092 L5.96410546,17.6306001 L5.68466531,17.6390089 L5.33950171,17.6356092 C4.0901898,17.596691 3.675214,17.2458915 3.592965,16.0936458 L3.5787266,15.7745578 L3.5757953,15.2004634 L3.57608554,10.6754792 L3.56454576,9.45341254 C3.56314704,9.35321524 3.56163022,9.2521729 3.5599887,9.14934393 C3.5498772,8.51724518 3.74859399,8.04665708 4.20087539,7.5966886 L6.12106644,5.66035389 L8.65441241,3.08130018 C9.72868385,1.99505847 10.2552692,1.9468609 11.2712994,2.93379481 L18.240002,10.0222019 L18.3894643,10.1856569 C18.5981078,10.4172793 18.6976048,10.508314 18.8065454,10.5591859 C18.9982062,10.6486885 19.2751086,10.6722338 19.3607443,10.6256156 C19.4618943,10.5705303 19.6037088,10.3184735 19.6054717,10.176261 C19.6071073,10.0313121 19.4784567,9.77712951 19.3064513,9.60022751 L15.9251053,6.14050143 L11.4357019,1.57393877 C11.0637858,1.19561853 10.6356611,0.999198802 10.1277804,0.976476793 Z" id="形状" fill="#FFFFFF"></path>
                </g>
            </g>
        </g>
    </g>
</svg>