<?xml version="1.0" encoding="UTF-8"?>
<svg width="20px" height="20px" viewBox="0 0 20 20" version="1.1" xmlns="http://www.w3.org/2000/svg" xmlns:xlink="http://www.w3.org/1999/xlink">
    <title>icon_月度报告_on</title>
    <defs>
        <linearGradient x1="0%" y1="88.28125%" x2="100%" y2="11.71875%" id="linearGradient-1">
            <stop stop-color="#1D41E7" offset="0%"></stop>
            <stop stop-color="#F42F3B" offset="100%"></stop>
        </linearGradient>
        <linearGradient x1="0%" y1="100%" x2="100%" y2="0%" id="linearGradient-2">
            <stop stop-color="#1D41E7" offset="0%"></stop>
            <stop stop-color="#F42F3B" offset="100%"></stop>
        </linearGradient>
    </defs>
    <g id="v1.0.0（我的资产+结算+告警）" stroke="none" stroke-width="1" fill="none" fill-rule="evenodd">
        <g id="切图" transform="translate(-500.000000, -50.000000)">
            <g id="icon_月度报告_on" transform="translate(500.000000, 50.000000)">
                <rect id="矩形" fill-opacity="0" fill="#D8D8D8" x="0" y="0" width="20" height="20"></rect>
                <path d="M17,2 L3,2 C2.44771525,2 2,2.44771525 2,3 L2,15 C2,15.5522847 2.44771525,16 3,16 L17,16 C17.5522847,16 18,15.5522847 18,15 L18,3 C18,2.44771525 17.5522847,2 17,2 Z" id="路径" fill-opacity="0.1" fill="url(#linearGradient-1)" fill-rule="nonzero"></path>
                <path d="M17,1 C18.1045695,1 19,1.8954305 19,3 L19,15 C19,16.1045695 18.1045695,17 17,17 L3,17 C1.8954305,17 1,16.1045695 1,15 L1,3 C1,1.8954305 1.8954305,1 3,1 L17,1 Z M17,2 L3,2 C2.44771525,2 2,2.44771525 2,3 L2,15 C2,15.5522847 2.44771525,16 3,16 L17,16 C17.5522847,16 18,15.5522847 18,15 L18,3 C18,2.44771525 17.5522847,2 17,2 Z M5.496,4.384 C6.072,4.384 6.54,4.572 6.9,4.948 C7.076,5.132 7.214,5.35 7.314,5.602 C7.414,5.854 7.464,6.128 7.464,6.424 L7.464,6.904 L6.24,6.904 L6.24,6.496 C6.24,6.256 6.172,6.048 6.036,5.872 C5.9,5.696 5.716,5.608 5.484,5.608 C5.18,5.608 4.978,5.702 4.878,5.89 C4.778,6.078 4.728,6.316 4.728,6.604 L4.728,10.972 C4.728,11.22 4.782,11.428 4.89,11.596 C4.998,11.764 5.192,11.848 5.472,11.848 C5.552,11.848 5.638,11.834 5.73,11.806 C5.822,11.778 5.908,11.732 5.988,11.668 C6.06,11.604 6.12,11.516 6.168,11.404 C6.216,11.292 6.24,11.152 6.24,10.984 L6.24,10.564 L7.464,10.564 L7.464,11.092 C7.464,11.356 7.414,11.606 7.314,11.842 C7.214,12.078 7.076,12.288 6.9,12.472 C6.724,12.656 6.518,12.802 6.282,12.91 C6.046,13.018 5.792,13.072 5.52,13.072 C5.288,13.072 5.052,13.04 4.812,12.976 C4.572,12.912 4.356,12.8 4.164,12.64 C3.972,12.48 3.814,12.274 3.69,12.022 C3.566,11.77 3.504,11.448 3.504,11.056 L3.504,6.352 C3.504,6.072 3.552,5.812 3.648,5.572 C3.744,5.332 3.88,5.124 4.056,4.948 C4.232,4.772 4.442,4.634 4.686,4.534 C4.93,4.434 5.2,4.384 5.496,4.384 Z M10.104,6.844 C10.488,6.844 10.814,6.924 11.082,7.084 C11.35,7.244 11.556,7.456 11.7,7.72 C11.788,7.88 11.848,8.064 11.88,8.272 C11.912,8.48 11.928,8.708 11.928,8.956 L11.928,10.96 C11.928,11.208 11.912,11.436 11.88,11.644 C11.848,11.852 11.788,12.036 11.7,12.196 C11.556,12.46 11.35,12.672 11.082,12.832 C10.814,12.992 10.488,13.072 10.104,13.072 C9.72,13.072 9.394,12.992 9.126,12.832 C8.858,12.672 8.652,12.46 8.508,12.196 C8.42,12.036 8.36,11.852 8.328,11.644 C8.296,11.436 8.28,11.208 8.28,10.96 L8.28,8.956 C8.28,8.708 8.296,8.48 8.328,8.272 C8.36,8.064 8.42,7.88 8.508,7.72 C8.652,7.456 8.858,7.244 9.126,7.084 C9.394,6.924 9.72,6.844 10.104,6.844 Z M14.472,6.844 C14.72,6.844 14.95,6.888 15.162,6.976 C15.374,7.064 15.556,7.188 15.708,7.348 C15.86,7.508 15.98,7.698 16.068,7.918 C16.156,8.138 16.2,8.372 16.2,8.62 L15.048,8.62 C15.04,8.412 14.974,8.256 14.85,8.152 C14.726,8.048 14.584,7.996 14.424,7.996 C14.232,7.996 14.084,8.058 13.98,8.182 C13.876,8.306 13.824,8.448 13.824,8.608 C13.824,8.72 13.852,8.83 13.908,8.938 C13.964,9.046 14.108,9.144 14.34,9.232 L15.06,9.52 C15.516,9.696 15.83,9.936 16.002,10.24 C16.174,10.544 16.26,10.876 16.26,11.236 C16.26,11.492 16.214,11.73 16.122,11.95 C16.03,12.17 15.904,12.364 15.744,12.532 C15.584,12.7 15.392,12.832 15.168,12.928 C14.944,13.024 14.7,13.072 14.436,13.072 C13.94,13.072 13.524,12.916 13.188,12.604 C13.02,12.452 12.884,12.262 12.78,12.034 C12.676,11.806 12.62,11.54 12.612,11.236 L13.764,11.236 C13.788,11.404 13.846,11.56 13.938,11.704 C14.03,11.848 14.192,11.92 14.424,11.92 C14.6,11.92 14.758,11.862 14.898,11.746 C15.038,11.63 15.108,11.468 15.108,11.26 C15.108,11.092 15.064,10.948 14.976,10.828 C14.888,10.708 14.728,10.604 14.496,10.516 L13.908,10.3 C13.524,10.156 13.222,9.942 13.002,9.658 C12.782,9.374 12.672,9.028 12.672,8.62 C12.672,8.364 12.72,8.126 12.816,7.906 C12.912,7.686 13.044,7.496 13.212,7.336 C13.372,7.176 13.56,7.054 13.776,6.97 C13.992,6.886 14.224,6.844 14.472,6.844 Z M10.104,8.068 C9.92,8.068 9.774,8.126 9.666,8.242 C9.558,8.358 9.504,8.532 9.504,8.764 L9.504,11.152 C9.504,11.384 9.558,11.558 9.666,11.674 C9.774,11.79 9.92,11.848 10.104,11.848 C10.288,11.848 10.434,11.79 10.542,11.674 C10.65,11.558 10.704,11.384 10.704,11.152 L10.704,8.764 C10.704,8.532 10.65,8.358 10.542,8.242 C10.434,8.126 10.288,8.068 10.104,8.068 Z M4.5,18 L15.5,18 C15.7761424,18 16,18.2238576 16,18.5 C16,18.7761424 15.7761424,19 15.5,19 L4.5,19 C4.22385763,19 4,18.7761424 4,18.5 C4,18.2238576 4.22385763,18 4.5,18 Z" id="形状结合" fill="url(#linearGradient-2)" fill-rule="nonzero"></path>
            </g>
        </g>
    </g>
</svg>