<?xml version="1.0" encoding="UTF-8"?>
<svg width="20px" height="20px" viewBox="0 0 20 20" version="1.1" xmlns="http://www.w3.org/2000/svg" xmlns:xlink="http://www.w3.org/1999/xlink">
    <title>icon_结算签约_on</title>
    <defs>
        <linearGradient x1="0.625595748%" y1="100%" x2="99.3744043%" y2="0%" id="linearGradient-1">
            <stop stop-color="#1D41E7" offset="0%"></stop>
            <stop stop-color="#F42F3B" offset="100%"></stop>
        </linearGradient>
        <linearGradient x1="0%" y1="100%" x2="100%" y2="0%" id="linearGradient-2">
            <stop stop-color="#1D41E7" offset="0%"></stop>
            <stop stop-color="#F42F3B" offset="100%"></stop>
        </linearGradient>
    </defs>
    <g id="1" stroke="none" stroke-width="1" fill="none" fill-rule="evenodd">
        <g id="切图" transform="translate(-170.000000, -50.000000)">
            <g id="icon_结算签约_on" transform="translate(170.000000, 50.000000)">
                <rect id="矩形" fill-opacity="0" fill="#D8D8D8" x="0" y="0" width="20" height="20"></rect>
                <polygon id="路径-5" fill-opacity="0.1" fill="url(#linearGradient-1)" fill-rule="nonzero" points="8.86308205 7 13.0018507 11.2241005 9.63036824 16.1731298 1.99620546 18.075149 4.01390632 10.459229"></polygon>
                <path d="M1.23022773,18.1558317 L3.39963192,10.2013496 L3.39963192,10.2013496 L8.49689667,6.56044623 C8.72171807,6.39985952 9.03415307,6.45193202 9.19473979,6.67675342 C9.3553265,6.90157482 9.303254,7.21400983 9.0784326,7.37459654 L4.27112743,10.8091332 L2.6908509,16.6016801 L6.21335157,13.0776028 C6.13421362,12.7797223 6.19477136,12.4524413 6.39502477,12.1995566 L6.47277094,12.1122911 C6.86349528,11.7215667 7.4969846,11.7215667 7.88770893,12.1122911 C8.27843327,12.5030154 8.27843327,13.1365047 7.88770893,13.5272291 C7.62588335,13.7890546 7.25504702,13.8754301 6.92129682,13.7863554 L3.3983199,17.3091491 L9.19157429,15.72958 L12.6254035,10.9215674 C12.7681472,10.7217262 13.0308698,10.6583779 13.2453896,10.7595528 L13.3232466,10.8052602 C13.548068,10.9658469 13.6001405,11.2782819 13.4395538,11.5031033 L9.79865037,16.6003681 L1.84416834,18.7697723 C1.57775617,18.8424301 1.3028856,18.6853612 1.23022773,18.4189491 C1.20673694,18.3328162 1.20673694,18.2419645 1.23022773,18.1558317 Z M9.30264693,5.03760111 C8.71656042,4.4515146 8.71656042,3.50128062 9.30264693,2.91519412 L11.0713194,1.14652163 C11.2666816,0.951159458 11.5834262,0.951159458 11.7787884,1.14652163 C11.9741506,1.3418838 11.9741506,1.65862845 11.7787884,1.85399062 L10.0101159,3.62266311 C9.81475375,3.81802528 9.81475375,4.13476994 10.0101159,4.33013211 L15.6698679,9.98988408 C15.8652301,10.1852462 16.1819747,10.1852462 16.3773369,9.98988408 L18.1460094,8.22121159 C18.3413715,8.02584942 18.6581162,8.02584942 18.8534784,8.22121159 C19.0488405,8.41657376 19.0488405,8.73331842 18.8534784,8.92868058 L17.0848059,10.6973531 C16.4987194,11.2834396 15.5484854,11.2834396 14.9623989,10.6973531 L9.30264693,5.03760111 Z" id="形状" fill="url(#linearGradient-2)" fill-rule="nonzero"></path>
            </g>
        </g>
    </g>
</svg>