<?xml version="1.0" encoding="UTF-8"?>
<svg width="20px" height="20px" viewBox="0 0 20 20" version="1.1" xmlns="http://www.w3.org/2000/svg" xmlns:xlink="http://www.w3.org/1999/xlink">
    <title>icon_签章管理_on</title>
    <defs>
        <linearGradient x1="0%" y1="51.3888889%" x2="100%" y2="48.6111111%" id="linearGradient-1">
            <stop stop-color="#1D41E7" offset="0%"></stop>
            <stop stop-color="#F42F3B" offset="100%"></stop>
        </linearGradient>
        <linearGradient x1="0%" y1="51.3888889%" x2="100%" y2="48.6111111%" id="linearGradient-2">
            <stop stop-color="#1D41E7" offset="0%"></stop>
            <stop stop-color="#F42F3B" offset="100%"></stop>
        </linearGradient>
        <linearGradient x1="27.7777778%" y1="100%" x2="72.2222222%" y2="0%" id="linearGradient-3">
            <stop stop-color="#1D41E7" offset="0%"></stop>
            <stop stop-color="#F42F3B" offset="100%"></stop>
        </linearGradient>
        <linearGradient x1="0%" y1="100%" x2="100%" y2="0%" id="linearGradient-4">
            <stop stop-color="#1D41E7" offset="0%"></stop>
            <stop stop-color="#F42F3B" offset="100%"></stop>
        </linearGradient>
    </defs>
    <g id="1" stroke="none" stroke-width="1" fill="none" fill-rule="evenodd">
        <g id="切图" transform="translate(-260.000000, -50.000000)">
            <g id="icon_签章管理_on" transform="translate(260.000000, 50.000000)">
                <rect id="矩形" fill-opacity="0" fill="#D8D8D8" x="0" y="0" width="20" height="20"></rect>
                <path d="M15,16 L5,16 C4.44771525,16 4,16.4477153 4,17 L4,18 L16,18 L16,17 C16,16.4871642 15.6139598,16.0644928 15.1166211,16.0067277 L15,16 Z" id="路径" fill-opacity="0.1" fill="url(#linearGradient-1)" fill-rule="nonzero"></path>
                <path d="M12,14 L8,14 C7.48716416,14 7.06449284,14.3860402 7.00672773,14.8833789 L7,15 L13,15 C13,14.4871642 12.6139598,14.0644928 12.1166211,14.0067277 L12,14 Z" id="路径" fill-opacity="0.1" fill="url(#linearGradient-2)" fill-rule="nonzero"></path>
                <path d="M10,2 C7.790861,2 6,3.790861 6,6 C6,7.02996169 6.15025791,7.58794595 6.55695338,8.27245197 L6.69776683,8.49908787 L7.05397276,9.04193531 C7.2324273,9.31548188 7.37313107,9.54399962 7.51172501,9.79168987 C7.65629357,10.0500578 7.78905192,10.3138098 7.91361722,10.5940817 C8.39554329,11.6784154 8.71952267,12.7441307 8.88302859,13.7901402 L8.911,14 L11.045,14 L11.0824499,13.7377432 C11.2164373,12.8994423 11.5030023,11.9686564 11.9371958,10.9398864 L12.0873879,10.5933265 C12.3384062,10.0285353 12.5940491,9.55573788 12.893449,9.07769928 L13.4683927,8.19211567 L13.5079698,8.12905252 C13.8683141,7.53774453 14,7.04897269 14,6 C14,3.790861 12.209139,2 10,2 Z" id="路径" fill-opacity="0.1" fill="url(#linearGradient-3)" fill-rule="nonzero"></path>
                <path d="M10,1 C12.7614237,1 15,3.23857625 15,6 C15,8.63527922 14.0813536,8.56911817 13.0011995,10.9994649 C12.6763627,11.7303478 12.4301479,12.4028863 12.2625552,13.0170804 C13.2431537,13.1457661 14,13.9844976 14,15 L15,15 C16.1045695,15 17,15.8954305 17,17 L17,18 L18.5,18 C18.7761424,18 19,18.2238576 19,18.5 C19,18.7761424 18.7761424,19 18.5,19 L1.5,19 C1.22385763,19 1,18.7761424 1,18.5 C1,18.2238576 1.22385763,18 1.5,18 L3,18 L3,17 C3,15.8954305 3.8954305,15 5,15 L6,15 C6,13.9958459 6.74002521,13.164534 7.70445466,13.0216851 C7.53990832,12.359206 7.30437199,11.6854944 6.99980567,11.0002202 C6.07969798,8.92997792 5,8.63573058 5,6 C5,3.23857625 7.23857625,1 10,1 Z M15,16 L5,16 C4.44771525,16 4,16.4477153 4,17 L4,18 L16,18 L16,17 C16,16.4871642 15.6139598,16.0644928 15.1166211,16.0067277 L15,16 Z M12,14 L8,14 C7.48716416,14 7.06449284,14.3860402 7.00672773,14.8833789 L7,15 L13,15 C13,14.4871642 12.6139598,14.0644928 12.1166211,14.0067277 L12,14 Z M10,2 C7.790861,2 6,3.790861 6,6 C6,7.02996169 6.15025791,7.58794595 6.55695338,8.27245197 L6.69776683,8.49908787 L7.05397276,9.04193531 C7.2324273,9.31548188 7.37313107,9.54399962 7.51172501,9.79168987 C7.65629357,10.0500578 7.78905192,10.3138098 7.91361722,10.5940817 C8.27490965,11.4069897 8.54743183,12.2094337 8.73011914,13.0009554 L11.233,13 L11.3186195,12.6782357 C11.4715315,12.1329043 11.6780743,11.5538442 11.9371958,10.9398864 L12.0873879,10.5933265 C12.3384062,10.0285353 12.5940491,9.55573788 12.893449,9.07769928 L13.4683927,8.19211567 L13.5079698,8.12905252 C13.8683141,7.53774453 14,7.04897269 14,6 C14,3.790861 12.209139,2 10,2 Z" id="形状结合" fill="url(#linearGradient-4)" fill-rule="nonzero"></path>
            </g>
        </g>
    </g>
</svg>