<?xml version="1.0" encoding="UTF-8"?>
<svg width="20px" height="20px" viewBox="0 0 20 20" version="1.1" xmlns="http://www.w3.org/2000/svg" xmlns:xlink="http://www.w3.org/1999/xlink">
    <title>编组 2备份 13</title>
    <g id="页面-1" stroke="none" stroke-width="1" fill="none" fill-rule="evenodd">
        <g id="运维" transform="translate(0.000000, 0.000016)">
            <rect id="矩形" fill="#000000" fill-rule="nonzero" opacity="0" x="0" y="0" width="19.9999839" height="19.9999839"></rect>
            <path d="M17.5576864,4.3269177 L2.94231355,4.3269177 C2.05440932,4.3269177 1.32621015,5.01071281 1.25560999,5.88041884 L1.25,6.01921323 L1.25,17.557675 C1.25,18.0065045 1.42829681,18.436951 1.74566716,18.7543214 C2.02777415,19.0364284 2.3992253,19.2086501 2.79351447,19.2434388 L2.94231355,19.2499886 L17.5576864,19.2499886 C18.4455907,19.2499886 19.1737899,18.5661935 19.24439,17.6964874 L19.25,17.557693 L19.25,6.01923126 C19.25,5.13132424 18.5661987,4.40312757 17.6964825,4.33252768 L17.5576864,4.3269177 Z M17.5576864,5.40383442 C17.7208951,5.40383442 17.8774191,5.46866879 17.992825,5.5840747 C18.0851497,5.67639943 18.1451086,5.79503974 18.1653992,5.92236568 L18.1730653,6.01921323 L18.1730653,17.557675 C18.1730653,17.7208862 18.1082383,17.8774128 17.9928352,17.9928214 C17.9005098,18.0851511 17.7818665,18.1451136 17.6545369,18.1654054 L17.5576864,18.1730718 L2.94231355,18.1730718 C2.77910231,18.1730718 2.62257572,18.1082449 2.5071672,17.9928418 C2.41483748,17.9005164 2.354875,17.7818731 2.3345832,17.6545435 L2.32691672,17.557693 L2.32691672,6.01923126 C2.32691672,5.85601502 2.39174764,5.69948405 2.507157,5.5840747 C2.59948448,5.49174722 2.71812979,5.43178993 2.84546153,5.41150011 L2.94231355,5.40383442 L17.5576864,5.40383442 Z M11.9128995,9.49550206 C11.762807,9.04322811 11.1418013,9.01208229 10.9298221,9.41516646 L10.8931407,9.50157691 L8.587651,14.3024323 L7.26398916,11.9201616 L7.23557874,11.8734168 C7.1523085,11.7490939 7.02196282,11.666178 6.87696154,11.6419581 L6.78846147,11.6346079 L4.87307545,11.6344795 L4.82499915,11.6358829 C4.57523334,11.654674 4.37588972,11.8418059 4.33464724,12.0757467 L4.3268026,12.1654313 L4.32818986,12.2134509 C4.34698095,12.4632167 4.53411291,12.6625603 4.77341966,12.7037139 L4.86537849,12.7115209 L6.47155097,12.7115209 L8.26438311,15.9353633 C8.49239357,16.2800302 9.00543201,16.2391651 9.18831509,15.8852934 L9.22222673,15.8046993 L11.3296839,11.5963095 L12.0331528,12.2952631 L12.0474742,12.3453701 C12.1121565,12.5368651 12.2774066,12.6735935 12.4724732,12.70477 L12.5576924,12.7115209 L15.6749882,12.7102598 C15.9247585,12.6914742 16.1241082,12.5043415 16.165354,12.2704482 L16.1731998,12.1807837 L16.1717917,12.1326868 C16.1530062,11.8829165 15.9658738,11.6835677 15.7265637,11.6424145 L15.6346035,11.6346079 L12.9778877,11.6346079 L11.9283462,9.5493849 L11.9128995,9.49550206 Z M5.59322511,1.25134111 L5.64235707,1.24985121 L14.866386,1.24997894 C15.156822,1.24871873 15.3959272,1.47801436 15.4068244,1.76824514 C15.4177217,2.05847607 15.1964847,2.30505367 14.9067749,2.32557075 L5.63461529,2.32693594 C5.34317797,2.32819313 5.1040728,2.0988975 5.09317556,1.80866671 C5.08227833,1.51843579 5.30351527,1.27185819 5.59322511,1.25134111 Z" id="形状" fill="currentColor"></path>
        </g>
    </g>
</svg>
