<?xml version="1.0" encoding="UTF-8"?>
<svg width="16px" height="16px" viewBox="0 0 16 16" version="1.1" xmlns="http://www.w3.org/2000/svg" xmlns:xlink="http://www.w3.org/1999/xlink">
    <title>编辑</title>
    <g id="电站运营" stroke="none" stroke-width="1" fill="none" fill-rule="evenodd">
        <g id="编辑" transform="translate(-0.000000, 0.000000)" fill="#000000" fill-rule="nonzero">
            <rect id="矩形" opacity="0" x="0" y="0" width="16" height="16"></rect>
            <path d="M8.44440625,9.25685937 C8.14295313,9.56084375 7.75620312,9.69671875 7.4008125,9.3726875 C7.09475,9.09364062 7.12903125,8.74553125 7.426,8.4136875 L13.6933125,1.94084375 C14.0059063,1.6431875 14.4665938,1.49814062 14.7803906,1.7945 C15.1566875,2.14989062 14.9961719,2.58567187 14.6985313,2.89817187 L8.44323437,9.25560937 L8.44440625,9.25685938 L8.44440625,9.25685937 Z M14.6851094,7.4049375 C15.0587344,7.41596875 15.2416719,7.76610938 15.2265625,8.15545312 L15.2265625,13.4259844 C15.2265625,14.416625 14.4234844,15.2197031 13.4328438,15.2197031 L2.67021875,15.2197031 C1.6795625,15.2197031 0.876484375,14.416625 0.876484375,13.4259531 L0.876484375,2.663375 C0.876484375,1.67271875 1.6795625,0.86965625 2.67020313,0.86965625 L9.5316875,0.86965625 C10.0270156,0.86965625 10.4285625,0.96803125 10.4285625,1.463375 C10.4285625,1.95871875 10.0270156,2.02571875 9.5316875,2.02571875 L2.77157813,2.02571875 C2.34610938,2.02571875 2.00120313,2.370625 2.00120313,2.79609375 L2.00120313,13.3455469 C2.00120313,13.7710156 2.34610938,14.1159219 2.77157813,14.1159219 L13.2687656,14.1159219 C13.6942344,14.1159219 14.039125,13.7710156 14.039125,13.3455469 L14.039125,8.15546875 C13.9873906,7.78179688 14.23825,7.41598437 14.6119375,7.40495312 L14.6851094,7.40495312 L14.6851094,7.4049375 Z" id="形状"></path>
        </g>
    </g>
</svg>