<?xml version="1.0" encoding="UTF-8"?>
<svg width="30px" height="23px" viewBox="0 0 30 23" version="1.1" xmlns="http://www.w3.org/2000/svg" xmlns:xlink="http://www.w3.org/1999/xlink">
    <title>形状结合</title>
    <g id="页面-1" stroke="none" stroke-width="1" fill="none" fill-rule="evenodd">
        <g id="接线图-首页-分图中心-无数据备份-3" transform="translate(-1394.000000, -360.000000)" fill="#FFFFFF" fill-rule="nonzero">
            <g id="编组-10" transform="translate(1389.000000, 360.943838)">
                <path d="M20.0007596,0 C26.0971519,0 32.0530883,4.06674463 34.8194549,10.1174339 C34.8379521,10.1555438 34.854218,10.203406 34.8695124,10.2523839 C34.8781492,10.273616 34.8880095,10.2959277 34.8955667,10.3171599 C34.9238882,10.4025562 34.9543329,10.5652519 34.9608825,10.6544988 C34.9695553,10.6724562 35,10.8231323 35,11.0032815 C35,11.1763414 34.9707069,11.3210438 34.9511661,11.4178479 L34.9511661,11.4178479 C34.9565641,11.4167683 34.9468117,11.5375035 34.8988775,11.6768439 C34.8934795,11.6942614 34.8858143,11.711679 34.8771056,11.7312557 C34.8556469,11.8064028 34.8261094,11.8790037 34.7890102,11.9477875 C32.0542039,17.9353921 26.0982315,21.9999415 20.0007596,21.9999415 C13.9066344,21.9999415 7.95224548,17.9320813 5.18213625,11.8803484 C5.16745369,11.846593 5.15057594,11.8019695 5.1363972,11.7541072 C5.10923384,11.6928901 5.08828064,11.6291022 5.07385238,11.5637018 L5.07385238,11.5637018 C5.05805424,11.4875181 5.04391148,11.4036691 5.04067268,11.3460185 C5.02922892,11.3047058 5.00583759,11.1012012 5.00583759,11.1012012 C4.99824441,11.0315311 4.99824441,10.9754998 5.00475799,10.9053258 C5.00475799,10.9053258 5.02818531,10.6724202 5.05373584,10.5554635 C5.05077832,10.5515909 5.05823417,10.4505316 5.10487288,10.3138851 C5.11084667,10.2980869 5.11847584,10.2812092 5.12498943,10.2632878 C5.13967199,10.20884 5.1630993,10.1462952 5.196279,10.0809434 C7.95008628,4.06300201 13.9055188,0 20.0007596,0 Z M20.0007236,2.0007504 C14.6976932,2.0007504 9.49589332,5.56206237 7.03325411,10.8700229 C7.02832394,10.8841657 7.02504915,10.896689 7.02073076,10.9097162 C7.01849958,10.9341872 7.01418118,10.9564989 7.0082074,10.9788106 L7.0082074,10.9788106 L7.0082074,10.9923776 C7.00986278,11.0054767 7.01202198,11.0207711 7.01418118,11.0315671 C7.01526078,11.0413914 7.01849958,11.0555342 7.01957918,11.0729877 C7.02612875,11.0903333 7.03048314,11.1077868 7.03649291,11.126248 C9.52259542,16.4500067 14.7108284,19.9998389 20.0007596,19.9998389 C25.303826,19.9998389 30.5012355,16.4401463 32.9628671,11.1349927 C32.9662138,11.1197344 32.9716118,11.104476 32.9748506,11.0914489 L32.9748506,11.0914489 L32.9802846,11.0772701 C32.9835954,11.0566138 32.9868342,11.037001 32.9933118,11.0163447 C32.9878778,10.9968039 32.9835234,10.9576145 32.9780535,10.9178852 C32.9737351,10.9086366 32.9715759,10.8999278 32.9694167,10.8912191 C32.9661419,10.8841657 32.9639107,10.8754209 32.9617515,10.8650928 C30.5066695,5.56530117 25.3059132,2.0007504 20.0007236,2.0007504 Z M20.0007236,6.00002004 C22.7572659,6.00002004 25.0012501,8.24292469 25.0012501,11.0000068 C25.0012501,13.756549 22.7572659,16.0005333 20.0007236,16.0005333 C17.2442173,16.0005333 15.0002331,13.756549 15.0002331,11.0000068 C15.0002331,8.24292469 17.2442173,6.00002004 20.0007236,6.00002004 Z M20.0007236,8.00033861 C18.3476763,8.00033861 17.0004797,9.34645566 17.0004797,11.0000427 C17.0004797,12.6541696 18.3476763,14.0003227 20.0007236,14.0003227 C21.6548505,14.0003227 23.0010755,12.6541696 23.0010755,11.0000427 C23.0010755,9.34649164 21.6548505,8.00033861 20.0007236,8.00033861 Z" id="形状结合"></path>
            </g>
        </g>
    </g>
</svg>