<?xml version="1.0" encoding="UTF-8"?>
<svg width="41px" height="41px" viewBox="0 0 41 41" version="1.1" xmlns="http://www.w3.org/2000/svg" xmlns:xlink="http://www.w3.org/1999/xlink">
    <title>关联</title>
    <g id="总" stroke="none" stroke-width="1" fill="none" fill-rule="evenodd">
        <g id="关联" transform="translate(0.500000, 0.500000)" fill="#FFFFFF" fill-rule="nonzero">
            <rect id="矩形" opacity="0" x="0" y="0" width="40" height="40"></rect>
            <path d="M25.2773438,22.0820312 C24.40625,22.0820312 23.53125,21.75 22.8671875,21.0859375 C22.6015625,20.8203125 22.6015625,20.390625 22.8671875,20.1289062 C23.1328125,19.8632812 23.5625,19.8632812 23.8242188,20.1289062 C24.625,20.9296875 25.9257812,20.9257812 26.7226562,20.1289062 L33.671875,13.4257813 C34.0507813,13.046875 34.2617188,12.53125 34.2617188,11.984375 C34.2617188,11.4375 34.046875,10.921875 33.6601562,10.5351563 L29.5976562,6.47265625 C28.796875,5.671875 27.4960938,5.671875 26.6992188,6.47265625 L19.7578125,13.1757813 C18.96875,13.9648438 18.96875,15.265625 19.765625,16.0664063 C20.03125,16.3320313 20.03125,16.7617188 19.765625,17.0234375 C19.5,17.2890625 19.0703125,17.2890625 18.8085938,17.0234375 C17.4804688,15.6953125 17.4804688,13.5351563 18.8085938,12.2070313 L25.7578125,5.5078125 C27.078125,4.1875 29.2382812,4.1875 30.5625,5.515625 L34.625,9.578125 C35.2695312,10.2226563 35.6210938,11.0742188 35.6210938,11.984375 C35.6210938,12.8945313 35.265625,13.75 34.625,14.390625 L27.6757812,21.09375 C27.015625,21.7539062 26.1484375,22.0820312 25.2773438,22.0820312 Z M11.9257812,35.6835938 C11.0546875,35.6835938 10.1796875,35.3515625 9.515625,34.6875 L5.453125,30.625 C4.80859375,29.9804688 4.45703125,29.1289063 4.45703125,28.21875 C4.45703125,27.3085938 4.8125,26.453125 5.453125,25.8125 L12.2890625,19.1132812 C13.6132812,17.7890625 15.7734375,17.7890625 17.0976563,19.1171875 C17.3632813,19.3828125 17.3632813,19.8125 17.0976563,20.0742188 C16.8320313,20.3398438 16.4023438,20.3398438 16.140625,20.0742188 C15.3398438,19.2734375 14.0390625,19.2734375 13.2421875,20.0742188 L6.40625,26.7734375 C6.0234375,27.15625 5.8125,27.671875 5.8125,28.21875 C5.8125,28.765625 6.02734375,29.28125 6.4140625,29.6679688 L10.4765625,33.7304688 C11.2773438,34.53125 12.578125,34.5273438 13.375,33.7304688 L20.2109375,27.03125 C21.0039063,26.2382813 21.0039063,24.9375 20.2070313,24.1367188 C19.9414063,23.8710938 19.9414063,23.4414063 20.2070313,23.1796875 C20.4726562,22.9140625 20.9023438,22.9140625 21.1640625,23.1796875 C22.4921875,24.5078125 22.4921875,26.6679688 21.1640625,27.9960938 L14.328125,34.6953125 C13.6640625,35.3515625 12.7929688,35.6835938 11.9257813,35.6835938 L11.9257812,35.6835938 Z M13.28125,27.5390625 C13.109375,27.5390625 12.9335938,27.4726562 12.8007813,27.3398438 C12.5351562,27.0742188 12.5351562,26.6445313 12.8007813,26.3828125 L26.0039063,13.1796875 C26.2695313,12.9140625 26.6992188,12.9140625 26.9609375,13.1796875 C27.2265625,13.4453125 27.2265625,13.875 26.9609375,14.1367188 L13.7578125,27.3398438 C13.625,27.4726562 13.453125,27.5390625 13.28125,27.5390625 Z" id="形状" stroke="#FFFFFF" stroke-width="0.5"></path>
        </g>
    </g>
</svg>