<?xml version="1.0" encoding="UTF-8"?>
<svg width="20px" height="20px" viewBox="0 0 20 20" version="1.1" xmlns="http://www.w3.org/2000/svg"
    xmlns:xlink="http://www.w3.org/1999/xlink">
    <title>指标库</title>
    <g id="用户中心" stroke="none" stroke-width="1" fill="none" fill-rule="evenodd">
        <g id="切图板板" transform="translate(-85.000000, -337.000000)">
            <g id="icon-icon-Index-library2备份" transform="translate(85.000000, 337.000000)">
                <rect id="矩形" x="0" y="0" width="20" height="20"></rect>
                <g id="指标库" transform="translate(1.736054, 1.972334)" fill="currentColor" fill-rule="nonzero">
                    <path
                        d="M12.8927997,1.74080656e-07 C14.5382332,-0.000545573252 15.8986073,1.28217307 15.9946662,2.92480033 L16.0000002,3.10720032 L16.0000002,12.8927997 C16.0005456,14.5382332 14.717827,15.8986073 13.0751997,15.9946662 L12.8927997,16.0000002 L3.10720032,16.0000002 C1.46176684,16.0005456 0.10139273,14.717827 0.00533385556,13.0751997 L1.74080656e-07,12.8927997 L1.74080656e-07,12.2122664 C-0.000192868479,11.878994 0.255408052,11.6013549 0.587559858,11.5740471 C0.919711664,11.5467394 1.21722599,11.7789042 1.2714671,12.1077331 L1.28000043,12.2122664 L1.28000043,12.8927997 C1.28000043,13.8495996 2.01386705,14.6335996 2.94933366,14.7135996 L3.10720032,14.7199996 L12.8927997,14.7199996 C13.8495996,14.7199996 14.6335996,13.986133 14.7135996,13.0506664 L14.7199996,12.8927997 L14.7199996,3.10720032 C14.7199996,2.15040038 13.986133,1.36640043 13.0506664,1.28640043 L12.8927997,1.28000043 L3.10720032,1.28000043 C2.15040038,1.28000043 1.36640043,2.01386705 1.28640043,2.94933366 L1.28000043,3.10720032 L1.28000043,6.61866675 C1.27963944,6.95173478 1.02388067,7.22885006 0.691909802,7.25586447 C0.359938931,7.28287887 0.062740879,7.05076092 0.00853385535,6.72213341 L1.74080656e-07,6.61866675 L1.74080656e-07,3.10720032 C-0.000545573252,1.46176684 1.28217307,0.10139273 2.92480033,0.00533385556 L3.10720032,1.74080656e-07 L12.8927997,1.74080656e-07 Z M12.5045331,4.72320021 C12.773333,4.66026688 13.016533,4.89066687 12.9482664,5.14133352 L12.1589331,8.00106666 C12.0906664,8.25493331 11.7525331,8.34453331 11.5509331,8.16213332 L10.8693332,7.55413336 L7.4378667,10.6527999 C7.30824818,10.7677795 7.14073054,10.8308361 6.96746673,10.8298906 C6.79090767,10.8309108 6.62052054,10.7649667 6.49066676,10.6453332 L3.81226694,8.15359999 L1.2522671,10.4010665 C0.974038676,10.6403257 0.55937003,10.6283063 0.29546717,10.3733332 C0.173551065,10.2547729 0.107291271,10.0902929 0.112977044,9.92032883 C0.118662817,9.75036483 0.19576681,9.59068076 0.325333835,9.48053323 L3.3632003,6.81386674 C3.63603914,6.58228253 4.03810518,6.58820867 4.30400024,6.82773341 L6.97386673,9.31306658 L9.89226654,6.67840008 L9.18079992,6.04053346 C8.97279993,5.85280014 9.06666659,5.52426682 9.34613324,5.45920016 L12.5045331,4.72320021 Z"
                        id="形状"></path>
                </g>
            </g>
        </g>
    </g>
</svg>