<?xml version="1.0" encoding="UTF-8"?>
<svg width="20px" height="20px" viewBox="0 0 20 20" version="1.1" xmlns="http://www.w3.org/2000/svg"
    xmlns:xlink="http://www.w3.org/1999/xlink">
    <title>icon-分子备份</title>
    <g id="用户中心" stroke="none" stroke-width="1" fill="none" fill-rule="evenodd">
        <g id="切图板板" transform="translate(-119.000000, -337.000000)" fill-rule="nonzero">
            <g id="icon-分子备份" transform="translate(119.000000, 337.000000)">
                <rect id="矩形" fill="#000000" opacity="0" x="0" y="0" width="20" height="20"></rect>
                <path
                    d="M9.94351307,1.90411768 C11.2660541,1.90411768 12.3381916,2.97625515 12.3381916,4.29879617 C12.3381916,5.37078914 11.6337969,6.2782669 10.6626099,6.58362718 L10.66138,7.82611768 L13.793318,9.63455892 C13.8723519,9.68018921 13.9271045,9.75677889 13.9458442,9.84399632 L13.9529632,9.91108442 L13.95238,13.3141177 L14.8818919,14.0942396 C15.2822338,13.6776638 15.8318705,13.4056283 16.4447475,13.3641877 L16.6087015,13.3586631 C17.9312426,13.3586631 19.00338,14.4308006 19.00338,15.7533416 C19.00338,17.0758826 17.9312426,18.1480201 16.6087015,18.1480201 C15.2861605,18.1480201 14.2140231,17.0758826 14.2140231,15.7533416 C14.2140231,15.6431299 14.2214685,15.534657 14.2358837,15.4283986 L13.36338,14.6961177 L10.1031583,16.5791265 C10.0241273,16.6247551 9.93042483,16.6338809 9.84552523,16.6065037 L9.78386784,16.5791265 L6.52238004,14.6961177 L5.75722194,15.3401513 C5.77143725,15.4218826 5.78150886,15.5050361 5.78721241,15.5893876 L5.79273702,15.7533416 C5.79273702,17.0758826 4.72059955,18.1480201 3.39805853,18.1480201 C2.07551751,18.1480201 1.00338004,17.0758826 1.00338004,15.7533416 C1.00338004,14.4308006 2.07551751,13.3586631 3.39805853,13.3586631 C4.0489036,13.3586631 4.63910613,13.6183126 5.07073141,14.0396768 L5.93338004,13.3141177 L5.93406296,9.91108442 C5.93406296,9.81982383 5.97300873,9.7341081 6.03916878,9.67426884 L6.0937082,9.63455892 L9.22438004,7.82611768 L9.22441625,6.58362718 C8.30315317,6.29396397 7.62195849,5.46249597 7.55435919,4.46275017 L7.54883458,4.29879617 C7.54883458,2.97625515 8.62097205,1.90411768 9.94351307,1.90411768 Z M3.39805853,14.635825 C2.78087006,14.635825 2.2805419,15.1361532 2.2805419,15.7533416 C2.2805419,16.3705301 2.78087006,16.8708583 3.39805853,16.8708583 C4.015247,16.8708583 4.51557516,16.3705301 4.51557516,15.7533416 C4.51557516,15.1361532 4.015247,14.635825 3.39805853,14.635825 Z M16.6087015,14.635825 C15.9915131,14.635825 15.4911849,15.1361532 15.4911849,15.7533416 C15.4911849,16.3705301 15.9915131,16.8708583 16.6087015,16.8708583 C17.22589,16.8708583 17.7262182,16.3705301 17.7262182,15.7533416 C17.7262182,15.1361532 17.22589,14.635825 16.6087015,14.635825 Z M9.94351307,9.07095138 L7.37087006,10.5562707 L7.37087006,13.5269093 L9.94351307,15.0122285 L12.5161561,13.5269093 L12.5161561,10.5562707 L9.94351307,9.07095138 Z M9.94351307,3.18127954 C9.3263246,3.18127954 8.82599644,3.6816077 8.82599644,4.29879617 C8.82599644,4.91598464 9.3263246,5.4163128 9.94351307,5.4163128 C10.5607015,5.4163128 11.0610297,4.91598464 11.0610297,4.29879617 C11.0610297,3.6816077 10.5607015,3.18127954 9.94351307,3.18127954 Z"
                    id="形状结合" fill="currentColor"></path>
            </g>
        </g>
    </g>
</svg>