<?xml version="1.0" encoding="UTF-8"?>
<svg width="20px" height="20px" viewBox="0 0 20 20" version="1.1" xmlns="http://www.w3.org/2000/svg"
    xmlns:xlink="http://www.w3.org/1999/xlink">
    <title>物管理</title>
    <defs>
        <polygon id="path-1" points="0 20.0015001 20 20.0015001 20 0 0 0"></polygon>
        <path
            d="M2.5996,13.2507938 C2.9306,13.2507938 3.1996,13.519814 3.1996,13.8508388 L3.1996,13.8508388 L3.1996,17.0010751 L6.3496,17.0010751 C6.6806,17.0010751 6.9496,17.2700952 6.9496,17.6011201 C6.9496,17.9321449 6.6806,18.200165 6.3496,18.200165 L6.3496,18.200165 L2.5996,18.200165 C2.2686,18.200165 1.9996,17.9321449 1.9996,17.6011201 L1.9996,17.6011201 L1.9996,13.8508388 C1.9996,13.519814 2.2686,13.2507938 2.5996,13.2507938 Z M17.5996,13.2507938 C17.9306,13.2507938 18.1996,13.519814 18.1996,13.8508388 L18.1996,13.8508388 L18.1996,17.6011201 C18.1996,17.9321449 17.9306,18.200165 17.5996,18.200165 L17.5996,18.200165 L13.8496,18.200165 C13.5186,18.200165 13.2496,17.9321449 13.2496,17.6011201 C13.2496,17.2700952 13.5186,17.0010751 13.8496,17.0010751 L13.8496,17.0010751 L16.9996,17.0010751 L16.9996,13.8508388 C16.9996,13.519814 17.2686,13.2507938 17.5996,13.2507938 Z M10.2951148,4.27837828 L10.3913,4.32372428 L14.9563,6.95792184 C15.0493,7.01192589 15.1243,7.08793159 15.1753,7.17793834 C15.1913,7.20494036 15.1893,7.24094306 15.2003,7.26994524 C15.2169667,7.31394854 15.2363,7.35839632 15.247337,7.40506648 L15.2563,7.47696077 L15.2563,7.47996099 L15.2413,12.7243543 C15.2413,12.9069394 15.1575449,13.0777686 15.017739,13.1902377 L14.9432935,13.2413931 L10.4083,15.8755907 C10.4063,15.8765907 10.4063,15.8775908 10.4053,15.8775908 C10.3133,15.9305948 10.2103,15.9565967 10.1063,15.9565967 C10.0376333,15.9565967 9.96852222,15.9450403 9.90252222,15.9213348 L9.8063,15.8765907 L5.2433,13.2423932 C5.08301429,13.1498148 4.97636122,12.9903743 4.94978569,12.8113054 L4.94329347,12.720354 L4.9583,7.47596069 C4.9583,7.42395679 4.9843,7.37895341 4.9973,7.32994974 C5.0103,7.27894591 5.0113,7.22394179 5.0383,7.17793834 C5.0643,7.13293496 5.1103,7.10593294 5.1473,7.06893016 C5.1713,7.04426165 5.1913,7.01559283 5.2155963,6.99122063 L5.2563,6.95892191 L5.2583,6.95792184 L5.2583,6.95692176 L5.2593,6.95692176 L9.7903,4.32472435 C9.9453,4.2338842 10.1301611,4.21804968 10.2951148,4.27837828 Z M6.1543,8.51503862 L6.1433,12.3763282 L9.5093,14.320474 L9.5193,10.9412206 L9.5203,10.4581844 L6.1543,8.51503862 Z M14.0533,8.52203914 L13.8383,8.64704852 L10.7193,10.4581844 L10.7133,13.0283771 L10.7093,14.3134735 L14.0433,12.3763282 L14.0533,8.52203914 Z M10.0923,5.53581518 L6.7553,7.47596069 L10.1203,9.41910642 L10.7793,9.0360777 L13.4593,7.47996099 L10.0923,5.53581518 Z M6.3496,2.00015001 C6.6806,2.00015001 6.9496,2.26817011 6.9496,2.59919494 C6.9496,2.89711728 6.73171,3.14481586 6.446833,3.19137635 L6.3496,3.19923994 L3.1996,3.19923994 L3.1996,6.3494762 C3.1996,6.68050103 2.9306,6.94952121 2.5996,6.94952121 C2.3017,6.94952121 2.05402,6.73161486 2.007463,6.4467165 L1.9996,6.3494762 L1.9996,2.59919494 C1.9996,2.30127259 2.21749,2.05438408 2.502367,2.0079856 L2.5996,2.00015001 L6.3496,2.00015001 Z M17.5996,1.99994999 C17.9306,1.99994999 18.1996,2.26897017 18.1996,2.599995 L18.1996,2.599995 L18.1996,6.35027626 C18.1996,6.68130109 17.9306,6.94932119 17.5996,6.94932119 C17.2686,6.94932119 16.9996,6.68130109 16.9996,6.35027626 L16.9996,6.35027626 L16.9996,3.19903992 L13.8496,3.19903992 C13.5186,3.19903992 13.2496,2.93101982 13.2496,2.599995 C13.2496,2.26897017 13.5186,1.99994999 13.8496,1.99994999 L13.8496,1.99994999 Z"
            id="path-3"></path>
    </defs>
    <g id="用户中心" stroke="none" stroke-width="1" fill="none" fill-rule="evenodd">
        <g id="切图板板" transform="translate(-51.000000, -337.000000)">
            <g id="icon" transform="translate(51.000000, 337.000000)">
                <mask id="mask-2" fill="white">
                    <use xlink:href="#path-1"></use>
                </mask>
                <g id="icon-eye"></g>
                <mask id="mask-4" fill="white">
                    <use xlink:href="#path-3"></use>
                </mask>
                <use id="形状结合" fill="#FFFFFF" xlink:href="#path-3"></use>
                <rect id="Color" fill="currentColor" mask="url(#mask-4)" x="0" y="0" width="20" height="20.0015001">
                </rect>
            </g>
        </g>
    </g>
</svg>