<?xml version="1.0" encoding="UTF-8"?>
<svg width="20px" height="20px" viewBox="0 0 20 20" version="1.1" xmlns="http://www.w3.org/2000/svg"
    xmlns:xlink="http://www.w3.org/1999/xlink">
    <title>资产分享</title>
    <g id="用户中心" stroke="none" stroke-width="1" fill="none" fill-rule="evenodd">
        <g id="切图板板" transform="translate(-85.000000, -208.000000)">
            <g id="编组-4" transform="translate(85.000000, 208.000000)">
                <rect id="矩形" x="0" y="0" width="20" height="20"></rect>
                <g id="编组-3" transform="translate(1.500000, 2.000000)">
                    <path
                        d="M14.2723656,10.5702635 C14.4075835,10.5699324 14.5373844,10.6235464 14.6331637,10.7192919 L14.6331637,10.7192919 L16.7555058,12.8482476 C16.9073364,12.940967 17,13.1063768 17,13.2846835 C17,13.4629903 16.9073364,13.6284001 16.7555058,13.7211195 L16.7555058,13.7211195 L14.6331637,15.8500751 C14.504263,15.9793776 14.316386,16.0298759 14.1403043,15.982548 C13.9642225,15.93522 13.826687,15.7972559 13.7795061,15.6206255 C13.7323251,15.4439951 13.7826666,15.2555326 13.9115674,15.1262302 L13.9115674,15.1262302 L15.1955844,13.838212 L10.0807398,13.838212 C9.78770554,13.838212 9.55015431,13.5999205 9.55015431,13.3059731 C9.55015431,13.0120256 9.78770554,12.7737342 10.0807398,12.7737342 L10.0807398,12.7737342 L15.1955844,12.7737342 L13.9115674,11.5176503 C13.7653618,11.3714987 13.7215372,11.151286 13.8005942,10.960025 C13.8796512,10.768764 14.0659591,10.6442695 14.2723656,10.6447785 L14.2723656,10.6447785 Z M7.95839771,0 C12.3539122,0 15.9171807,3.57437225 15.9171807,7.98358386 L15.9171807,7.98358386 L14.8560096,7.98358386 C14.8560096,5.18506671 13.1754605,2.66210957 10.5979995,1.59116342 C8.02053858,0.520217265 5.05375271,1.11218661 3.08104951,3.09103706 C1.10834632,5.06988752 0.518215918,8.04591837 1.5858352,10.6314111 C2.65345448,13.2169038 5.1685741,14.9026899 7.95839771,14.9026898 L7.95839771,14.9026898 L7.95839771,15.9671677 C3.5630337,15.9669542 0,12.3926445 0,7.98358385 C0,3.57452317 3.5630337,0.000213452756 7.95839771,0 Z M9.62052175,4.62780352 C9.75595203,4.62780352 9.88385839,4.6842248 9.97414525,4.78202169 C10.1697668,4.99266114 10.1697668,5.31614314 9.97414525,5.52302116 L9.97414525,5.52302116 L8.97346598,6.57245695 L10.0268126,6.57245695 C10.308959,6.57997977 10.5309142,6.81318773 10.5271522,7.09529412 C10.5346761,7.37740052 10.308959,7.61060846 10.0268126,7.6181313 L10.0268126,7.6181313 L8.52579366,7.6181313 L8.52579366,8.66380567 L10.0268126,8.66380567 C10.308959,8.6713285 10.5309142,8.90453646 10.5271522,9.18664285 C10.5309142,9.46874926 10.308959,9.7019572 10.0268126,9.70948005 L10.0268126,9.70948005 L8.52579366,9.70948005 L8.52579366,11.1049663 C8.52955563,11.3870727 8.30760044,11.6202807 8.02545403,11.6278035 C7.75083151,11.6278035 7.52511438,11.3945956 7.52511438,11.1049663 L7.52511438,11.1049663 L7.52511438,9.70948005 L6.02785742,9.70948005 C5.7532349,9.70948003 5.52751777,9.47627209 5.52751777,9.18664285 C5.51999388,8.90453646 5.74571101,8.67132852 6.02785742,8.66380567 L6.02785742,8.66380567 L7.52511438,8.66380567 L7.52511438,7.6181313 L6.02785742,7.6181313 C5.7532349,7.6181313 5.52751777,7.38492336 5.52751777,7.09529412 C5.51999388,6.81318773 5.74571101,6.57997979 6.02785742,6.57245695 L6.02785742,6.57245695 L7.08496597,6.57245695 L6.08052474,5.52302116 C5.88490324,5.31238171 5.88490324,4.98889971 6.08052474,4.78202169 C6.17081161,4.6842248 6.29871798,4.62780352 6.43414826,4.62780352 C6.56957854,4.62780352 6.69748491,4.6842248 6.78777176,4.78202169 L6.78777176,4.78202169 L8.02921598,6.0797111 L9.26689825,4.78202169 C9.3571851,4.6842248 9.48509147,4.62780352 9.62052175,4.62780352 Z"
                        id="形状结合" stroke="#FFFFFF" stroke-width="0.3" fill="currentColor" fill-rule="nonzero"
                        stroke-linejoin="round"></path>
                    <g id="固定资产" transform="translate(5.527335, 4.627804)"></g>
                </g>
            </g>
        </g>
    </g>
</svg>