<?xml version="1.0" encoding="UTF-8"?>
<svg width="20px" height="20px" viewBox="0 0 20 20" version="1.1" xmlns="http://www.w3.org/2000/svg" xmlns:xlink="http://www.w3.org/1999/xlink">
    <title>编组 40备份</title>
    <g id="用户中心" stroke="none" stroke-width="1" fill="none" fill-rule="evenodd">
        <g id="切图板板" transform="translate(-187.000000, -240.000000)">
            <g id="编组-40备份" transform="translate(187.000297, 240.000000)">
                <g id="编组-38">
                    <rect id="矩形" x="0" y="0" width="19.9875078" height="20"></rect>
                </g>
                <g id="编组-8" transform="translate(0.962359, 1.129319)" stroke="#FFFFFF" stroke-width="0.2" fill="currentColor">
                    <path d="M9,0 C13.9705627,0 18,4.02943725 18,9 C18,13.9705627 13.9705627,18 9,18 C4.02943725,18 0,13.9705627 0,9 C0,4.02943725 4.02943725,0 9,0 Z M9,1.35 C4.77502166,1.35 1.35,4.77502166 1.35,9 C1.35,13.2249783 4.77502166,16.65 9,16.65 C13.2249783,16.65 16.65,13.2249783 16.65,9 C16.65,4.77502166 13.2249783,1.35 9,1.35 Z" id="椭圆形" fill-rule="nonzero"></path>
                    <g id="编组-39" transform="translate(3.575586, 4.179431)">
                        <rect id="矩形" x="0" y="3.9375" width="11.5240475" height="1.49625" rx="0.748125"></rect>
                        <g id="编组-37" transform="translate(1.244597, 5.433750)">
                            <path d="M-1.22490084,1.22490084 L1.99125,1.22490084 C2.41449295,1.22490084 2.75759916,1.56800705 2.75759916,1.99125 C2.75759916,2.41449295 2.41449295,2.75759916 1.99125,2.75759916 L-1.22490084,2.75759916 L-1.22490084,2.75759916 L-1.22490084,1.22490084 Z" id="矩形" transform="translate(0.766349, 1.991250) rotate(90.000000) translate(-0.766349, -1.991250) "></path>
                            <path d="M2.2323134,1.22490084 L5.44846424,1.22490084 C5.87170719,1.22490084 6.2148134,1.56800705 6.2148134,1.99125 C6.2148134,2.41449295 5.87170719,2.75759916 5.44846424,2.75759916 L2.2323134,2.75759916 L2.2323134,2.75759916 L2.2323134,1.22490084 Z" id="矩形" transform="translate(4.223563, 1.991250) rotate(90.000000) translate(-4.223563, -1.991250) "></path>
                            <path d="M5.68952764,1.22490084 L8.90567848,1.22490084 C9.32892143,1.22490084 9.67202764,1.56800705 9.67202764,1.99125 C9.67202764,2.41449295 9.32892143,2.75759916 8.90567848,2.75759916 L5.68952764,2.75759916 L5.68952764,2.75759916 L5.68952764,1.22490084 Z" id="矩形" transform="translate(7.680778, 1.991250) rotate(90.000000) translate(-7.680778, -1.991250) "></path>
                        </g>
                        <g id="编组-36" transform="translate(2.973204, 0.000000)">
                            <path d="M3.02116255,1.20240084 L6.1923134,1.20240084 L6.1923134,1.20240084 L6.1923134,2.73509916 L3.02116255,2.73509916 C2.5979196,2.73509916 2.2548134,2.39199295 2.2548134,1.96875 C2.2548134,1.54550705 2.5979196,1.20240084 3.02116255,1.20240084 Z" id="矩形" transform="translate(4.223563, 1.968750) rotate(90.000000) translate(-4.223563, -1.968750) "></path>
                            <path d="M-0.436051686,1.20240084 L2.73509916,1.20240084 L2.73509916,1.20240084 L2.73509916,2.73509916 L-0.436051686,2.73509916 C-0.859294639,2.73509916 -1.20240084,2.39199295 -1.20240084,1.96875 C-1.20240084,1.54550705 -0.859294639,1.20240084 -0.436051686,1.20240084 Z" id="矩形" transform="translate(0.766349, 1.968750) rotate(90.000000) translate(-0.766349, -1.968750) "></path>
                        </g>
                    </g>
                </g>
            </g>
        </g>
    </g>
</svg>