<?xml version="1.0" encoding="UTF-8"?>
<svg width="20px" height="20px" viewBox="0 0 20 20" version="1.1" xmlns="http://www.w3.org/2000/svg"
    xmlns:xlink="http://www.w3.org/1999/xlink">
    <title>字典管理备份</title>
    <g id="用户中心" stroke="none" stroke-width="1" fill="none" fill-rule="evenodd">
        <g id="切图板板" transform="translate(-153.000000, -208.000000)" fill-rule="nonzero">
            <g id="字典管理备份" transform="translate(153.000000, 208.000000)">
                <rect id="矩形" fill="#000000" opacity="0" x="0" y="0" width="20" height="20"></rect>
                <path
                    d="M8.78125,2.26953125 L5.93359375,2.26953125 C5.65625,2.26953125 5.43164063,2.04492188 5.43164063,1.76757812 C5.43164063,1.49023438 5.65625,1.265625 5.93359375,1.265625 L8.78125,1.265625 C9.05859375,1.265625 9.28320312,1.49023438 9.28320312,1.76757812 C9.28320312,2.04492188 9.05859375,2.26953125 8.78125,2.26953125 Z M3.12695313,16.7832031 C2.84960938,16.7832031 2.625,16.5585938 2.625,16.28125 L2.625,3.26953125 C2.625,2.1640625 3.5234375,1.265625 4.62890625,1.265625 L5.93359375,1.265625 C6.2109375,1.265625 6.43554688,1.49023438 6.43554688,1.76757812 C6.43554688,2.04492188 6.2109375,2.26953125 5.93359375,2.26953125 L4.62890625,2.26953125 C4.078125,2.26953125 3.63085938,2.71679688 3.63085938,3.26757812 L3.63085938,16.2792969 C3.62890625,16.5585938 3.40429688,16.7832031 3.12695313,16.7832031 Z M10.421875,6.77148438 C10.2988281,6.77148438 10.1796875,6.74609375 10.078125,6.703125 C9.81445312,6.58984375 9.65039062,6.35351562 9.65039062,6.0859375 L9.65039062,1.76953125 C9.65039062,1.4921875 9.875,1.26757812 10.1523438,1.26757812 C10.4296875,1.26757812 10.6542969,1.4921875 10.6542969,1.76953125 L10.6542969,5.4609375 L11.1953125,4.94140625 C11.4707031,4.67773437 11.9003906,4.67773437 12.1738281,4.94140625 L12.6054688,5.35742187 L12.6054688,1.76757812 C12.6054688,1.49023438 12.8300781,1.265625 13.1074219,1.265625 C13.3847656,1.265625 13.609375,1.49023438 13.609375,1.76757812 L13.609375,6.05664062 C13.609375,6.33984375 13.4414063,6.59375 13.1796875,6.70507812 C12.9199219,6.81640625 12.6191406,6.76171875 12.4140625,6.56445312 L11.6816406,5.86132812 L10.9492188,6.56445312 C10.8007813,6.71289063 10.6074219,6.77148438 10.421875,6.77148438 L10.421875,6.77148438 Z M16.5253906,18.7285156 L4.62695312,18.7285156 C3.52148438,18.7285156 2.62304688,17.8300781 2.62304688,16.7246094 L2.62304688,16.2792969 C2.62304688,16.0019531 2.84765625,15.7773438 3.125,15.7773438 C3.40234375,15.7773438 3.62695312,16.0019531 3.62695312,16.2792969 L3.62695312,16.7246094 C3.62695312,17.2753906 4.07421875,17.7226562 4.625,17.7226562 L16.5234375,17.7226562 C16.8007812,17.7226562 17.0254033,17.9472656 17.0254033,18.2246094 C17.0273437,18.5039063 16.8027344,18.7285156 16.5253906,18.7285156 Z M3.12695313,17.109375 L3.109375,17.109375 C2.83203125,17.0996094 2.61523438,16.8671875 2.625,16.5898438 C2.64453125,16.0390625 2.74804688,15.6425781 2.95117188,15.3476562 C3.22070313,14.9550781 3.64257812,14.7558594 4.20703125,14.7558594 L16.21875,14.7558594 C16.28125,14.703125 16.34375,14.6367187 16.3867187,14.5878906 L16.3867187,2.59960938 C16.3515625,2.5 16.1582031,2.30664062 16.0585937,2.27148438 L8.78125,2.27148438 C8.50390625,2.27148438 8.27929688,2.046875 8.27929688,1.76953125 C8.27929688,1.4921875 8.50390625,1.26757812 8.78125,1.26757812 L16.078125,1.26757812 C16.4648437,1.26757812 16.7949219,1.5390625 16.9570312,1.70117188 C17.1191406,1.86328125 17.390625,2.19335938 17.390625,2.58007812 L17.390625,14.7207031 C17.390625,14.9316406 17.2695312,15.1035156 17.1503906,15.2421875 C17.0605469,15.3476562 16.9492188,15.4570312 16.8457031,15.5429688 C16.8261719,15.5605469 16.8046875,15.5761719 16.7832031,15.5917969 C16.6777344,15.671875 16.53125,15.7636719 16.3476562,15.7636719 L4.20507812,15.7636719 C3.91210938,15.7636719 3.65820312,15.7636719 3.62890625,16.6269531 C3.61914062,16.8964844 3.39648438,17.109375 3.12695313,17.109375 Z M5.5546875,15.75 C5.27734375,15.75 5.05273438,15.5253906 5.05273438,15.2480469 L5.05273438,1.76757812 C5.05273438,1.49023438 5.27734375,1.265625 5.5546875,1.265625 C5.83203125,1.265625 6.05664063,1.49023438 6.05664063,1.76757812 L6.05664063,15.2460938 C6.05664063,15.5253906 5.83203125,15.75 5.5546875,15.75 Z M16.5019531,18.7304688 L16.4707031,18.7304688 C16.3417969,18.7246094 15.8847656,18.6855469 15.4511719,18.4003906 C15.0703125,18.1523438 14.6191406,17.6582031 14.6191406,16.7148438 C14.6191406,15.4980469 15.3164062,14.7421875 16.4375,14.7421875 C16.7148438,14.7421875 16.9394531,14.9667969 16.9394531,15.2441406 C16.9394531,15.5214844 16.7148438,15.7460938 16.4375,15.7460938 C16.1933594,15.7460938 15.6230469,15.7460938 15.6230469,16.7148438 C15.6230469,17.125 15.7519531,17.4042969 16.015625,17.5703125 C16.2226563,17.6992188 16.4472656,17.7226563 16.5039062,17.7265625 C16.53125,17.7246094 16.5605469,17.7265625 16.5898438,17.7304688 C16.8574219,17.7636719 17.0507812,18.0039063 17.0292969,18.2714844 C17.0117188,18.4570313 16.8574219,18.7304688 16.5019531,18.7304688 L16.5019531,18.7304688 Z M16.5253906,17.7496094 C16.4849494,17.7621094 16.4408318,17.7871094 16.4003906,17.8246094 C16.4408318,17.7871094 16.481273,17.7621094 16.5253906,17.7496094 Z"
                    id="形状" stroke="#FFFFFF" stroke-width="0.2" fill="currentColor"></path>
            </g>
        </g>
    </g>
</svg>