<?xml version="1.0" encoding="UTF-8"?>
<svg width="20px" height="20px" viewBox="0 0 20 20" version="1.1" xmlns="http://www.w3.org/2000/svg"
    xmlns:xlink="http://www.w3.org/1999/xlink">
    <title>组织架构管理</title>
    <g id="用户中心" stroke="none" stroke-width="1" fill="none" fill-rule="evenodd">
        <g id="切图板板" transform="translate(-51.000000, -208.000000)" fill-rule="nonzero">
            <g id="分组管理备份" transform="translate(51.000000, 208.000000)">
                <rect id="矩形" fill="#000000" opacity="0" x="0" y="0" width="20" height="20"></rect>
                <path
                    d="M16.518,2.3 L3.982,2.3 C3.10180374,2.3 2.37974111,2.96880667 2.30617274,3.8206928 L2.3,3.96428571 L2.3,6.25 C2.3,7.12072914 2.97573651,7.83536365 3.8368489,7.90817635 L3.982,7.91428571 L6.87142857,7.96428571 L6.87142857,10.25 C6.87142857,10.5059796 7.0558841,10.7188773 7.2991297,10.7630277 L7.39285714,10.7714286 L12.5857143,10.8214286 L12.5357143,12.5857143 L3.982,12.5857143 C3.10180374,12.5857143 2.37974111,13.254521 2.30617274,14.1064071 L2.3,14.25 L2.3,16.5357143 C2.3,17.4064434 2.97573651,18.1210779 3.8368489,18.1938906 L3.982,18.2 L16.518,18.2 C17.3981963,18.2 18.1202589,17.5311933 18.1938273,16.6793072 L18.2,16.5357143 L18.2,14.25 C18.2,13.3792709 17.5242635,12.6646363 16.6631511,12.5918237 L16.518,12.5857143 L13.6285714,12.5357143 L13.6285714,10.25 C13.6285714,9.9940204 13.4441159,9.7811227 13.2008703,9.73697234 L13.1071429,9.72857143 L7.91428571,9.67857143 L7.96428571,7.91428571 L16.518,7.91428571 C17.3981963,7.91428571 18.1202589,7.24547905 18.1938273,6.39359292 L18.2,6.25 L18.2,3.96428571 C18.2,3.09355658 17.5242635,2.37892206 16.6631511,2.30610937 L16.518,2.3 Z M16.518,13.6285714 C16.8327905,13.6285714 17.0935345,13.8584753 17.1383409,14.158161 L17.1451429,14.25 L17.1451429,16.5357143 C17.1451429,16.8477551 16.9130162,17.1060263 16.6106539,17.1504059 L16.518,17.1571429 L3.982,17.1571429 C3.6672095,17.1571429 3.40646548,16.927239 3.36165905,16.6275533 L3.35485714,16.5357143 L3.35485714,14.25 C3.35485714,13.9379592 3.58698385,13.679688 3.88934614,13.6353084 L3.982,13.6285714 L16.518,13.6285714 Z M16.518,3.34285714 C16.8327905,3.34285714 17.0935345,3.57276102 17.1383409,3.87244668 L17.1451429,3.96428571 L17.1451429,6.25 C17.1451429,6.5620408 16.9130162,6.82031202 16.6106539,6.86469158 L16.518,6.87142857 L3.982,6.87142857 C3.6672095,6.87142857 3.40646548,6.6415247 3.36165905,6.34183903 L3.35485714,6.25 L3.35485714,3.96428571 C3.35485714,3.65224491 3.58698385,3.39397369 3.88934614,3.34959414 L3.982,3.34285714 L16.518,3.34285714 Z"
                    id="形状" fill="currentColor"></path>
                <path
                    d="M13.6785714,4.42867343 L6.82142857,4.42867343 C6.53776419,4.42867343 6.3,4.61358557 6.3,5.0307157 C6.3,5.4099249 6.49649933,5.64443797 6.74534773,5.69758994 L6.82142857,5.70565613 L13.6785714,5.70565613 C13.9622358,5.70565613 14.2,5.44784582 14.2,5.0307157 C14.2,4.65150649 14.0035007,4.48989159 13.7546523,4.43673961 L13.6785714,4.42867343 Z M13.6785714,14.7901821 L6.82142857,14.7901821 C6.53776419,14.7901821 6.3,14.9750942 6.3,15.3922243 C6.3,15.7714336 6.49649933,16.0059466 6.74534773,16.0590986 L6.82142857,16.0671648 L13.6785714,16.0671648 C13.9622358,16.0671648 14.2,15.8093545 14.2,15.3922243 C14.2,15.0130151 14.0035007,14.8514002 13.7546523,14.7982483 L13.6785714,14.7901821 Z"
                    id="形状结合" fill="currentColor"></path>
            </g>
        </g>
    </g>
</svg>