<?xml version="1.0" encoding="UTF-8"?>
<svg width="20px" height="20px" viewBox="0 0 20 20" version="1.1" xmlns="http://www.w3.org/2000/svg"
    xmlns:xlink="http://www.w3.org/1999/xlink">
    <title>组织管理备份</title>
    <g id="用户中心" stroke="none" stroke-width="1" fill="none" fill-rule="evenodd">
        <g id="切图板板" transform="translate(-119.000000, -208.000000)" fill-rule="nonzero">
            <g id="组织管理备份" transform="translate(119.000000, 208.000000)">
                <rect id="矩形" fill="#000000" opacity="0" x="0" y="0" width="20" height="20"></rect>
                <path
                    d="M17.5019531,12.4345703 L15.6445312,12.4345703 L15.6445312,10.5791016 C15.6437778,9.88905798 15.0845748,9.32985506 14.3945312,9.32910156 L10.625,9.32910156 L10.625,7.44375 L12.4980469,7.44375 C13.1880905,7.4429965 13.7472934,6.88379359 13.7480469,6.19375 L13.7480469,3.14042969 C13.7472934,2.4503861 13.1880905,1.89118319 12.4980469,1.89042969 L7.50722656,1.89042969 C6.81718298,1.89118319 6.25798006,2.4503861 6.25722656,3.14042969 L6.25722656,6.19375 C6.25798006,6.88379359 6.81718298,7.4429965 7.50722656,7.44375 L9.375,7.44375 L9.375,9.32988281 L5.625,9.32988281 C4.93495641,9.33063631 4.3757535,9.88983923 4.375,10.5798828 L4.375,12.4353516 L2.5,12.4353516 C1.80995641,12.4361051 1.2507535,12.995308 1.25,13.6853516 L1.25,16.8205078 C1.2507535,17.5105514 1.80995641,18.0697543 2.5,18.0705078 L7.48828125,18.0705078 C8.17832484,18.0697543 8.73752775,17.5105514 8.73828125,16.8205078 L8.73828125,13.6845703 C8.73752775,12.9945267 8.17832484,12.4353238 7.48828125,12.4345703 L5.6234375,12.4345703 L5.6234375,10.5810547 L5.62460938,10.5798828 L14.3927734,10.5798828 L14.3939453,10.5810547 L14.3939453,12.4345703 L12.5117188,12.4345703 C11.8216752,12.4353238 11.2624722,12.9945267 11.2617188,13.6845703 L11.2617188,16.8205078 C11.2624722,17.5105514 11.8216752,18.0697543 12.5117188,18.0705078 L17.5019531,18.0705078 C18.1919967,18.0697543 18.7511996,17.5105514 18.7519531,16.8205078 L18.7519531,13.6845703 C18.7511996,12.9945267 18.1919967,12.4353238 17.5019531,12.4345703 L17.5019531,12.4345703 Z M7.50722656,6.19277344 L7.50722656,3.14160156 L7.50839844,3.14042969 L12.4962891,3.14042969 L12.4974609,3.14160156 L12.4974609,6.19277344 L12.4962891,6.19394531 L7.50820312,6.19394531 L7.50722656,6.19277344 Z M7.48769531,13.6857422 L7.48769531,16.8193359 L7.48652344,16.8205078 L2.5,16.8205078 L2.49882813,16.8193359 L2.49882813,13.6857422 L2.5,13.6845703 L7.48710937,13.6845703 L7.48769531,13.6857422 Z M17.5019531,16.8193359 L17.5007812,16.8205078 L12.5128906,16.8205078 L12.5117188,16.8193359 L12.5117188,13.6857422 L12.5128906,13.6845703 L17.5,13.6845703 L17.5011719,13.6857422 L17.5019531,16.8193359 Z"
                    id="形状" fill="currentColor"></path>
            </g>
        </g>
    </g>
</svg>