<?xml version="1.0" encoding="UTF-8"?>
<svg width="20px" height="20px" viewBox="0 0 20 20" version="1.1" xmlns="http://www.w3.org/2000/svg"
    xmlns:xlink="http://www.w3.org/1999/xlink">
    <title>数据查询</title>
    <g id="用户中心" stroke="none" stroke-width="1" fill="none" fill-rule="evenodd">
        <g id="切图板板" transform="translate(-119.000000, -587.000000)" fill-rule="nonzero">
            <g id="库存查询备份" transform="translate(119.000000, 587.000000)">
                <rect id="矩形" fill="#000000" opacity="0" x="0" y="0" width="20" height="20"></rect>
                <path
                    d="M12.1086445,8.44546094 C10.9671406,7.30354464 9.13594056,7.24172894 7.92002776,8.30406608 C6.70411496,9.36640321 6.51960766,11.1893326 7.49799282,12.473765 C8.47637799,13.7581974 10.2828257,14.0645653 11.6299922,13.1745391 L13.2663574,14.8109043 C13.4193002,14.9752242 13.6497614,15.0429188 13.8672743,14.9874147 C14.0847872,14.9319106 14.2546343,14.762067 14.3101428,14.5445552 C14.3656513,14.3270435 14.2979614,14.0965809 14.1336445,13.9436348 L12.4972793,12.3072871 C13.2965708,11.0865064 13.1255073,9.47168307 12.0881836,8.44546094 L12.1086445,8.44546094 Z M11.2413574,11.9186348 C10.6220274,12.5410736 9.64930601,12.6394672 8.91787395,12.1536618 C8.18644189,11.6678563 7.89992435,10.7330965 8.23348605,9.92085492 C8.56704775,9.10861336 9.42782765,8.64501198 10.2895812,8.81347709 C11.1513348,8.9819422 11.7741565,9.7355744 11.7772948,10.6136348 C11.7792836,11.1013893 11.5863448,11.5697316 11.2413574,11.9145391 L11.2413574,11.9186348 Z M16.9318184,12.4545391 C17.2707223,12.4545391 17.5454707,12.1798083 17.5454707,11.8409043 L17.5454707,3.45455664 C17.5454707,3.23755736 17.4592748,3.02944446 17.3058331,2.8760028 C17.1523915,2.72256114 16.9442786,2.63636057 16.7272793,2.63636523 L14.2727227,2.63636523 L14.2727227,1.81817383 C14.2727227,1.3663089 13.9064138,1 13.4545488,1 L6.90908789,1 C6.6920947,1 6.48398899,1.08620021 6.33055163,1.23963757 C6.17711427,1.39307492 6.09091406,1.60118064 6.09091406,1.81817383 L6.09091406,2.63636523 L3.63635742,2.63636523 C3.18449249,2.63636523 2.81818359,3.00267413 2.81818359,3.45453906 L2.81818359,18.1818262 C2.81818359,18.6336911 3.18449249,19 3.63635742,19 L16.7272793,19 C17.1791442,19 17.5454707,18.6336911 17.5454707,18.1818262 L17.5454707,15.5227305 C17.5429016,15.1856418 17.2689167,14.9137228 16.9318184,14.9137228 C16.59472,14.9137228 16.3207351,15.1856418 16.3181836,15.5227305 L16.3181836,17.7727305 L4.04545312,17.7727305 L4.04545312,3.86363477 L6.09091406,3.86363477 L6.09091406,4.68182617 C6.09091406,5.1336911 6.45722296,5.5 6.90908789,5.5 L13.4545488,5.5 C13.9064138,5.5 14.2727227,5.1336911 14.2727227,4.68182617 L14.2727227,3.86363477 L16.3181836,3.86363477 L16.3181836,11.8409043 C16.3181836,12.1798083 16.5929144,12.4545469 16.9318184,12.4545566 L16.9318184,12.4545391 Z M13.0454707,4.27273047 L7.31816602,4.27273047 L7.31816602,2.22726953 L13.0454707,2.22726953 L13.0454707,4.27273047 Z"
                    id="形状" fill="currentColor"></path>
            </g>
        </g>
    </g>
</svg>