<?xml version="1.0" encoding="UTF-8"?>
<svg width="20px" height="20px" viewBox="0 0 20 20" version="1.1" xmlns="http://www.w3.org/2000/svg"
    xmlns:xlink="http://www.w3.org/1999/xlink">
    <title>数据质量</title>
    <g id="用户中心" stroke="none" stroke-width="1" fill="none" fill-rule="evenodd">
        <g id="切图板板" transform="translate(-51.000000, -587.000000)" fill-rule="nonzero">
            <g id="数据看板备份" transform="translate(51.000000, 587.000000)">
                <rect id="矩形" fill="#000000" opacity="0" x="0" y="0" width="20" height="20"></rect>
                <path
                    d="M18.0945027,3.96255936 C18.0231446,3.65519808 17.7161674,3.46384894 17.4087884,3.53513079 L14.4293599,4.22541651 C14.2287476,4.2718053 14.0686058,4.42253598 14.0101668,4.61997478 C13.9517277,4.81741358 14.0040296,5.03102453 14.1470741,5.17913079 L14.7973599,5.85170222 L11.3230741,8.95113079 L9.51907414,7.24255936 C9.29050615,7.02620924 8.93002639,7.03540645 8.71278843,7.26313079 L4.84250271,11.3214165 C4.36899245,11.2224931 3.88448847,11.4323961 3.63280419,11.8454976 C3.38111992,12.2585991 3.41677569,12.7854122 3.72182872,13.1608325 C4.02688175,13.5362529 4.53525084,13.6789563 4.99111311,13.517131 C5.44697538,13.3553058 5.75158102,12.9240069 5.75164557,12.4402736 C5.75164557,12.3162736 5.72707414,12.1997022 5.69050271,12.0882736 L9.14650271,8.46427365 L10.9185027,10.1419879 C11.1341208,10.3460545 11.47009,10.3510208 11.6916456,10.1534165 L15.5916456,6.67455936 L16.3327884,7.44198793 C16.4757819,7.59004852 16.6873557,7.64976228 16.8866588,7.59831014 C17.0859619,7.54685799 17.2421914,7.39219205 17.2956456,7.19341651 L18.0893599,4.23970222 C18.1139116,4.14916019 18.1156783,4.05394994 18.0945027,3.96255936 Z M17.180217,9.16998793 C16.8646257,9.16998793 16.6087884,9.42582522 16.6087884,9.74141651 L16.6087884,14.2688451 C16.6087884,14.5844364 16.3529511,14.8402736 16.0373599,14.8402736 L3.46593128,14.8402736 C3.15034,14.8402736 2.89450271,14.5844364 2.89450271,14.2688451 L2.89450271,3.98313079 C2.89450271,3.66753951 3.15034,3.41170222 3.46593128,3.41170222 L12.9419313,3.41170222 C13.2575226,3.41170222 13.5133599,3.15586493 13.5133599,2.84027365 C13.5133599,2.52468236 13.2575226,2.26884508 12.9419313,2.26884508 L3.46593128,2.26884508 C2.51915743,2.26884508 1.75164557,3.03635694 1.75164557,3.98313079 L1.75164557,14.2688451 C1.75164557,15.2156189 2.51915743,15.9831308 3.46593128,15.9831308 L16.0373599,15.9831308 C16.9841337,15.9831308 17.7516456,15.2156189 17.7516456,14.2688451 L17.7516456,9.74141651 C17.7516456,9.42582522 17.4958083,9.16998793 17.180217,9.16998793 Z M16.8945027,17.1259879 L2.60878843,17.1259879 C2.29319714,17.1259879 2.03735986,17.3818252 2.03735986,17.6974165 C2.03735986,18.0130078 2.29319714,18.2688451 2.60878843,18.2688451 L16.8945027,18.2688451 C17.210094,18.2688451 17.4659313,18.0130078 17.4659313,17.6974165 C17.4659313,17.3818252 17.210094,17.1259879 16.8945027,17.1259879 Z"
                    id="形状" stroke="#FFFFFF" stroke-width="0.1" fill="currentColor"></path>
            </g>
        </g>
    </g>
</svg>