<?xml version="1.0" encoding="UTF-8"?>
<svg width="20px" height="20px" viewBox="0 0 20 20" version="1.1" xmlns="http://www.w3.org/2000/svg"
    xmlns:xlink="http://www.w3.org/1999/xlink">
    <title>数据同步</title>
    <g id="用户中心" stroke="none" stroke-width="1" fill="none" fill-rule="evenodd">
        <g id="切图板板" transform="translate(-153.000000, -587.000000)" fill-rule="nonzero">
            <g id="同步备份" transform="translate(153.000000, 587.000000)">
                <rect id="矩形" fill="#000000" opacity="0" x="0" y="0" width="20" height="20"></rect>
                <path
                    d="M14.0293157,1.37181641 C16.1893482,1.37396811 17.9398611,3.12448868 17.9420033,5.28452121 L17.9420033,6.78111274 C17.9420033,7.14126411 17.650043,7.43322447 17.2898916,7.43322447 C16.9297402,7.43322447 16.6377799,7.14126411 16.6377799,6.78111274 L16.6377799,5.28450401 C16.6377799,4.59269789 16.3629598,3.9292266 15.8737774,3.44004741 C15.384595,2.95086823 14.7211218,2.67605251 14.0293157,2.67605707 L7.81075635,2.67605707 C6.37015088,2.67605707 5.20230941,3.84389855 5.20230941,5.28450401 L5.20230941,14.4141027 C5.20230941,15.8547082 6.37015088,17.0225496 7.81075635,17.0225496 L12.5529291,17.0225496 C12.9130805,17.0225496 13.2050409,17.31451 13.2050409,17.6746614 C13.2050409,18.0348127 12.9130805,18.3267731 12.5529291,18.3267731 L7.81075635,18.3267731 C5.64985208,18.3267731 3.89808594,16.575007 3.89808594,14.4141027 L3.89808594,5.28450401 C3.89987799,3.12433576 5.6505881,1.37361795 7.81075635,1.37181641 L14.0293157,1.37181641 Z M17.7672265,13.2037676 L19.3322912,13.2076882 C19.6113194,13.2091218 19.8459996,13.4172898 19.880713,13.694154 C19.9099199,13.8066354 19.9021483,13.9255305 19.8585477,14.0332528 C19.2382051,15.5829749 17.7377177,16.599652 16.0684481,16.6012899 C15.5538161,16.6003723 15.044091,16.5012124 14.5666463,16.3091353 C13.5173599,15.8886128 12.6882069,15.0535613 12.2751329,14.0013032 C12.1636677,13.7153417 12.3051248,13.3931637 12.5910863,13.2816984 C12.8770478,13.1702332 13.1992259,13.3116904 13.3106911,13.5976519 C13.6058038,14.3669285 14.2099476,14.9772225 14.9761958,15.2801115 C16.2166411,15.7707711 17.6320448,15.3751295 18.4382706,14.3123731 L17.7672265,14.3123731 C17.4715472,14.2980118 17.239193,14.0540982 17.239193,13.7580703 C17.239193,13.4620425 17.4715472,13.2181289 17.7672265,13.2037676 Z M16.0753154,8.69067301 C17.7487275,8.69746803 19.2477293,9.72706296 19.8546443,11.2865526 C19.9084259,11.4234915 19.9053514,11.5762284 19.8461027,11.7108921 C19.7868541,11.8455559 19.676328,11.9510167 19.5390348,12.0038875 C19.4754714,12.0298781 19.4074968,12.0433819 19.3388255,12.0436611 C19.1107649,12.0426133 18.906278,11.9029345 18.8223533,11.6908746 C18.4343125,10.6886206 17.5340064,9.97504603 16.4696238,9.8261222 C15.4052411,9.67719838 14.3436611,10.1162743 13.6954444,10.9735397 L14.3664714,10.9735397 C14.6621507,10.9879009 14.8945049,11.2318145 14.8945049,11.5278424 C14.8945049,11.8238702 14.6621507,12.0677838 14.3664714,12.0821451 L14.3664714,12.0853951 L12.8013895,12.0814916 C12.6106215,12.0641128 12.4386548,11.9593708 12.3356871,11.7978403 C12.2327194,11.6363098 12.210359,11.4362013 12.2751329,11.2559271 C12.8946304,9.70139286 14.4019033,8.68394497 16.0753154,8.69067301 Z M10.4837731,8.05469351 C10.8439244,8.05469351 11.1358848,8.34665388 11.1358848,8.70680524 C11.1358848,9.06695661 10.8439244,9.35891698 10.4837731,9.35891698 L7.51079492,9.35891698 C7.15064356,9.35891698 6.85868319,9.06695661 6.85868319,8.70680524 C6.85868319,8.34665388 7.15064356,8.05469351 7.51079492,8.05469351 L10.4837731,8.05469351 Z M12.8203047,5.06930009 C13.1804608,5.06930009 13.4724251,5.36126431 13.4724251,5.72142042 C13.4724251,6.08157654 13.1804608,6.37354076 12.8203047,6.37354076 L7.51079492,6.37354076 C7.15063882,6.37354076 6.85867461,6.08157653 6.85867461,5.72142042 C6.85867461,5.36126432 7.15063882,5.06930009 7.51079492,5.06930009 L12.8203047,5.06930009 Z"
                    id="形状结合" fill="currentColor"></path>
            </g>
        </g>
    </g>
</svg>