<?xml version="1.0" encoding="UTF-8"?>
<svg width="20px" height="20px" viewBox="0 0 20 20" version="1.1" xmlns="http://www.w3.org/2000/svg"
    xmlns:xlink="http://www.w3.org/1999/xlink">
    <title>数据维护</title>
    <g id="用户中心" stroke="none" stroke-width="1" fill="none" fill-rule="evenodd">
        <g id="切图板板" transform="translate(-85.000000, -587.000000)" fill-rule="nonzero">
            <g id="扳手-23" transform="translate(85.000000, 587.000000)">
                <rect id="矩形" fill="#000000" opacity="0" x="0" y="0" width="20" height="20"></rect>
                <path
                    d="M15.8291937,2.07099464 C16.0257765,1.95321618 16.2772981,1.98439202 16.4391767,2.14660141 L16.4391767,2.14660141 L17.8533742,3.56062718 C18.0156198,3.72253372 18.0468153,3.97410122 17.9290301,4.17073284 L17.9290301,4.17073284 L15.8272551,7.6868526 C15.7372435,7.83735449 15.5734657,7.93031082 15.3981051,7.93031082 L15.3981051,7.93031082 L14.1911206,7.93026174 L12.4748396,9.64659189 L14.8386248,12.0103771 C14.8900354,12.0057146 14.9400718,12.0003158 14.9999241,12.0000704 C16.655764,12.0009048 17.9990663,13.3442072 17.9998271,15.0000224 C17.9990173,16.6559113 16.6557394,17.9991892 14.9998996,18 C13.3440107,17.9991892 12.0007329,16.6559113 11.999923,15.0000224 C12.0001194,14.9402683 12.0055917,14.8901828 12.0101806,14.8387722 L12.0101806,14.8387722 L10.3534574,13.1819753 L5.97358976,17.5618429 C5.6818129,17.8538406 5.29474844,18.0004407 4.91296001,18 C4.53114705,18.0004407 4.14410713,17.8538406 3.85220757,17.5617938 L3.85220757,17.5617938 L2.43832905,16.1476454 C2.14618409,15.8558685 1.99958401,15.468755 2.00000089,15.0870647 C1.99958401,14.7053254 2.14613501,14.3182364 2.43818181,14.0263859 L2.43818181,14.0263859 L6.50617456,9.95841767 C6.33707159,9.9800126 6.1672815,9.99441739 5.99702516,9.99441739 C4.97467732,9.99483457 3.94663628,9.60389283 3.16880186,8.82583757 C2.39059936,8.04775776 1.99960855,7.01961855 2.00000089,5.99707439 C2.00000089,5.54286935 2.07673678,5.08863977 2.23104232,4.65558794 C2.28833104,4.49387599 2.42475993,4.37299315 2.59219287,4.33559044 C2.75947321,4.297619 2.9345251,4.34833436 3.0556003,4.46984706 L3.0556003,4.46984706 L5.10088493,6.51527893 L6.27942786,6.27957525 L6.51505793,5.10103232 L4.46982237,3.05589492 C4.34830552,2.93482218 4.29758948,2.75976798 4.33556575,2.5924875 C4.37291453,2.42507575 4.49374477,2.28864344 4.65541602,2.23133695 C5.08851693,2.07695779 5.54279558,2.00024673 5.9970497,2.00024673 C7.01954478,1.99978048 8.04763491,2.3908449 8.82556748,3.16882656 C9.60350005,3.94675913 9.99458902,4.97480017 9.9941473,5.99724617 C9.99400585,6.34595873 9.94833596,6.6931604 9.8582956,7.03004792 L9.8582956,7.03004792 L10.3534328,7.52513607 L12.0697139,5.80885501 L12.0697139,4.60172333 C12.0699718,4.42584614 12.162381,4.26296814 12.3132212,4.17252423 L12.3132212,4.17252423 Z M8.1413765,9.94568816 C8.05950598,9.94600613 7.9797635,9.96480812 7.90782268,10.0024999 C7.88228939,10.0350709 7.85231386,10.0605096 7.81929313,10.0823431 L7.81929313,10.0823431 L7.75220163,10.1266372 L3.14529285,14.733546 C3.04845925,14.8305514 3.00058232,14.9561455 2.99996883,15.0870893 C3.00058232,15.2179349 3.04845925,15.3434308 3.14534193,15.4404853 L3.14534193,15.4404853 L4.55939223,16.854781 C4.65644668,16.9516391 4.78204079,16.9994915 4.91298455,17.0000314 C5.04387924,16.9994669 5.16952243,16.9516391 5.26657688,16.854781 L5.26657688,16.854781 L9.87338751,12.2477986 L9.91773072,12.1807561 C9.93955292,12.1477299 9.96498312,12.1177496 9.9933395,12.0912277 C10.0350148,12.0210046 10.0540133,11.9408933 10.0543677,11.8586728 C10.0538769,11.7277781 10.0059754,11.6021349 9.90916637,11.5051295 L9.90916637,11.5051295 L8.49496883,10.090932 C8.3978653,9.99402476 8.27222211,9.94617237 8.1413765,9.94568816 Z M11.768,10.354 L10.9095329,11.213818 C11.0062282,11.4177672 11.0545937,11.6391009 11.0543122,11.8586728 C11.0545471,12.0331498 11.024052,12.2087447 10.962986,12.3758588 L12.888137,14.3025555 C12.9990632,14.4132229 13.0515454,14.5695791 13.0298536,14.7247608 C13.012136,14.8479009 12.9993508,14.9364401 12.9998907,15.000047 C13.001952,16.1020016 13.8979941,16.9980436 14.9999241,17.0000314 C16.1018296,16.9980191 16.9979208,16.101977 16.9999085,15.000047 C16.9978963,13.898166 16.1018296,13.0020994 14.9999241,13.0000626 C14.9364645,12.9994491 14.8479744,13.012357 14.7240735,13.0300501 C14.5690354,13.0516538 14.412855,12.9991635 14.3023345,12.8883089 L14.3023345,12.8883089 L11.768,10.354 Z M14.999932,14.0001039 C15.552975,14.0014536 15.9985176,14.4470452 15.9998672,15.0001039 C15.9985176,15.553147 15.552975,15.9986895 14.999932,16.0000392 L14.999932,16.0000392 L14.883187,15.9930738 C14.3854838,15.9344921 14.0011852,15.5136439 13.999932,15.0001039 C14.0012816,14.4470452 14.4468732,14.0014536 14.999932,14.0001039 Z M8.14640714,11.1465802 C8.34169396,10.9512933 8.6582559,10.9512933 8.85354272,11.1465802 C9.04878046,11.3418179 9.04878046,11.6583798 8.85354272,11.8536667 L8.85354272,11.8536667 L4.85357398,15.8536354 C4.65826262,16.0488731 4.34172521,16.0488731 4.1464384,15.8536354 C3.95117612,15.6583486 3.95117612,15.3417866 4.1464384,15.1465489 L4.1464384,15.1465489 Z M9.555,9.737 L10.263,10.444 L11.4141607,9.29299956 C11.4160473,9.29111297 11.4179453,9.2892446 11.4198543,9.28739447 L13.6304624,7.07677148 C13.7244253,6.98330044 13.85147,6.93067306 13.9840057,6.93031863 L13.9840057,6.93031863 L15.1144018,6.93031863 L16.8706825,3.99218208 L16.0076954,3.12924404 L13.0697306,4.88537756 L13.0697306,6.01601903 C13.0693656,6.14855264 13.0167398,6.27559345 12.9232778,6.36956228 L12.9232778,6.36956228 L9.555,9.737 Z M5.9970497,3.00018984 C5.94495195,3.00018984 5.89359039,3.0107419 5.84154172,3.01339219 L5.84154172,3.01339219 L7.41132086,4.58307317 C7.52955108,4.70129134 7.58087162,4.87077895 7.54808053,5.03472609 L7.54808053,5.03472609 L7.19458636,6.80251595 C7.15518019,7.00054845 7.00037652,7.15535212 6.80234402,7.19475829 L6.80234402,7.19475829 L5.03455416,7.54830154 C4.87062586,7.58101201 4.70119041,7.52970169 4.58295032,7.41154187 L4.58295032,7.41154187 L3.01317118,5.84166457 C3.01047181,5.89361508 2.99996883,5.94502572 2.99996883,5.99707439 C3.00036146,6.76757144 3.29240826,7.53514826 3.8759129,8.11875107 C4.45919669,8.70205939 5.22667535,8.99405711 5.99697608,8.99444974 C6.33849489,8.99444974 6.6795229,8.93663425 7.00302957,8.8213468 C7.18493235,8.75664132 7.38783241,8.80234564 7.52442427,8.93879374 L7.52442427,8.93879374 L7.62411502,9.03705823 C7.79125671,8.97596556 7.96689036,8.94546437 8.14140104,8.94568816 C8.36097293,8.94540657 8.58229845,8.99378829 8.78626413,9.09052069 L9.646,8.232 L8.93862181,7.52454712 C8.82491506,7.41072057 8.77422482,7.25084666 8.7979319,7.09544939 L8.82117487,7.00315242 C8.93648686,6.6798666 8.99422874,6.33891221 8.99422874,5.99727071 C8.99381156,5.22696998 8.70171568,4.45934408 8.11848098,3.87593759 C7.53507449,3.29272743 6.76744859,3.00063155 5.9970497,3.00018984 Z"
                    id="形状结合" fill="currentColor"></path>
            </g>
        </g>
    </g>
</svg>