<?xml version="1.0" encoding="UTF-8"?>
<svg width="14px" height="14px" viewBox="0 0 14 14" version="1.1" xmlns="http://www.w3.org/2000/svg"
    xmlns:xlink="http://www.w3.org/1999/xlink">
    <title>形状结合</title>
    <g id="页面-1" stroke="none" stroke-width="1" fill="none" fill-rule="evenodd">
        <g id="平台切换" transform="translate(-942.000000, -167.000000)" fill="currentColor">
            <g id="编组-4" transform="translate(-40.000000, 64.000000)">
                <g id="位图备份-2" transform="translate(810.000000, 30.000000)">
                    <g id="编组-12" transform="translate(54.000000, 70.000000)">
                        <path
                            d="M126.015604,3.2754636 C126.027442,3.28672121 126.038995,3.29827431 126.050253,3.31011196 L131.689,9.239 C131.695775,9.24666859 131.701478,9.25251628 131.707107,9.25843511 C132.103245,9.6749843 132.103245,10.3289667 131.707107,10.7455159 L126.050253,16.693839 C125.678864,17.0843633 125.061212,17.0998759 124.670687,16.7284874 C124.65885,16.7172298 124.647297,16.7056767 124.636039,16.693839 C124.239901,16.2772898 124.239901,15.6233075 124.636039,15.2067583 L128.585,11.053 L119.051525,11.0535004 C118.470784,11.0535004 118,10.5827167 118,10.0019755 C118,9.42123433 118.470784,8.95045059 119.051525,8.95045059 L128.585,8.95 L124.636039,4.79719275 C124.239901,4.38064355 124.239901,3.72666116 124.636039,3.31011196 C125.007428,2.91958767 125.62508,2.90407507 126.015604,3.2754636 Z"
                            id="形状结合"></path>
                    </g>
                </g>
            </g>
        </g>
    </g>
</svg>