<?xml version="1.0" encoding="UTF-8"?>
<svg width="20px" height="20px" viewBox="0 0 20 20" version="1.1" xmlns="http://www.w3.org/2000/svg"
    xmlns:xlink="http://www.w3.org/1999/xlink">
    <title>KHCFDC_收藏</title>
    <g id="用户中心" stroke="none" stroke-width="1" fill="none" fill-rule="evenodd">
        <g id="中心切换" transform="translate(-30.000000, -801.000000)" fill-rule="nonzero">
            <g id="2备份-6" transform="translate(0.000000, 784.000000)">
                <g id="编组-14" transform="translate(5.000000, 0.000000)">
                    <g id="KHCFDC_收藏" transform="translate(25.000000, 17.000000)">
                        <rect id="矩形" fill="#000000" opacity="0" x="0" y="0" width="20" height="20"></rect>
                        <path
                            d="M3.40384615,17.5 L9.17307692,14.1538462 C9.86538462,13.6923077 10.7884615,13.6923077 11.4807692,14.1538462 L17.25,17.5 L17.25,3.30769231 C17.25,2.61538462 16.7884615,2.15384615 16.0961538,2.15384615 L4.55769231,2.15384615 C3.86538462,2.15384615 3.40384615,2.61538462 3.40384615,3.30769231 L3.40384615,17.5 Z M4.55769231,1 L16.0961538,1 C17.3653846,1 18.4038462,2.03846154 18.4038462,3.30769231 L18.4038462,18.4230769 C18.4038462,18.7692308 18.1730769,19 17.8269231,19 C17.7115385,19 17.5961538,19 17.5961538,18.8846154 L10.9038462,15.0769231 C10.5576923,14.8461538 10.0961538,14.8461538 9.75,15.0769231 L3.05769231,18.8846154 C2.82692308,19 2.48076923,19 2.25,18.6538462 L2.25,3.30769231 C2.25,2.03846154 3.28846154,1 4.55769231,1 Z"
                            id="形状" fill="currentColor"></path>
                        <path
                            d="M10.4749917,5.22410526 L11.3827731,7.15597012 L13.4646691,7.3772772 L12.0733055,8.96740701 L12.4685671,11.1413454 L10.4750403,10.1188656 L8.48151359,11.1413454 L8.87677513,8.96740701 L7.48540367,7.3772682 L9.56701529,7.15596997 L10.4749917,5.22410526 Z"
                            id="形状" stroke="currentColor"></path>
                    </g>
                </g>
            </g>
        </g>
    </g>
</svg>