<?xml version="1.0" encoding="UTF-8"?>
<svg width="14px" height="14px" viewBox="0 0 14 14" version="1.1" xmlns="http://www.w3.org/2000/svg" xmlns:xlink="http://www.w3.org/1999/xlink">
    <title>编组 12备份</title>
    <g id="用户中心" stroke="none" stroke-width="1" fill="none" fill-rule="evenodd">
        <g id="切图板板" transform="translate(-518.000000, -56.000000)" fill="#FF9B2A">
            <g id="编组-12备份" transform="translate(518.000000, 56.000000)">
                <circle id="形状结合" stroke="#FF9B2A" fill-opacity="0.1" cx="7" cy="7" r="6.5"></circle>
                <path d="M6.19293753,3.70551159 L5.492,5.12400014 L3.92593992,5.35258176 C3.73006659,5.38104382 3.54903842,5.47328229 3.41088067,5.61501756 L3.33151955,5.70820419 C3.06756462,6.0643722 3.10087392,6.56966731 3.42714788,6.88770581 L4.56,7.99200014 L4.29306391,9.55272134 C4.25960475,9.7478032 4.29138796,9.94847448 4.38349312,10.1236689 L4.44223417,10.2203319 C4.69789487,10.5872829 5.19280138,10.7149885 5.59891843,10.5014802 L7,9.76400014 L8.40108157,10.5014802 C8.57627601,10.5935853 8.77694728,10.6253685 8.97202915,10.5919094 L9.08211311,10.5659138 C9.5101077,10.4361602 9.78449754,10.0049393 9.70693609,9.55272134 L9.439,7.99200014 L10.5728521,6.88770581 C10.7145874,6.74954807 10.8068259,6.5685199 10.8352879,6.37264657 L10.8445825,6.25991743 C10.853437,5.8127743 10.5281127,5.41855948 10.0740601,5.35258176 L8.507,5.12400014 L7.80706247,3.70551159 C7.71946526,3.52802025 7.57580049,3.38435548 7.39830914,3.29675826 C6.95258085,3.07677819 6.41291759,3.25978329 6.19293753,3.70551159 Z" id="星形" fill-rule="nonzero"></path>
            </g>
        </g>
    </g>
</svg>