<?xml version="1.0" encoding="UTF-8"?>
<svg width="40px" height="40px" viewBox="0 0 40 40" version="1.1" xmlns="http://www.w3.org/2000/svg" xmlns:xlink="http://www.w3.org/1999/xlink">
    <title>编组</title>
    <g id="1" stroke="none" stroke-width="1" fill="none" fill-rule="evenodd">
        <g id="外框-反馈建议-确认" transform="translate(-840.000000, -464.000000)">
            <g id="编组-13备份-2" transform="translate(780.000000, 424.000000)">
                <g id="编组" transform="translate(60.000000, 40.000000)">
                    <rect id="矩形" x="0" y="0" width="40" height="40"></rect>
                    <path d="M20,15 C20.8284271,15 21.5,15.6715729 21.5,16.5 L21.5,25.5 C21.5,26.3284271 20.8284271,27 20,27 C19.1715729,27 18.5,26.3284271 18.5,25.5 L18.5,16.5 C18.5,15.6715729 19.1715729,15 20,15 Z M20,29 C20.8284271,29 21.5,29.6715729 21.5,30.5 C21.5,31.3284271 20.8284271,32 20,32 C19.1715729,32 18.5,31.3284271 18.5,30.5 C18.5,29.6715729 19.1715729,29 20,29 Z" id="形状结合" fill="#172339" fill-rule="nonzero"></path>
                    <path d="M19.5561227,2.6146718 C19.8924147,2.33739658 20.0291454,2.32953959 20.1511219,2.36821506 C20.2730984,2.40689053 20.3803207,2.49209847 20.4438773,2.6146718 L38.1539652,36.7698414 C38.1908401,36.8409573 38.210088,36.9198923 38.210088,37 C38.210088,37.1380712 38.1541235,37.2630712 38.0636413,37.3535534 C37.9731591,37.4440356 37.8481591,37.5 37.710088,37.5 L2.28991205,37.5 C2.2098044,37.5 2.1308694,37.4807522 2.05975347,37.4438773 C1.93718014,37.3803207 1.8519722,37.2730984 1.81329673,37.1511219 C1.77462125,37.0291454 1.78247825,36.8924147 1.84603478,36.7698414 Z" id="路径-2" stroke="#172339" stroke-width="3"></path>
                </g>
            </g>
        </g>
    </g>
</svg>