<?xml version="1.0" encoding="UTF-8"?>
<svg width="16px" height="16px" viewBox="0 0 16 16" version="1.1" xmlns="http://www.w3.org/2000/svg"
    xmlns:xlink="http://www.w3.org/1999/xlink">
    <title>icon_反馈建议</title>
    <g id="1" stroke="none" stroke-width="1" fill="none" fill-rule="evenodd">
        <g id="切图" transform="translate(-141.000000, -89.000000)" fill="currentColor" fill-rule="nonzero">
            <path
                d="M149,89 C152.54899,89 155.481115,91.641115 155.938108,95.0650796 C156.552943,95.2525952 157,95.8240898 157,96.5 L157,97.5 C157,98.255849 156.440945,98.8811237 155.713776,98.9848823 C154.994106,101.427118 152.976409,103.314049 150.458862,103.847761 C150.302691,104.508447 149.70875,105 149,105 C148.171573,105 147.5,104.328427 147.5,103.5 C147.5,102.671573 148.171573,102 149,102 C149.594518,102 150.108254,102.345872 150.350967,102.847375 C152.432018,102.368942 154.100557,100.806553 154.729707,98.785966 C154.291672,98.5237814 154,98.0459525 154,97.5 L154,96.5 C154,95.8715649 154.386461,95.3333926 154.93469,95.1101753 C154.504666,92.2185342 152.011416,90 149,90 C145.988584,90 143.495334,92.2185342 143.065503,95.1103504 C143.613539,95.3333926 144,95.8715649 144,96.5 L144,97.5 C144,98.3284271 143.328427,99 142.5,99 C141.671573,99 141,98.3284271 141,97.5 L141,96.5 C141,95.8240898 141.447057,95.2525952 142.061611,95.0650757 C142.518885,91.641115 145.45101,89 149,89 Z M149,91 C151.209139,91 153,92.790861 153,95 C153,97.209139 151.209139,101 149,101 C146.790861,101 145,97.209139 145,95 C145,92.790861 146.790861,91 149,91 Z M142.5,96 C142.223858,96 142,96.2238576 142,96.5 L142,97.5 C142,97.7761424 142.223858,98 142.5,98 C142.776142,98 143,97.7761424 143,97.5 L143,96.5 C143,96.2238576 142.776142,96 142.5,96 Z M155.5,96 C155.223858,96 155,96.2238576 155,96.5 L155,97.5 C155,97.7761424 155.223858,98 155.5,98 C155.776142,98 156,97.7761424 156,97.5 L156,96.5 C156,96.2238576 155.776142,96 155.5,96 Z"
                id="icon_反馈建议"></path>
        </g>
    </g>
</svg>