<?xml version="1.0" encoding="UTF-8"?>
<svg width="16px" height="16px" viewBox="0 0 16 16" version="1.1" xmlns="http://www.w3.org/2000/svg" xmlns:xlink="http://www.w3.org/1999/xlink">
    <g id="接新图编辑" stroke="none" stroke-width="1" fill="none" fill-rule="evenodd">
        <g id="切图板" transform="translate(-46.000000, -51.000000)">
            <g id="编组-41备份-3" transform="translate(46.000000, 51.000000)">
                <g id="编组-42">
                    <rect id="矩形" fill="#D8D8D8" opacity="0" x="0" y="0" width="16" height="16"></rect>
                    <path d="M8.6878316,1.5 L8.83123777,1.50604366 C9.4475205,1.55846012 9.99211355,1.94809316 10.2441546,2.52917134 L10.2441546,2.52917134 L10.3544571,2.58654968 L10.5021873,2.56273423 C10.8971371,2.51738563 11.2970341,2.61668721 11.6281144,2.84566257 C11.8105067,2.9712456 11.9670812,3.1312626 12.0893713,3.31702157 C12.2105265,3.50007173 12.2965888,3.70434367 12.3432077,3.91941574 C12.3906494,4.1355245 12.396776,4.3585846 12.3613112,4.57677613 L12.3613112,4.57677613 L12.3587485,4.59399201 L12.4479652,4.70721893 L12.6087472,4.72875255 C12.9269311,4.78741546 13.2227758,4.93872034 13.4592146,5.16588846 C13.7792413,5.47403006 13.971583,5.89426733 13.9970076,6.3411264 C14.0099684,6.56236338 13.9807446,6.78388818 13.9109494,6.99373563 L13.9109494,6.99373563 L12.4946142,11.6822118 L12.415971,11.9081614 C11.8231949,13.4641751 10.34493,14.5 8.68717629,14.5 C7.6381864,14.5 6.55877133,14.1362034 5.71857107,13.4995981 L5.71857107,13.4995981 L5.57115964,13.3972839 C5.54491784,13.3780156 5.51779776,13.3575947 5.48973691,13.3359545 L5.48973691,13.3359545 L5.3095824,13.1909466 L5.1038492,13.013467 L4.86953731,12.8003088 L4.45792198,12.4066579 L4.13903844,12.0902711 L3.50384476,11.4412305 L2.99990425,10.9122089 L2.52516937,10.4028826 C2.16083579,10.0276714 1.97174686,9.51558775 2.00342644,8.9924714 C2.03173116,8.50800634 2.24051201,8.04543473 2.59217855,7.68926524 C2.9666721,7.31010442 3.45104455,7.10176087 3.95599087,7.10176087 C4.32937018,7.10183895 4.69373194,7.21831111 4.99964648,7.43541089 L4.99964648,7.43541089 L5.15428765,7.34271687 L4.81508904,4.51451514 L4.8030351,4.34309451 C4.79938698,4.1714863 4.82090804,3.9999469 4.86716415,3.83416017 C4.92569366,3.62192473 5.02294171,3.4230187 5.15391014,3.24752144 C5.28649956,3.06864168 5.45178943,2.91773794 5.64081953,2.80289184 C6.04693114,2.55555934 6.53750097,2.49495426 6.99020278,2.63611719 L6.99020278,2.63611719 L7.11076003,2.57861882 L7.18379092,2.41938918 C7.47658612,1.85735476 8.05367301,1.5002327 8.6878316,1.5 L8.6878316,1.5 Z M8.68791247,2.44242995 C8.48286625,2.44218985 8.28618182,2.52450565 8.1411965,2.67117206 L8.1411965,2.67117206 L8.07415316,2.74857283 C7.97150201,2.88414964 7.91497776,3.05091728 7.91490155,3.22357438 L7.91490155,3.22357438 L7.74574124,7.04597511 L7.25141667,4.11150809 C7.16559559,3.76522874 6.85417354,3.50444635 6.49885297,3.50444635 C6.46905021,3.50446588 6.43934001,3.5062958 6.40981896,3.50992615 C5.9892094,3.56177161 5.68473587,3.97043197 5.73636843,4.40118444 L5.73636843,4.40118444 L6.25499488,8.73011512 C6.29172628,9.09003038 6.28600882,9.3153538 6.22210422,9.39176445 C6.15835269,9.47075235 6.06474091,9.51569316 5.96599972,9.51564217 C5.84922823,9.51564215 5.72311795,9.4567352 5.60834109,9.34056023 L5.60834109,9.34056023 L4.60575105,8.32438902 L4.51141611,8.23993498 C4.34814248,8.1113789 4.15602197,8.04421135 3.95600675,8.04421135 C3.69952812,8.04421135 3.44693675,8.15522249 3.24810413,8.35668788 C2.84993049,8.7599694 2.81471071,9.36478856 3.19577892,9.75055296 L3.19577892,9.75055296 L3.63424596,10.2210713 L4.30476395,10.923528 L4.63546899,11.2616867 L4.93456974,11.5615939 L5.09543186,11.7200441 L5.39381092,12.0072255 L5.65975012,12.2530945 L5.89167395,12.4556257 L6.08800689,12.6127943 C6.14734433,12.6573984 6.20048737,12.6941045 6.24717342,12.7225752 C6.92334609,13.2487655 7.82221268,13.5575493 8.68779562,13.5575493 C10.0166527,13.5575493 11.1943612,12.691354 11.6057656,11.4117273 L11.6057656,11.4117273 L11.6105356,11.3792401 L11.6206349,11.3606974 L13.0280012,6.7014477 L13.0545197,6.60735704 C13.1360759,6.22795701 12.927036,5.82049883 12.5576859,5.68702304 C12.4787476,5.65849491 12.3955426,5.64392843 12.3117155,5.6439648 L12.3117155,5.6439648 L12.2039709,5.65189611 C11.9203398,5.69377163 11.6710047,5.89805118 11.571044,6.18316571 L11.571044,6.18316571 L10.9920292,7.75112376 L11.4442395,4.43172916 L11.4554622,4.33434191 C11.4757979,3.94583158 11.2063051,3.57749805 10.8209069,3.5069965 C10.7777114,3.49907922 10.7338672,3.49509494 10.6899343,3.49509785 L10.6899343,3.49509785 L10.5899137,3.50201055 C10.2612007,3.54761868 9.98480299,3.81411991 9.92343191,4.15856296 L9.92343191,4.15856296 L9.47,6.697 L9.46003814,3.22331137 L9.45333091,3.12079903 C9.43114654,2.95175763 9.35462066,2.79347488 9.23405384,2.67139224 C9.08926789,2.52478599 8.89277698,2.44242995 8.68791247,2.44242995 Z" id="形状结合" fill="#191c26" fill-rule="nonzero"></path>
                </g>
                <g id="小手备份" transform="translate(2.000000, 1.500000)"></g>
            </g>
        </g>
    </g>
</svg>