<?xml version="1.0" encoding="UTF-8"?>
<svg width="14px" height="14px" viewBox="0 0 14 14" version="1.1" xmlns="http://www.w3.org/2000/svg" xmlns:xlink="http://www.w3.org/1999/xlink">
    <title>编组</title>
    <g id="页面-1" stroke="none" stroke-width="1" fill="none" fill-rule="evenodd">
        <g id="接线图-文本框" transform="translate(-424.000000, -129.000000)">
            <g id="编组-9-+-编组-9备份-12-+-编组-9备份-2-+-编组-9备份-6-+-编组-9备份-+-编组-9备份-8-+-编组-9备份-9-+-编组-9备份-7-+-编组-9备份-4-+-编组-9备份-5-+-编组-9备份-3-+-编组-9备份-10-+-编组-9备份-11-+-编组-9备份-13-+-矩形-+-编组-23-+-编组-5-+-编组-10蒙版" transform="translate(210.000000, 109.000000)">
                <g id="编组-36" transform="translate(20.000000, 10.000000)">
                    <g id="编组" transform="translate(194.000000, 10.000000)">
                        <rect id="矩形" x="0" y="0" width="14" height="14"></rect>
                        <path d="M7.32,5.42666667 L9.51999999,8.35999999 C9.65254833,8.53673111 9.61673111,8.78745166 9.43999999,8.92 C9.37076152,8.97192885 9.28654807,9 9.19999999,9 L4.80000001,9 C4.57908611,9 4.40000001,8.8209139 4.40000001,8.59999999 C4.40000001,8.51345191 4.42807116,8.42923846 4.48000001,8.35999999 L6.68,5.42666667 C6.81254834,5.24993555 7.06326888,5.21411833 7.24,5.34666667 C7.27032227,5.36940837 7.2972583,5.39634441 7.32,5.42666667 Z" id="三角形" fill="#191C26" transform="translate(7.000000, 7.000000) scale(1, -1) translate(-7.000000, -7.000000) "></path>
                    </g>
                </g>
            </g>
        </g>
    </g>
</svg>