<?xml version="1.0" encoding="UTF-8"?>
<svg width="16px" height="17px" viewBox="0 0 16 17" version="1.1" xmlns="http://www.w3.org/2000/svg" xmlns:xlink="http://www.w3.org/1999/xlink">
    <title>眼睛</title>
    <g id="页面-1备份" stroke="none" stroke-width="1" fill="none" fill-rule="evenodd">
        <g id="接线图-画布" transform="translate(-1284.000000, -188.000000)">
            <g id="编组-9-+-编组-9备份-12-+-编组-9备份-2-+-编组-9备份-6-+-编组-9备份-+-编组-9备份-8-+-编组-9备份-9-+-编组-9备份-7-+-编组-9备份-4-+-编组-9备份-5-+-编组-9备份-3-+-编组-9备份-10-+-编组-9备份-11-+-编组-9备份-13-+-矩形-+-编组-23-+-编组-5-+-编组-10蒙版" transform="translate(200.000000, 109.000000)">
                <g id="眼睛" transform="translate(1084.000000, 79.261223)">
                    <rect id="矩形" fill="#000000" fill-rule="nonzero" opacity="0" x="0" y="0" width="16" height="16"></rect>
                    <g id="编组-48" transform="translate(0.666664, 3.276018)" fill="#191C26" stroke="#191C26" stroke-width="0.2">
                        <g id="编组-47">
                            <path d="M4.27471247,8.91792837 L4.86432143,8.32831941 C5.60134558,8.54942493 6.48576766,8.69682285 7.37018974,8.69682285 C10.1708539,8.69682285 12.3082188,7.51758766 13.8559574,5.01173662 C13.0452256,3.75879383 12.0871132,2.80068143 10.9815856,2.21105519 L11.497487,1.69515383 C12.7504298,2.43216071 13.7822498,3.53768831 14.6666719,5.01173662 C12.9715353,7.9597987 10.465667,9.43384701 7.29648214,9.43384701 C6.26466214,9.50753733 5.23284214,9.28643181 4.27471247,8.91792837 Z" id="路径"></path>
                            <path d="M2.28476279,7.81240078 C1.40034071,7.14908422 0.663316558,6.19095454 0,5.08542695 C1.69515383,2.13736487 4.20100487,0.663316558 7.37018974,0.663316558 C8.03350629,0.663316558 8.69682285,0.737024156 9.28643181,0.884422077 L8.69682285,1.47404831 C8.25461181,1.40034071 7.88610837,1.40034071 7.37018974,1.40034071 C4.56952558,1.40034071 2.43216071,2.57957591 0.884422077,5.08542695 C1.47404831,5.96984902 2.13736487,6.70687318 2.87437175,7.29648214 L2.28476279,7.81240078 Z" id="路径"></path>
                            <path d="M6.26466214,7.0016863 L6.78058078,6.48576766 C6.9279787,6.55947526 7.14908422,6.55947526 7.29648214,6.55947526 C8.10721389,6.55947526 8.77053045,5.8961587 8.77053045,5.08542695 C8.77053045,4.86432143 8.77053045,4.7169235 8.69682285,4.56952558 L9.21274149,4.05360695 C9.43384701,4.34842006 9.50753733,4.7169235 9.50753733,5.15913454 C9.50753733,6.41206006 8.54942493,7.37018974 7.29648214,7.37018974 C7.0016863,7.29648214 6.63316558,7.14908422 6.26466214,7.0016863 L6.26466214,7.0016863 Z" id="路径"></path>
                            <path d="M5.15913454,4.93802902 C5.23284214,3.75879383 6.11726422,2.87437175 7.29648214,2.80068143 C7.29648214,2.87437175 5.15913454,4.93802902 5.15913454,4.93802902 Z" id="路径"></path>
                            <path d="M11.2290279,0.0514742863 C11.2359343,0.0551465961 11.2429298,0.0589017973 11.2500162,0.0627413475 C11.6588294,0.284245542 11.6674887,0.405973609 11.6674878,0.515918209 C11.6674868,0.634872132 11.6221068,0.753825675 11.5313482,0.844584314 L11.5313482,0.844584314 L3.22207764,9.15385488 C3.12552764,9.25040488 2.99981605,9.30125784 2.87255256,9.30549459 C2.74528907,9.30973134 2.61647367,9.26735189 2.51371603,9.17743708 C2.41708822,9.09288597 2.36387926,8.97717316 2.35596503,8.85844116 C2.3480508,8.73970916 2.3854313,8.61795799 2.47481727,8.51618335 L2.47481727,8.51618335 L10.8732513,0.185878857 C11.2113842,0.0506833507 11.2201822,0.0509491623 11.2290279,0.0514742863 Z" id="路径"></path>
                        </g>
                    </g>
                </g>
            </g>
        </g>
    </g>
</svg>