<?xml version="1.0" encoding="UTF-8"?>
<svg width="17px" height="17px" viewBox="0 0 17 17" version="1.1" xmlns="http://www.w3.org/2000/svg" xmlns:xlink="http://www.w3.org/1999/xlink">
    <title>关联</title>
    <g id="页面-1" stroke="none" stroke-width="1" fill="none" fill-rule="evenodd">
        <g id="关联" transform="translate(0.694558, 0.220523)" fill-rule="nonzero">
            <rect id="矩形" fill="#FFFFFF" opacity="0" x="0" y="0" width="16" height="16"></rect>
            <path d="M10.1109375,8.83281248 C9.7625,8.83281248 9.4125,8.7 9.146875,8.434375 C9.040625,8.328125 9.040625,8.15625 9.146875,8.05156248 C9.253125,7.94531248 9.425,7.94531248 9.52968752,8.05156248 C9.85,8.371875 10.3703125,8.37031248 10.6890625,8.05156248 L13.46875,5.37031252 C13.6203125,5.21875 13.7046875,5.0125 13.7046875,4.79375 C13.7046875,4.575 13.61875,4.36875 13.4640625,4.21406252 L11.8390625,2.5890625 C11.51875,2.26875 10.9984375,2.26875 10.6796875,2.5890625 L7.903125,5.27031252 C7.5875,5.58593752 7.5875,6.10625 7.90625,6.42656252 C8.0125,6.53281252 8.0125,6.70468752 7.90625,6.809375 C7.8,6.915625 7.628125,6.915625 7.52343752,6.809375 C6.99218752,6.278125 6.99218752,5.41406252 7.52343752,4.88281252 L10.303125,2.203125 C10.83125,1.675 11.6953125,1.675 12.225,2.20625 L13.85,3.83125 C14.1078125,4.08906252 14.2484375,4.42968752 14.2484375,4.79375 C14.2484375,5.15781252 14.10625,5.5 13.85,5.75625 L11.0703125,8.4375 C10.80625,8.70156248 10.459375,8.83281248 10.1109375,8.83281248 Z M4.77031248,14.2734375 C4.421875,14.2734375 4.071875,14.140625 3.80625,13.875 L2.18125,12.25 C1.9234375,11.9921875 1.7828125,11.6515625 1.7828125,11.2875 C1.7828125,10.9234375 1.925,10.58125 2.18125,10.325 L4.915625,7.64531248 C5.44531248,7.115625 6.309375,7.115625 6.83906252,7.646875 C6.94531252,7.753125 6.94531252,7.925 6.83906252,8.02968752 C6.73281252,8.13593752 6.56093752,8.13593752 6.45625,8.02968752 C6.13593752,7.709375 5.615625,7.709375 5.296875,8.02968752 L2.5625,10.709375 C2.409375,10.8625 2.325,11.06875 2.325,11.2875 C2.325,11.50625 2.4109375,11.7125 2.565625,11.8671875 L4.190625,13.4921875 C4.51093752,13.8125 5.03125,13.8109375 5.35,13.4921875 L8.084375,10.8125 C8.40156252,10.4953125 8.40156252,9.975 8.08281252,9.65468752 C7.97656252,9.54843752 7.97656252,9.37656252 8.08281252,9.271875 C8.18906248,9.165625 8.36093752,9.165625 8.465625,9.271875 C8.996875,9.803125 8.996875,10.6671875 8.465625,11.1984375 L5.73125,13.878125 C5.465625,14.140625 5.11718752,14.2734375 4.77031252,14.2734375 L4.77031248,14.2734375 Z M5.3125,11.015625 C5.24375,11.015625 5.17343752,10.9890625 5.12031252,10.9359375 C5.01406248,10.8296875 5.01406248,10.6578125 5.12031252,10.553125 L10.4015625,5.271875 C10.5078125,5.165625 10.6796875,5.165625 10.784375,5.271875 C10.890625,5.378125 10.890625,5.55 10.784375,5.65468752 L5.503125,10.9359375 C5.45,10.9890625 5.38125,11.015625 5.3125,11.015625 Z" id="形状" stroke="#191C26" stroke-width="0.5" fill="#191C26"></path>
        </g>
    </g>
</svg>