<?xml version="1.0" encoding="UTF-8"?>
<svg width="16px" height="16px" viewBox="0 0 16 16" version="1.1" xmlns="http://www.w3.org/2000/svg" xmlns:xlink="http://www.w3.org/1999/xlink">
    <g id="接新图编辑" stroke="none" stroke-width="1" fill="none" fill-rule="evenodd">
        <g id="切图板" transform="translate(-20.000000, -51.000000)">
            <g id="编组-19" transform="translate(20.000000, 51.000000)">
                <rect id="矩形" fill="#D8D8D8" opacity="0" x="0" y="0" width="16" height="16"></rect>
                <g id="24gl-pointer" transform="translate(4.000000, 1.991448)" fill-rule="nonzero" stroke="#191c26" stroke-linejoin="round">
                    <path d="M2.65121262,7.53034369 C2.66863311,7.53031234 2.68603279,7.53152477 2.70327346,7.53397134 C2.81593829,7.54961972 2.91500017,7.61516899 2.97190742,7.71172651 L5.47082794,11.9529104 C5.52192704,12.0396357 5.63508344,12.0693731 5.72361227,12.0193419 L7.9680131,10.7496621 C8.01054718,10.7256159 8.04158747,10.6859941 8.05430221,10.6395171 C8.06701696,10.5930402 8.06036411,10.5435172 8.03580789,10.5018478 L5.53688737,6.26066392 C5.4799818,6.16408599 5.47157091,6.04722774 5.51407954,5.94377935 C5.55658818,5.84033095 5.64529188,5.76178983 5.7546174,5.73079934 L8.94860802,4.82467876 L-0.00308059265,-0.239529697 L-0.00308059265,9.88900059 L2.39484189,7.63146461 C2.46377451,7.56659431 2.5556388,7.53036007 2.65121262,7.53034369 Z" id="形状"></path>
                </g>
            </g>
        </g>
    </g>
</svg>