<?xml version="1.0" encoding="UTF-8"?>
<svg width="16px" height="16px" viewBox="0 0 16 16" version="1.1" xmlns="http://www.w3.org/2000/svg" xmlns:xlink="http://www.w3.org/1999/xlink">
    <g id="接新图编辑" stroke="none" stroke-width="1" fill="none" fill-rule="evenodd">
        <g id="切图板" transform="translate(-20.000000, -23.000000)">
            <g id="编组-8" transform="translate(20.000000, 23.000000)">
                <rect id="矩形" fill="#D8D8D8" opacity="0" x="0" y="0" width="16" height="16"></rect>
                <g id="文本框_复制" transform="translate(1.000000, 1.000000)" fill="#191c26" fill-rule="nonzero">
                    <path d="M11.7440938,6.6263538e-06 C12.986704,-0.00298072407 13.9954817,1.00450239 13.9954817,2.245518 L13.9954817,2.245518 L13.9999851,11.7455 C14.0029763,12.9865156 12.9941986,13.9939987 11.7515884,13.9939987 L11.7515884,13.9939987 L2.2573869,13.9999934 C1.01477669,14.0029807 0.00599904444,12.9954976 0.00599904444,11.754482 L0.00599904444,11.754482 L1.66702015e-06,2.25450002 C-0.00149558891,1.01348441 1.00578313,0.00600129482 2.24989227,0.00600129482 L2.24989227,0.00600129482 Z M11.7455927,0.982047347 L2.2513912,0.98803536 C1.55289137,0.98803536 0.98479816,1.55539955 0.98479816,2.25300302 L0.98479816,2.25300302 L0.990793867,11.752985 C0.990793867,12.4505885 1.55888707,13.0179527 2.2573869,13.0179527 L2.2573869,13.0179527 L11.7515884,13.0104676 C12.4485893,13.0104676 13.0166825,12.4446004 13.0181815,11.746997 L13.0181815,11.746997 L13.0121858,2.24701501 C13.0121858,1.54941154 12.4440926,0.982047347 11.7455927,0.982047347 L11.7455927,0.982047347 Z M10.2556596,3.03892967 C10.5284643,3.03892967 10.7488065,3.25898913 10.7488065,3.53144371 L10.7488065,3.53144371 C10.7488065,3.53743172 10.7488065,3.53743172 10.7518043,3.54042573 L10.7518043,3.54042573 L10.7518043,4.70210017 C10.7518043,4.97455474 10.5314621,5.1946142 10.2586575,5.1946142 C9.98585281,5.1946142 9.76551059,4.97455474 9.76551059,4.70210017 L9.76551059,4.70210017 L9.76551059,4.02395774 L7.49013991,4.02545475 L7.49463669,9.97454525 L8.25159466,9.97454525 C8.52439931,9.97454525 8.74474153,10.1946047 8.74474153,10.4670593 C8.74474153,10.7395139 8.52439931,10.9595733 8.25159466,10.9595733 L8.25159466,10.9595733 L5.75138497,10.9610703 C5.47858032,10.9610703 5.2582381,10.7410109 5.2582381,10.4685563 C5.2582381,10.1961017 5.47858032,9.97604226 5.75138497,9.97604226 L5.75138497,9.97604226 L6.50834294,9.97604226 L6.50384616,4.02695175 L4.22847547,4.02844875 L4.22847547,4.70659118 C4.22847547,4.97904575 4.00813325,5.19910521 3.7353286,5.19910521 C3.46252395,5.19910521 3.24218172,4.97904575 3.24218172,4.70659118 L3.24218172,4.70659118 L3.24218172,3.53593472 C3.24218172,3.26348014 3.46252395,3.04342068 3.7353286,3.04342068 L3.7353286,3.04342068 Z" id="形状结合"></path>
                </g>
            </g>
        </g>
    </g>
</svg>