<?xml version="1.0" encoding="UTF-8"?>
<svg width="32px" height="32px" viewBox="0 0 32 32" version="1.1" xmlns="http://www.w3.org/2000/svg" xmlns:xlink="http://www.w3.org/1999/xlink">
    <title>logo</title>
    <g id="用户中心" stroke="none" stroke-width="1" fill="none" fill-rule="evenodd">
        <g id="缩起来" transform="translate(-12.000000, -16.000000)">
            <g id="编组-2备份-2" transform="translate(12.000000, 16.000000)">
                <rect id="矩形" fill="#2373FF" fill-rule="nonzero" x="0" y="0" width="32" height="32" rx="6"></rect>
                <g id="w" transform="translate(7.555556, 8.888889)"></g>
                <g id="编组-4" transform="translate(5.255818, 6.385027)" fill="#FFFFFF" fill-rule="nonzero">
                    <path d="M21.4494277,17.2824271 L21.4454936,17.3739016 C21.4449908,17.3819583 21.4444472,17.3900039 21.4438628,17.3980382 C21.4428708,17.4111807 21.4417209,17.4252251 21.4404442,17.4392608 C21.4364905,17.4834023 21.4313763,17.5263497 21.4251123,17.568923 C21.4226401,17.5848912 21.4201082,17.6009022 21.417409,17.6168914 C21.412982,17.6439361 21.4080101,17.6705597 21.4025903,17.69702 C21.3966455,17.7253174 21.3902295,17.7539067 21.3832688,17.7823934 C21.3757432,17.8137393 21.3676688,17.8440262 21.3590071,17.8740642 C21.3510374,17.9013235 21.3425093,17.9290114 21.3334527,17.9565672 C21.3245663,17.9838128 21.3152311,18.0104926 21.30543,18.0369462 C21.2982144,18.0563605 21.2906618,18.0759689 21.2828336,18.0954948 C21.220196,18.2514173 21.1413,18.3988849 21.0482016,18.5359246 C21.0371886,18.5523647 21.0254469,18.5691677 21.0134571,18.5858506 C20.9910324,18.6168772 20.9684101,18.6468137 20.9450954,18.6761757 C20.9359198,18.6878066 20.9264557,18.6994839 20.9168617,18.7110917 C20.8919417,18.741212 20.8665312,18.7704671 20.8404183,18.7990699 C20.8296257,18.8108766 20.8189744,18.8223094 20.8081863,18.8336619 L20.791891,18.8506402 C20.7712256,18.8719484 20.7501572,18.8928635 20.7286981,18.9133732 L20.8081863,18.8336619 C20.7644481,18.879689 20.7192796,18.9235396 20.672816,18.9652104 C20.6600863,18.9764812 20.6468182,18.988102 20.6334186,18.9995737 C20.5512656,19.0701755 20.465491,19.1338611 20.3766322,19.1909447 C20.3497331,19.2079348 20.3220316,19.2249424 20.2939559,19.2413799 C20.2689816,19.2562418 20.2441293,19.2701574 20.2190797,19.283585 C20.1936675,19.2970332 20.167859,19.3102802 20.141777,19.3230549 C20.1241888,19.3317722 20.1062089,19.340276 20.0881436,19.348538 C20.0578502,19.3623699 20.0271583,19.3756506 19.9961333,19.388283 C19.9774101,19.3958355 19.9590594,19.4030115 19.940637,19.4099472 C19.9103688,19.4214857 19.8792443,19.4324925 19.8478246,19.4428498 C19.8256789,19.4499444 19.8036838,19.456815 19.7816091,19.4633533 C19.7537961,19.4718352 19.7257742,19.4795814 19.697546,19.4868128 C19.6734044,19.4927322 19.6490559,19.4985496 19.624635,19.5039718 C19.6005729,19.5095814 19.5762597,19.5145733 19.5518118,19.5191838 C19.5233672,19.5243014 19.4950167,19.5291149 19.4665997,19.5334039 C19.4388432,19.5377937 19.4108122,19.5414925 19.382629,19.5446893 C19.3594786,19.5471744 19.3361219,19.5494879 19.3127396,19.5514505 C19.2478812,19.5569407 19.1826349,19.5596713 19.1167508,19.5596713 L19.2113932,19.5577528 C19.19202,19.5585374 19.1726378,19.559082 19.1532514,19.5593865 L19.1167508,19.5596713 C19.098629,19.5596713 19.0805554,19.5594647 19.0625323,19.5590538 C19.0376835,19.5584862 19.0130446,19.5575303 18.9884212,19.5561859 C18.9550378,19.554397 18.9215383,19.5518606 18.8882437,19.5486245 C18.869706,19.5467538 18.8507242,19.5446687 18.8317642,19.5423509 C18.8207272,19.5410948 18.8104186,19.5397663 18.8001313,19.5383707 L18.689381,19.5204775 C18.684356,19.5195463 18.6793334,19.5185984 18.6743132,19.5176339 C18.6408665,19.5113587 18.607806,19.5042544 18.5750138,19.496458 C18.5535857,19.4912166 18.5319672,19.4857528 18.5104135,19.4799743 C18.4900854,19.4746578 18.4699776,19.4689667 18.4499822,19.4630147 C18.4240941,19.4552053 18.3979277,19.4469268 18.3718821,19.4381744 L18.3503457,19.4308866 C18.2735992,19.4042091 18.1986753,19.3736372 18.1258103,19.3394073 C18.0711331,19.3138579 18.0168579,19.2857623 17.9635062,19.2553841 C17.9520727,19.2486991 17.9414686,19.2425417 17.9309177,19.2363035 C17.9108327,19.2246154 17.8900113,19.211874 17.8693475,19.1987747 C17.8422284,19.1813971 17.8163696,19.1642581 17.7908789,19.1466245 C17.7773672,19.1374279 17.7632419,19.1274239 17.7492027,19.1172434 C17.7170009,19.0937758 17.6857832,19.0699255 17.655199,19.0453198 C17.6499195,19.0411252 17.6449882,19.0371195 17.6400693,19.0330906 L17.6180533,19.0148026 C17.5859368,18.9878613 17.5545567,18.9600708 17.5239474,18.9314658 L17.5094269,18.9177735 L11.4406071,13.1507433 L11.3285092,13.0367939 C10.9699354,12.6467437 10.7676408,12.1623306 10.7237218,11.665776 C10.6810878,12.1601651 10.4789494,12.6426358 10.1215798,13.0313762 L10.0094818,13.1453256 L3.94066206,18.9123558 L3.842955,19.0001683 L3.842955,19.0001683 L3.78943983,19.0443363 L3.78943983,19.0443363 C3.76372871,19.0648417 3.73717819,19.0851665 3.71018724,19.1049253 C3.689244,19.1203841 3.66853119,19.1350377 3.64764159,19.1493124 C3.62769131,19.1627896 3.60706746,19.1764072 3.58621826,19.1897028 C3.5650784,19.2033518 3.54422402,19.2161857 3.52321909,19.2286599 C3.43378602,19.2816153 3.34037088,19.3289923 3.24361386,19.3700259 C3.22542164,19.3777639 3.20677369,19.3853768 3.18805147,19.3927375 C3.15478088,19.4058513 3.12101908,19.418255 3.08690161,19.4298905 C3.06813712,19.4361987 3.04989356,19.4421525 3.03159483,19.447875 C3.00166262,19.4573642 2.97085297,19.4663279 2.93978737,19.4746664 C2.90953203,19.482638 2.87926182,19.4901037 2.84888448,19.4969543 C2.82999428,19.5013681 2.81090915,19.5054218 2.79173936,19.5092406 C2.75223038,19.5169694 2.71246932,19.5238293 2.67259161,19.529654 C2.66210074,19.5313 2.65106034,19.5328301 2.63999553,19.5342826 C2.60452828,19.5388449 2.56953248,19.542645 2.53448549,19.5456548 C2.50997258,19.5477987 2.48522202,19.5495211 2.46036813,19.5508545 C2.4413697,19.551868 2.42206053,19.5526748 2.40274678,19.553243 C2.37957068,19.5539163 2.35649377,19.5542536 2.33333808,19.5542536 L2.29883561,19.5539993 L2.296,19.553 L2.22162165,19.5515813 L2.22162165,19.5515813 L2.243,19.552 C2.2059111,19.551047 2.17433698,19.5491329 2.14293843,19.5465972 C2.11763717,19.5444371 2.09194195,19.5419198 2.06628826,19.5389781 C2.03670304,19.5357656 2.00743399,19.5318621 1.97834168,19.5274214 C1.95646434,19.5238534 1.93445683,19.5201613 1.91249733,19.5161534 C1.88162324,19.5107746 1.85123361,19.5046007 1.82106471,19.4978426 C1.79972794,19.4927986 1.77804793,19.487619 1.75643297,19.4821261 C1.72386081,19.4740946 1.69217035,19.4652989 1.66075867,19.4558591 C1.64313105,19.4503533 1.6248,19.444614 1.60652942,19.438644 C1.5732905,19.4279386 1.54093057,19.4165253 1.50890657,19.4044277 C1.49102956,19.3975938 1.47267878,19.3904178 1.45440452,19.3830015 C1.42293066,19.370233 1.39223871,19.3569522 1.36189664,19.3430398 C1.34388001,19.3348583 1.32590013,19.3263545 1.30801067,19.3176091 C1.28222993,19.3048625 1.25642142,19.2916155 1.23089749,19.2779072 C1.20590899,19.2647126 1.18100685,19.2507678 1.15631711,19.2363333 C1.13843073,19.225598 1.12087719,19.2150072 1.10347641,19.2041938 L1.03505135,19.1603138 L1.03505135,19.1603138 L1.02501532,19.1532291 C0.940194901,19.095687 0.859363184,19.0327066 0.783021137,18.9647888 C0.777593994,18.9600965 0.772036859,18.9550986 0.766498435,18.9500694 L0.679191046,18.8665941 L0.641902577,18.8282442 L0.641902577,18.8282442 L0.61368626,18.7980395 L0.597,18.779 L0.573438418,18.7530391 C0.551263413,18.7276053 0.52973461,18.7018131 0.508851477,18.6756834 C0.479679336,18.6390721 0.451425381,18.6014234 0.424306953,18.5629175 C0.418559872,18.5549642 0.41295433,18.5469034 0.407405693,18.5388161 C0.31307766,18.4009949 0.233087215,18.2527152 0.169634596,18.0959714 C0.163230896,18.0801429 0.156987211,18.0641853 0.150926508,18.0481756 C0.118191567,17.9619128 0.0904961556,17.8733865 0.0680956306,17.782773 C0.0608223272,17.752745 0.0539576803,17.7223658 0.0477079261,17.6918891 C0.0424166264,17.6667912 0.0377284197,17.6418367 0.0334408365,17.6167454 C0.030538873,17.5989991 0.0277155378,17.5812769 0.0250972717,17.5635314 C0.0189536577,17.5225699 0.0139936705,17.4812887 0.0101256396,17.4396907 C0.00918633171,17.4290194 0.00826155697,17.4183375 0.00741018454,17.4076511 L0.00459530136,17.3684839 L4.75163092e-06,17.2209203 L4.75163092e-06,2.33333333 C4.75163092e-06,1.04466892 1.04467367,0 2.33333808,0 C3.57243849,0 4.58595133,0.965855138 4.66208087,2.18576966 L4.66667142,2.33333333 L4.666,11.784 L6.79483389,9.76245463 C7.72898792,8.8747541 9.20589285,8.91241212 10.0935934,9.84656616 C10.4704443,10.2431378 10.6805259,10.7375247 10.7260463,11.2431227 C10.7709515,10.7396801 10.9808883,10.2472466 11.3564955,9.85198385 C12.203846,8.96029136 13.5880543,8.88544752 14.5246125,9.65255523 L14.655255,9.76787232 L16.783,11.789 L16.7834175,2.33875102 L16.7880081,2.19118735 C16.8641376,0.971272827 17.8776504,0.00541768966 19.1167508,0.00541768966 C20.4054153,0.00541768966 21.4500842,1.05008661 21.4500842,2.33875102 L21.4500842,2.33875102 L21.4500423,17.2415019 C21.4499564,17.2551442 21.4497515,17.2687865 21.4494277,17.2824271 Z" id="形状结合"></path>
                </g>
            </g>
        </g>
    </g>
</svg>