<?xml version="1.0" encoding="UTF-8"?>
<svg width="120px" height="18px" viewBox="0 0 120 18" version="1.1" xmlns="http://www.w3.org/2000/svg" xmlns:xlink="http://www.w3.org/1999/xlink">
    <title>形状结合</title>
    <g id="星光版" stroke="none" stroke-width="1" fill="none" fill-rule="evenodd">
        <g id="编组" transform="translate(-40.000000, -23.000000)" fill="#FFFFFF">
            <path d="M160,31.844981 C160,30.7982671 159.163836,29.9493652 158.131733,29.9493652 L147.928764,29.9493652 C148.214834,28.1663234 149.735066,26.8040048 151.573207,26.8040048 L158.131733,26.8040048 C159.163836,26.8040048 160,25.955103 160,24.9083891 C160,23.8611781 159.163836,23.0125248 158.131733,23.0125248 L151.573207,23.0125248 C147.468066,23.0125248 144.140063,26.3892457 144.140063,30.5542326 L144.140063,33.4585407 C144.140063,37.6235276 147.468066,41 151.573207,41 L158.131733,41 C159.163836,41 160,40.1513466 160,39.1043842 C160,38.0576703 159.163836,37.2087685 158.131733,37.2087685 L151.573207,37.2087685 C149.625585,37.2087685 148.033591,35.6797013 147.890557,33.7405967 L158.131733,33.7405967 C159.163836,33.7405967 160,32.8919434 160,31.844981 M116.585335,33.4412942 C116.585335,35.5086287 114.927702,37.190528 112.890194,37.190528 L106.822492,37.190528 L106.822492,26.7892435 L112.890194,26.7892435 C114.927702,26.7892435 116.585335,28.4711427 116.585335,30.5387258 L116.585335,33.4412942 Z M112.890194,23 L103.064895,23.0094433 L103.064895,40.9772864 L103.192255,40.9772864 L103.192255,40.9797715 L112.890194,40.9797715 C116.987253,40.9797715 120.320154,37.5980804 120.320154,33.4412942 L120.320154,30.5387258 C120.320154,26.3819396 116.987253,23 112.890194,23 L112.890194,23 Z M48.2487348,32.070427 L48.2487348,32.070427 C48.2602462,33.1022305 49.0878383,33.9322458 50.1047553,33.9322458 L54.3330922,33.9322458 L54.3330922,37.1742756 L47.407672,37.1742756 C45.3731033,37.1742756 43.7237972,35.5005771 43.7237972,33.4362247 L43.7237972,30.542354 C43.7237972,28.4780016 45.3731033,26.804303 47.407672,26.804303 L56.1131867,26.804303 C57.1413701,26.804303 57.9750853,25.9588803 57.9750853,24.915397 C57.9750853,23.8719137 57.1413701,23.0264909 56.1131867,23.0264909 L47.407672,23.0264909 C43.3164915,23.0264909 40,26.391532 40,30.542354 L40,33.4362247 C40,37.5870467 43.3164915,40.9520877 47.407672,40.9520877 L54.3330922,40.9520877 L54.3330922,40.9543243 L58.045378,40.9543243 L58.045378,33.9322458 L58.045378,31.8380725 C58.045378,30.9146183 57.3074274,30.1656165 56.3970515,30.1656165 L50.1047553,30.1656165 C49.0711836,30.1656165 48.2367336,31.0219736 48.2487348,32.070427 M66.1447837,26.4721478 C64.7661166,26.4721478 63.6446179,27.610064 63.6446179,29.0089131 L63.6446179,34.9681248 C63.6446179,36.3667254 64.7661166,37.5046416 66.1447837,37.5046416 L73.3450066,37.5046416 C74.7234287,37.5046416 75.8451724,36.3667254 75.8451724,34.9681248 L75.8451724,29.0089131 C75.8451724,27.610064 74.7234287,26.4721478 73.3450066,26.4721478 L66.1447837,26.4721478 Z M73.3450066,40.9670976 L66.1447837,40.9670976 C62.8843794,40.9670976 60.2318719,38.2760091 60.2318719,34.9681248 L60.2318719,29.0089131 C60.2318719,25.7005318 62.8843794,23.0091948 66.1447837,23.0091948 L73.3450066,23.0091948 C76.605166,23.0091948 79.2576735,25.7005318 79.2576735,29.0089131 L79.2576735,34.9681248 C79.2576735,38.2760091 76.605166,40.9670976 73.3450066,40.9670976 L73.3450066,40.9670976 Z M87.3657005,26.4721478 C85.9870334,26.4721478 84.8655346,27.610064 84.8655346,29.0089131 L84.8655346,34.9681248 C84.8655346,36.3667254 85.9870334,37.5046416 87.3657005,37.5046416 L94.5659234,37.5046416 C95.9443455,37.5046416 97.0660892,36.3667254 97.0660892,34.9681248 L97.0660892,29.0089131 C97.0660892,27.610064 95.9443455,26.4721478 94.5659234,26.4721478 L87.3657005,26.4721478 Z M94.5659234,40.9670976 L87.3657005,40.9670976 C84.1052961,40.9670976 81.4527887,38.2760091 81.4527887,34.9681248 L81.4527887,29.0089131 C81.4527887,25.7005318 84.1052961,23.0091948 87.3657005,23.0091948 L94.5659234,23.0091948 C97.8260828,23.0091948 100.47859,25.7005318 100.47859,29.0089131 L100.47859,34.9681248 C100.47859,38.2760091 97.8260828,40.9670976 94.5659234,40.9670976 L94.5659234,40.9670976 Z M130.315797,31.4241085 C129.846281,31.4365339 129.411299,31.6313639 129.090206,31.9740558 L126.411492,34.800581 L126.411492,24.7621175 C126.411492,23.8013872 125.640967,23.0193339 124.693363,23.0193339 L124.624539,23.0193339 C123.67718,23.0193339 122.906655,23.8013872 122.906655,24.7621175 L122.906655,39.2026441 C122.906655,39.8306228 123.236565,40.380073 123.728369,40.6872284 C123.744534,40.6974172 123.760944,40.7068605 123.776619,40.7168008 C123.791804,40.725747 123.806744,40.7344448 123.821929,40.7428941 C124.093793,40.8974658 124.40215,40.9777337 124.723488,40.969533 C124.790597,40.9677934 124.856971,40.9623263 124.922855,40.9531315 C125.314975,40.8984598 125.674276,40.7128246 125.948589,40.4198342 L131.630049,34.424589 C131.951387,34.0816485 132.121853,33.6306073 132.110097,33.1544668 C132.098095,32.6780778 131.905587,32.2367283 131.567349,31.9106864 C131.229601,31.5848929 130.784823,31.4119317 130.315797,31.4241085 M139.803176,23.0192593 L139.734108,23.0192593 C138.787239,23.0192593 138.016224,23.8010642 138.016224,24.7622915 L138.016224,34.8007549 L135.33751,31.9737327 C135.016417,31.6315378 134.581435,31.4367079 134.111919,31.424034 C133.642893,31.4118571 133.198115,31.5848184 132.860367,31.9108603 C132.522129,32.2364053 132.32962,32.6782517 132.317864,33.1546407 C132.305863,33.6305327 132.476329,34.0818225 132.797667,34.424763 L138.479127,40.4195112 C138.75393,40.7129986 139.112741,40.8983853 139.504861,40.9530569 C139.570745,40.9625002 139.637119,40.9679674 139.704228,40.9694584 C140.025566,40.9779077 140.334413,40.8973912 140.605786,40.742571 C140.620972,40.7346188 140.635422,40.725921 140.650117,40.7169747 C140.666772,40.7070344 140.683427,40.6975911 140.699347,40.6869053 C141.19164,40.3799985 141.521061,39.8305482 141.521061,39.2025696 L141.521061,24.7622915 C141.521061,23.8010642 140.750536,23.0192593 139.803176,23.0192593" id="形状结合"></path>
        </g>
    </g>
</svg>