<?xml version="1.0" encoding="UTF-8"?>
<svg width="36px" height="36px" viewBox="0 0 36 36" version="1.1" xmlns="http://www.w3.org/2000/svg" xmlns:xlink="http://www.w3.org/1999/xlink">
    <title>logo</title>
    <defs>
        <linearGradient x1="0%" y1="0%" x2="100%" y2="100%" id="linearGradient-1">
            <stop stop-color="#7A68FF" offset="0%"></stop>
            <stop stop-color="#6F94FF" offset="21.0551387%"></stop>
            <stop stop-color="#7DBEFF" offset="75.82392%"></stop>
            <stop stop-color="#80FFF3" offset="100%"></stop>
        </linearGradient>
    </defs>
    <g id="页面-1" stroke="none" stroke-width="1" fill="none" fill-rule="evenodd">
        <g id="基本信息" transform="translate(-405.000000, -14.000000)" fill-rule="nonzero">
            <g id="logo" transform="translate(405.000000, 14.000000)">
                <rect id="矩形" fill="url(#linearGradient-1)" x="0" y="0" width="36" height="36" rx="6"></rect>
                <g id="编组-4" transform="translate(6.000005, 7.000000)" fill="#FFFFFF">
                    <path d="M23.9930338,19.5721782 L23.9830947,19.6799082 C23.9814752,19.694207 23.9797415,19.7084709 23.9778944,19.722699 C23.9743725,19.7489161 23.9704752,19.775676 23.9661657,19.802384 C23.9607814,19.8366744 23.9546976,19.87022 23.9479862,19.9035367 C23.9461845,19.9116418 23.9445321,19.9196459 23.9428423,19.9276439 C23.9329035,19.9754954 23.9215146,20.0228041 23.908871,20.0695933 C23.9038734,20.0875383 23.8988026,20.1055601 23.8935361,20.1235374 C23.8815127,20.1649675 23.8684697,20.2056682 23.8544789,20.2459217 C23.850235,20.2579508 23.845845,20.2703098 23.8413596,20.2826424 C23.8267969,20.3227162 23.8114695,20.3617898 23.7952499,20.400392 C23.7868573,20.420497 23.7778605,20.441208 23.7685841,20.4618252 C23.7545905,20.4926888 23.7403764,20.5226726 23.72562,20.5523363 C23.7147813,20.574428 23.7032868,20.5967576 23.6914506,20.6189549 C23.677695,20.6444125 23.6638403,20.6693769 23.6495963,20.694086 C23.6343807,20.7208203 23.6184331,20.7473953 23.6019731,20.773745 C23.5868524,20.7976488 23.5714176,20.8214957 23.5556121,20.8450707 C23.5411767,20.8668596 23.5260574,20.888682 23.510569,20.9103245 C23.489012,20.9402465 23.4675172,20.9690214 23.4454568,20.9973293 C23.4313945,21.0154756 23.4165749,21.0339654 23.4014681,21.0523003 C23.3276667,21.1418902 23.248209,21.2263743 23.1635378,21.3052823 L23.281785,21.1878697 C23.2289735,21.243749 23.1742981,21.2967769 23.1179493,21.3469485 C23.0955369,21.366714 23.0724534,21.3865378 23.0490273,21.4059588 C23.0265784,21.4248415 23.0039842,21.4429665 22.9811612,21.4606617 C22.9557436,21.4800401 22.9299467,21.4992747 22.9037911,21.5180363 C22.8827071,21.5335198 22.8610301,21.5485834 22.8391779,21.5632814 C22.818487,21.576845 22.7977539,21.5903669 22.7768208,21.6035983 C22.7496835,21.6210766 22.7223057,21.6376645 22.6946938,21.6537046 C22.6737844,21.6655786 22.6527426,21.6774294 22.6315236,21.6889931 C22.6064101,21.7028949 22.5807068,21.7163264 22.5548305,21.7293009 C22.5292396,21.7420033 22.5035935,21.7543649 22.4777197,21.7663137 C22.4527025,21.7779038 22.4276563,21.7889601 22.4024751,21.7996032 C22.374698,21.811397 22.3464449,21.8227908 22.3179529,21.8336974 C22.2951052,21.8423101 22.2721277,21.8507111 22.249058,21.8587781 C22.2202939,21.8690362 22.191356,21.8786098 22.1621996,21.8876835 C22.1373747,21.8951511 22.1126127,21.9024363 22.0877668,21.9093464 C22.0547234,21.9188324 22.0211112,21.9274747 21.9872452,21.9354541 C21.971002,21.938974 21.9555987,21.9424493 21.9401705,21.9457831 C21.8974697,21.9553222 21.8533692,21.9636774 21.8088923,21.9709028 C21.7975563,21.9724914 21.7865616,21.9742094 21.7755581,21.9758567 C21.7395354,21.9814691 21.7031545,21.9861153 21.6665481,21.9900009 C21.6440163,21.9922463 21.6213436,21.9943714 21.5986503,21.9961995 C21.5294542,22.0018273 21.4596914,22.0046302 21.3892776,22.0046302 L21.4928118,22.0025668 C21.4718234,22.0034025 21.4508258,22.0039851 21.4298238,22.0043144 L21.3892776,22.0046302 C21.3701201,22.0046302 21.3510107,22.0046302 21.3319517,22.0040099 C21.3097467,22.0035391 21.2866961,22.0027389 21.2636558,22.0016332 C21.2224343,21.9996703 21.1821485,21.9967999 21.1421254,21.993021 C21.1320796,21.9920005 21.1220525,21.99099 21.1120301,21.9899212 C21.0669081,21.9852189 21.0218742,21.979238 20.9772173,21.9721186 C20.9700837,21.9708362 20.9631087,21.9696922 20.9561375,21.9685196 L20.9024536,21.9590734 C20.8775145,21.954344 20.8527008,21.9492581 20.8280177,21.943821 C20.8093716,21.9395442 20.7904319,21.9351512 20.7715322,21.9305428 C20.7429151,21.9237268 20.7147955,21.9163556 20.6868647,21.9085291 C20.660904,21.9011211 20.6343096,21.8932247 20.6078187,21.8848927 C20.5831166,21.8772198 20.5594034,21.8693592 20.5358431,21.8611689 C20.5091616,21.8518412 20.4818712,21.8418636 20.4547164,21.8314119 C20.429195,21.821593 20.4040394,21.8114318 20.3790811,21.8008918 C20.3505843,21.7889128 20.321947,21.7762287 20.2934937,21.763 C20.201711,21.7201726 20.1128563,21.6722599 20.0272576,21.6195259 L20.0088239,21.608259 C19.9907703,21.5969273 19.9728223,21.5853517 19.9549844,21.5735321 C19.9279877,21.5554631 19.9014662,21.5371796 19.8753034,21.518423 C19.860482,21.5079374 19.8460666,21.4973659 19.8317341,21.4866267 C19.7993814,21.462289 19.7673584,21.4371368 19.7359463,21.4112627 C19.7324208,21.4084091 19.728508,21.4051654 19.7246022,21.4019084 L19.6968126,21.3783842 C19.6709994,21.3562653 19.6456199,21.3336498 19.6206889,21.3105523 L19.5908806,21.2824951 L12.8006209,14.7945862 L12.6751972,14.6663931 C12.2726124,14.2260718 12.0460941,13.6788581 11.9980122,13.1182121 C11.9521621,13.6769424 11.7258391,14.221659 11.3247922,14.6602982 L11.1993685,14.7884913 L4.40910878,21.2764002 L4.40299468,21.282 L4.40199468,21.282 L4.30699468,21.368 L4.29919297,21.3756961 L4.29919297,21.3756961 L4.25776373,21.4103806 L4.25776373,21.4103806 C4.22657269,21.4358596 4.19457461,21.4608411 4.16199583,21.4850786 C4.14986952,21.494239 4.13747024,21.5033046 4.1250116,21.5122464 C4.09852319,21.5310847 4.07200164,21.5493682 4.04513371,21.567166 C3.90554121,21.6598476 3.75934397,21.7373432 3.60859635,21.7999801 C3.58786272,21.8085916 3.5667227,21.8170684 3.54544872,21.8252734 L3.46341434,21.85525 L3.46341434,21.85525 C3.44058598,21.8632643 3.41687273,21.8711249 3.39301198,21.8786504 C3.36567974,21.8871298 3.33908541,21.8950262 3.31239868,21.9024871 C3.28617328,21.9099862 3.25904611,21.9171144 3.23175077,21.9238111 C3.20199461,21.9309357 3.17242671,21.9376349 3.14277545,21.9438107 C3.12059136,21.9486001 3.09818612,21.952958 3.07568072,21.9570258 C3.05262435,21.9610427 3.02931724,21.9649357 3.0059728,21.9685094 C2.96666156,21.9746446 2.92731323,21.9797356 2.8877008,21.9839359 C2.87793685,21.9848951 2.86790977,21.9859056 2.85787854,21.9868579 C2.81784089,21.990705 2.77755512,21.9935754 2.73702727,21.9955167 C2.71329328,21.996644 2.69024265,21.9974442 2.66718819,21.9979391 L2.63930549,21.998383 L2.63930549,21.998383 L2.61071178,21.9985353 L2.51575319,21.9968312 L2.51575319,21.9968312 L2.51099468,21.996 L2.42164839,21.9917574 L2.42164839,21.9917574 C2.3879179,21.9892036 2.35458645,21.9861308 2.32131551,21.9824168 C2.28890663,21.9789987 2.2565148,21.9747866 2.2243147,21.9699834 C2.2134278,21.9681145 2.20243309,21.9663965 2.19144791,21.9646079 C2.14662022,21.9575825 2.10251967,21.9492273 2.0588255,21.9397726 C2.04439064,21.9363544 2.02898739,21.9328791 2.01361115,21.9292625 L1.91192202,21.9034466 L1.91192202,21.9034466 L1.83794547,21.8813961 L1.83794547,21.8813961 C1.80863338,21.8725149 1.77969546,21.8629413 1.75098593,21.8528778 C1.72786171,21.8446162 1.70488417,21.8362152 1.68200627,21.8274806 C1.65354444,21.8166959 1.62529135,21.8053021 1.59728732,21.7934312 L1.53349725,21.7654257 L1.53349725,21.7654257 C1.49949516,21.7498599 1.46617798,21.7337875 1.4332615,21.7170347 C1.41474928,21.7077999 1.39637496,21.6981885 1.37809445,21.6883436 C1.35723425,21.676868 1.336278,21.6651871 1.31550092,21.6532272 C1.28319835,21.6349329 1.25150123,21.6157947 1.22013946,21.5959239 C1.20027473,21.5829923 1.18053153,21.5700971 1.16097493,21.5569433 C1.13895924,21.5424885 1.11728224,21.5274249 1.09578918,21.5119959 C1.0724702,21.4949211 1.04903737,21.4775115 1.02590902,21.4597219 C1.00057517,21.4405312 0.975670499,21.420622 0.951056683,21.4001921 C0.933344388,21.3852582 0.915920449,21.3704248 0.898694714,21.355368 L0.836450197,21.2992942 L0.836450197,21.2992942 L0.718204381,21.1817748 L0.633994684,21.087 L0.617994684,21.069 L0.614994684,21.066 L0.554062531,20.990742 L0.554062531,20.990742 C0.533963808,20.9648406 0.513886815,20.9380408 0.494315465,20.9108489 C0.478184439,20.8886422 0.462941092,20.8667719 0.44806942,20.8447281 C0.431220553,20.8194869 0.414427449,20.7936205 0.398081107,20.7674435 C0.382777788,20.7432559 0.367978497,20.7186685 0.353618132,20.6938991 C0.338404771,20.6673399 0.323388592,20.6403675 0.308837425,20.6131067 L0.274055069,20.5458788 C0.260419477,20.518199 0.246954286,20.4898704 0.233984831,20.4612668 C0.223597752,20.4384897 0.21384279,20.4160979 0.204414829,20.393603 C0.189206651,20.3573293 0.174492008,20.3199291 0.160618336,20.2821196 L0.152890175,20.26062 L0.152890175,20.26062 L0.145459691,20.2394716 C0.132200373,20.2015316 0.119747974,20.1628317 0.108176425,20.1237502 L0.0928567048,20.0693394 L0.0928567048,20.0693394 C0.0820528783,20.0302954 0.0722279524,19.9906732 0.0633095649,19.9507066 C0.0599712471,19.9349784 0.0566229931,19.9192988 0.0534190486,19.9035963 C0.0455629393,19.8658916 0.0386961724,19.8279984 0.0326476315,19.7898309 C0.0292654985,19.7676484 0.0260063035,19.7452868 0.0230347993,19.7228955 C0.0205234298,19.7047672 0.0183393031,19.6868303 0.0163360441,19.6688385 C0.00607963245,19.5762806 0.000628614113,19.4834386 -6.56435288e-16,19.3905947 L-6.56435288e-16,2.625 C-6.56435288e-16,1.17525253 1.16885548,0 2.61071178,0 C3.99711208,0 5.13110777,1.08658703 5.21628731,2.45899087 L5.22142357,2.625 L5.22099468,13.257 L7.6025745,10.9827615 C8.64777749,9.98409837 10.3002517,10.0264636 11.2934789,11.0773869 C11.7159982,11.5244501 11.9511527,12.08201 12.0014284,12.6520327 C12.0504902,12.0841912 12.2854746,11.5289755 12.7065105,11.0834818 C13.6583532,10.076347 15.2156502,9.99547468 16.2636932,10.8694431 L16.3974149,10.9888564 L18.7779947,13.263 L18.7785658,2.6310949 L18.7837021,2.46508577 C18.8688816,1.09268193 20.0028773,0.00609490086 21.3892776,0.00609490086 C22.8311339,0.00609490086 23.9999894,1.18134743 23.9999894,2.6310949 L23.9999894,2.6310949 L23.9999894,19.3966896 C23.9995758,19.4552216 23.9972737,19.5137529 23.9930338,19.5721782 Z" id="形状结合"></path>
                </g>
            </g>
        </g>
    </g>
</svg>