<?xml version="1.0" encoding="UTF-8"?>
<svg width="20px" height="20px" viewBox="0 0 20 20" version="1.1" xmlns="http://www.w3.org/2000/svg" xmlns:xlink="http://www.w3.org/1999/xlink">
    <title>接受</title>
    <g id="用户中心" stroke="none" stroke-width="1" fill="none" fill-rule="evenodd">
        <g id="切图板板" transform="translate(-499.000000, -221.000000)">
            <g id="接受" transform="translate(499.000000, 221.000000)">
                <rect id="矩形" fill="#000000" fill-rule="nonzero" opacity="0" x="0" y="0" width="20" height="20"></rect>
                <g id="编组-19" transform="translate(0.999533, 1.267865)">
                    <path d="M8.94997789,0 C13.8848094,0 17.8999558,4.01514639 17.8999558,8.94997789 C17.8999558,9.30471369 17.6123856,9.59228388 17.2576498,9.59228388 C16.902914,9.59228388 16.6153438,9.30471369 16.6153438,8.94997789 C16.6153438,4.72360984 13.1760593,1.28461198 8.94997789,1.28461198 C4.72389648,1.28461198 1.28461198,4.72360984 1.28461198,8.94997789 C1.28461198,13.1766623 4.72329344,16.6153438 8.94997789,16.6153438 C11.6088598,16.6238352 14.0801179,15.2459507 15.4707404,12.9795123 L15.5216855,12.895209 C15.5769183,12.8041256 15.6302119,12.7117908 15.681489,12.6183353 C15.8544113,12.3094943 16.2443328,12.1974845 16.5551782,12.3676727 C16.8648283,12.5399697 16.977029,12.9305558 16.8058649,13.2412239 L16.6882354,13.4487928 L16.563308,13.6564866 C14.9391521,16.3016415 12.0542137,17.9096939 8.95013403,17.900087 C4.01515488,17.900087 0,13.8848179 0,8.94997789 C0,4.01514639 4.01514639,0 8.94997789,0 Z" id="路径" fill="#191C26" fill-rule="nonzero"></path>
                    <polyline id="路径-2" stroke="#3B65EE" stroke-width="1.2" stroke-linecap="round" stroke-linejoin="round" points="5.89885114 9.64739697 8.66282894 11.7351888 13.1538747 6.76418926"></polyline>
                </g>
            </g>
        </g>
    </g>
</svg>