<?xml version="1.0" encoding="UTF-8"?>
<svg width="20px" height="20px" viewBox="0 0 20 20" version="1.1" xmlns="http://www.w3.org/2000/svg" xmlns:xlink="http://www.w3.org/1999/xlink">
    <title>授权</title>
    <g id="授权" stroke="none" stroke-width="1" fill="none" fill-rule="evenodd">
        <path d="M15.7952814,2.79710678 L17.2094949,4.21132034 C17.6000192,4.60184464 17.6000192,5.23500961 17.2094949,5.62553391 L16.541,6.29221356 L17.2055339,6.95690325 C17.5960582,7.34742754 17.5960582,7.98059252 17.2055339,8.37111682 L16.4984271,9.0782236 C16.1079028,9.46874789 15.4747379,9.46874789 15.0842136,9.0782236 L14.42,8.41421356 L13.856,8.97721356 L14.5655478,9.68720431 C14.9560721,10.0777286 14.9560721,10.7108936 14.5655478,11.1014179 L13.8584411,11.8085246 C13.4679168,12.1990489 12.8347518,12.1990489 12.4442275,11.8085246 L11.734,11.0992136 L10.3659079,12.4691418 C10.453381,12.7980295 10.5,13.1435705 10.5,13.5 C10.5,15.709139 8.709139,17.5 6.5,17.5 C4.290861,17.5 2.5,15.709139 2.5,13.5 C2.5,11.290861 4.290861,9.5 6.5,9.5 C6.8604099,9.5 7.2096868,9.54766606 7.54187051,9.63703798 L14.3810678,2.79710678 C14.7715921,2.40658249 15.4047571,2.40658249 15.7952814,2.79710678 Z M6.5,10.5 C4.84314575,10.5 3.5,11.8431458 3.5,13.5 C3.5,15.1568542 4.84314575,16.5 6.5,16.5 C8.15685425,16.5 9.5,15.1568542 9.5,13.5 L9.49490731,13.3237272 L9.47005365,13.074478 L9.47005365,13.074478 L9.43966448,12.8984029 C9.41823565,12.7931315 9.39129399,12.6898642 9.35915409,12.5889155 L9.28983893,12.3947378 L9.28983893,12.3947378 L9.26075112,12.3240382 L9.26075112,12.3240382 L9.19507655,12.180676 C8.89509218,11.5690304 8.39302256,11.0744789 7.77590905,10.7840629 L7.56322653,10.6938606 L7.56322653,10.6938606 C7.49391752,10.6675858 7.42338157,10.643805 7.35172825,10.6226278 L7.11011577,10.5620825 L7.11011577,10.5620825 L6.94835539,10.5332782 C6.85856769,10.519823 6.76747844,10.5103469 6.67527287,10.5050349 L6.5,10.5 Z M16.5023882,4.91842712 L15.0881746,3.50421356 L8.53702782,10.0568144 C9.11888302,10.4017893 9.6057812,10.8900545 9.94911005,11.4729979 L16.5023882,4.91842712 Z M13.149,9.68521356 L12.442,10.3922136 L13.1513343,11.1014179 L13.8584411,10.3943111 L13.149,9.68521356 Z M15.834,6.99921356 L15.127,7.70621356 L15.7913203,8.37111682 L16.4984271,7.66401003 L15.834,6.99921356 Z" id="形状" fill="#979797" fill-rule="nonzero"></path>
    </g>
</svg>