<?xml version="1.0" encoding="UTF-8"?>
<svg width="20px" height="20px" viewBox="0 0 20 20" version="1.1" xmlns="http://www.w3.org/2000/svg" xmlns:xlink="http://www.w3.org/1999/xlink">
    <title>复制</title>
    <g id="用户中心" stroke="none" stroke-width="1" fill="none" fill-rule="evenodd">
        <g id="切图板板" transform="translate(-686.000000, -157.000000)" fill-rule="nonzero">
            <g id="复制" transform="translate(686.000000, 157.000000)">
                <rect id="矩形" fill="#000000" opacity="0" x="0" y="0" width="20" height="20"></rect>
                <path d="M14.0625,3.75 L3.4375,3.75 C2.57498339,3.75103316 1.87603316,4.44998339 1.875,5.3125 L1.875,17.1875 C1.875,18.049375 2.57625,18.75 3.4375,18.75 L14.0625,18.75 C14.924375,18.75 15.625,18.049375 15.625,17.1875 L15.625,5.3125 C15.625,4.45125 14.924375,3.75 14.0625,3.75 Z M14.375,17.1875 C14.375,17.359375 14.234375,17.5 14.0625,17.5 L3.4375,17.5 C3.26491102,17.5 3.125,17.360089 3.125,17.1875 L3.125,5.3125 C3.125,5.13991102 3.26491102,5 3.4375,5 L14.0625,5 C14.235089,5 14.375,5.13991102 14.375,5.3125 L14.375,17.1875 Z M11.875,7.03125 L5.625,7.03125 C5.27982203,7.03125 5,7.31107203 5,7.65625 C5,8.00142797 5.27982203,8.28125 5.625,8.28125 L11.875,8.28125 C12.220178,8.28125 12.5,8.00142797 12.5,7.65625 C12.5,7.31107203 12.220178,7.03125 11.875,7.03125 Z M11.875,10.15625 L5.625,10.15625 C5.27982203,10.15625 5,10.436072 5,10.78125 C5,11.126428 5.27982203,11.40625 5.625,11.40625 L11.875,11.40625 C12.220178,11.40625 12.5,11.126428 12.5,10.78125 C12.5,10.436072 12.220178,10.15625 11.875,10.15625 Z M9.375,13.255 L5.625,13.255 C5.27982203,13.255 5,13.534822 5,13.88 C5,14.225178 5.27982203,14.505 5.625,14.505 L9.375,14.505 C9.72017797,14.505 10,14.225178 10,13.88 C10,13.534822 9.72017797,13.255 9.375,13.255 Z" id="形状" fill="#191C26"></path>
                <path d="M16.5625,1.25 L5.9375,1.25 C5.59232203,1.25 5.3125,1.52982203 5.3125,1.875 C5.3125,2.22017797 5.59232203,2.5 5.9375,2.5 L16.5625,2.5 C16.735089,2.5 16.875,2.63991102 16.875,2.8125 L16.875,14.6875 C16.875,15.032678 17.154822,15.3125 17.5,15.3125 C17.845178,15.3125 18.125,15.032678 18.125,14.6875 L18.125,2.8125 C18.125,1.95125 17.424375,1.25 16.5625,1.25 Z" id="路径" fill="#3B65EE"></path>
            </g>
        </g>
    </g>
</svg>