<?xml version="1.0" encoding="UTF-8"?>
<svg width="20px" height="20px" viewBox="0 0 20 20" version="1.1" xmlns="http://www.w3.org/2000/svg" xmlns:xlink="http://www.w3.org/1999/xlink">
    <title>垃圾桶</title>
    <g id="用户中心" stroke="none" stroke-width="1" fill="none" fill-rule="evenodd">
        <g id="租户身份" transform="translate(-1810.000000, -237.000000)" fill-rule="nonzero">
            <g id="编组-25" transform="translate(210.000000, 218.000000)">
                <g id="编组-22备份-8" transform="translate(1540.000000, 0.000000)">
                    <g id="垃圾桶" transform="translate(60.000000, 19.000000)">
                        <rect id="矩形" fill="#000000" opacity="0" x="0" y="0" width="20" height="20"></rect>
                        <g id="编组-32" transform="translate(2.000000, 2.000000)">
                            <path d="M13.1428594,5.04285938 C13.5047574,5.04285938 13.7635531,5.26875526 13.807616,5.60891654 L13.8142812,5.71428125 L13.8142812,14.4 C13.8142812,15.2643497 13.1073771,16.0167459 12.2572063,16.0935512 L12.1142812,16.1 L3.88571875,16.1 C3.02136908,16.1 2.2689728,15.3930958 2.19216751,14.542925 L2.18571875,14.4 L2.18571875,5.71428125 C2.18571875,5.3161934 2.45905278,5.04285938 2.85714062,5.04285938 C3.21904092,5.04285938 3.4778477,5.26875731 3.52191257,5.60891709 L3.52857812,5.71428125 L3.52857812,14.4 C3.52857812,14.5516809 3.66929309,14.711356 3.82060255,14.7489048 L3.88571875,14.7571406 L12.1142812,14.7571406 C12.2659622,14.7571406 12.4256373,14.6164257 12.463186,14.4651162 L12.4714219,14.4 L12.4714219,5.71428125 C12.4714219,5.31619587 12.7447691,5.04285938 13.1428594,5.04285938 Z M15.4285937,2.75714062 C15.7695236,2.75714062 16.1000156,3.08764474 16.1000156,3.42857812 C16.1000156,3.73851594 15.8268832,4.03982457 15.5210758,4.09204648 L15.4285937,4.1 L0.571421875,4.1 C0.230478886,4.1 -0.1,3.76954521 -0.1,3.42859375 C-0.1,3.11863574 0.17312499,2.81731781 0.478926087,2.76509437 L0.57140625,2.75714062 L15.4285937,2.75714062 Z M10.8571406,-0.1 C11.1980896,-0.1 11.5285781,0.230476438 11.5285781,0.571421875 C11.5285781,0.881373898 11.2554457,1.18268381 10.9496265,1.23490585 L10.8571406,1.24285937 L5.14285937,1.24285937 C4.80191695,1.24285937 4.47142187,0.912358275 4.47142187,0.571421875 C4.47142187,0.261481318 4.74455682,-0.039825065 5.05037416,-0.0920465516 L5.14285937,-0.1 L10.8571406,-0.1 Z" id="形状结合" fill="#091A32"></path>
                            <path d="M5.87704742,5.27399978 C6.45588086,5.0810509 6.60035282,5.17250542 6.7139237,5.2860763 C6.8307088,5.4028614 6.90714062,5.55893003 6.90714062,5.71428125 L6.90714062,5.71428125 L6.90714062,12 C6.90714062,12.1553597 6.83071239,12.311428 6.71392956,12.4282108 C6.59714673,12.5449936 6.44107847,12.6214219 6.28571875,12.6214219 C6.13035847,12.6214219 5.97428539,12.5449929 5.85749842,12.4282091 C5.74071247,12.3114263 5.66428125,12.1553588 5.66428125,12 L5.66428125,12 L5.66428125,5.71428125 C5.86034842,5.28323395 5.86321587,5.28041381 5.86619201,5.27763485 C5.86979008,5.27642447 5.87340851,5.27521278 5.87704742,5.27399978 Z M9.30561894,5.27399303 C9.88444904,5.08105177 10.0289246,5.17250415 10.1424972,5.28607362 C10.2592858,5.40285907 10.3357187,5.55892887 10.3357187,5.71428125 L10.3357187,5.71428125 L10.3357187,12 C10.3357187,12.1553568 10.2592856,12.3114224 10.1425001,12.4282047 C10.0257104,12.5449912 9.86963509,12.6214219 9.71428125,12.6214219 C9.55892797,12.6214219 9.40285743,12.5449919 9.28607191,12.4282064 C9.1692895,12.311424 9.09285937,12.1553577 9.09285937,12 L9.09285937,12 L9.09285937,5.71428125 C9.28891892,5.28322783 9.2917863,5.28040768 9.2947636,5.27762796 C9.29836165,5.27641762 9.30198006,5.27520598 9.30561894,5.27399303 Z" id="形状结合" stroke="#3B65EE" stroke-width="0.1" fill="#3B65EE"></path>
                        </g>
                    </g>
                </g>
            </g>
        </g>
    </g>
</svg>