<?xml version="1.0" encoding="UTF-8"?>
<svg width="20px" height="20px" viewBox="0 0 20 20" version="1.1" xmlns="http://www.w3.org/2000/svg" xmlns:xlink="http://www.w3.org/1999/xlink">
    <title>调度</title>
    <g id="用户中心" stroke="none" stroke-width="1" fill="none" fill-rule="evenodd">
        <g id="切图板板" transform="translate(-548.000000, -222.000000)">
            <g id="icon-pencil" transform="translate(548.000000, 222.000000)">
                <polygon points="0 20 20 20 20 0 0 0"></polygon>
                <path d="M15.5535735,2.55361771 C15.9401728,2.55361771 16.2901728,2.71031804 16.543523,2.96366821 C16.7968731,3.21701838 16.9535735,3.56701838 16.9535735,3.95361771 L16.9535735,3.95361771 L16.9535735,16.1646433 C16.9535735,16.5512426 16.7968731,16.9012426 16.543523,17.1545928 C16.2901728,17.407943 15.9401728,17.5646433 15.5535735,17.5646433 L15.5535735,17.5646433 L4.55357347,17.5646433 C4.16697414,17.5646433 3.81697414,17.407943 3.56362398,17.1545928 C3.31027381,16.9012426 3.15357347,16.5512426 3.15357347,16.1646433 L3.15357347,16.1646433 L3.15357347,3.95361771 C3.15357347,3.56701838 3.31027381,3.21701838 3.56362398,2.96366821 C3.81697414,2.71031804 4.16697414,2.55361771 4.55357347,2.55361771 L4.55357347,2.55361771 Z" id="矩形" stroke="#191C26" stroke-width="1.2"></path>
                <path d="M9.37493501,7.33015333 C9.37493501,7.55275657 9.42342448,7.76403449 9.51041721,7.95400085 L6.54366754,7.95275974 C6.21229669,7.95275974 5.94366754,7.68413059 5.94366754,7.35275974 C5.94366754,7.05452598 6.16125716,6.80711299 6.44634443,6.76061273 L6.54366754,6.75275974 L9.4902331,6.75242204 C9.415958,6.9302371 9.37493501,7.1254045 9.37493501,7.33015333 Z M13.5199374,6.75275974 C13.8513082,6.75275974 14.1199374,7.02138889 14.1199374,7.35275974 C14.1199374,7.65099351 13.9023478,7.8984065 13.6172605,7.94490676 L13.5199374,7.95275974 L12.2394528,7.95400085 C12.3264455,7.76403449 12.374935,7.55275657 12.374935,7.33015333 C12.374935,7.1254045 12.333912,6.9302371 12.2596369,6.75242204 L13.5199374,6.75275974 Z" id="形状结合" fill="#191C26" fill-rule="nonzero"></path>
                <circle id="椭圆形" fill="#3B65EE" cx="10.8727795" cy="7.33178051" r="1"></circle>
                <path d="M7.88607535,12.2974634 C7.88607535,12.5325417 7.94015202,12.7549898 8.03654433,12.9530466 L6.54366754,12.9527597 C6.21229669,12.9527597 5.94366754,12.6841306 5.94366754,12.3527597 C5.94366754,12.054526 6.16125716,11.807113 6.44634443,11.7606127 L6.54366754,11.7527597 L7.98858205,11.7513685 C7.9224028,11.9205983 7.88607535,12.1047885 7.88607535,12.2974634 Z M13.5199374,11.7527597 C13.8513082,11.7527597 14.1199374,12.0213889 14.1199374,12.3527597 C14.1199374,12.6509935 13.9023478,12.8984065 13.6172605,12.9449068 L13.5199374,12.9527597 L10.7356064,12.9530466 C10.8319987,12.7549898 10.8860754,12.5325417 10.8860754,12.2974634 C10.8860754,12.1047885 10.8497479,11.9205983 10.7835687,11.7513685 L13.5199374,11.7527597 Z" id="形状结合" fill="#191C26" fill-rule="nonzero"></path>
                <circle id="椭圆形备份" fill="#3B65EE" cx="9.38577558" cy="12.2923606" r="1"></circle>
            </g>
        </g>
    </g>
</svg>