<?xml version="1.0" encoding="UTF-8"?>
<svg width="20px" height="20px" viewBox="0 0 20 20" version="1.1" xmlns="http://www.w3.org/2000/svg" xmlns:xlink="http://www.w3.org/1999/xlink">
    <title>2-Edit/pencil</title>
    <g id="用户中心" stroke="none" stroke-width="1" fill="none" fill-rule="evenodd">
        <g id="切图板板" transform="translate(-473.000000, -156.000000)">
            <g id="icon-pencil" transform="translate(473.000000, 156.000000)">
                <polygon points="0 20 20 20 20 0 0 0"></polygon>
                <path d="M15.8353411,12.2852631 C16.1263429,12.2852631 16.3628368,12.521757 16.3628368,12.8127588 L16.3628368,12.8127588 L16.3628368,16.2617016 C16.3628368,17.2199855 15.5830223,17.9998 14.6238593,17.9998 L14.6238593,17.9998 L12.3644193,17.9998 C12.0734175,17.9998 11.8369236,17.7633061 11.8369236,17.4723043 C11.8369236,17.1813025 12.0734175,16.9456877 12.3644193,16.9456877 L12.3644193,16.9456877 L14.6238593,16.9456877 C15.0010187,16.9456877 15.3078454,16.6388611 15.3078454,16.2617016 L15.3078454,16.2617016 L15.3078454,12.8127588 C15.3078454,12.521757 15.5443393,12.2852631 15.8353411,12.2852631 Z M14.6239472,1.9998 C15.5831103,1.9998 16.3629248,2.7796145 16.3629248,3.73877754 L16.3629248,3.73877754 L16.3629248,7.84269419 C16.3629248,8.133696 16.1264308,8.36931075 15.835429,8.36931075 C15.5444272,8.36931075 15.3079333,8.133696 15.3079333,7.84269419 L15.3079333,7.84269419 L15.3079333,3.73877754 C15.3079333,3.3616181 15.0011067,3.05391227 14.6239472,3.05391227 L14.6239472,3.05391227 L4.73779838,3.05391227 C4.36063894,3.05391227 4.05469143,3.3616181 4.05469143,3.73877754 L4.05469143,3.73877754 L4.05469143,16.2624049 C4.05469143,16.6386852 4.36063894,16.9455119 4.73779838,16.9455119 L4.73779838,16.9455119 L7.3524188,16.9455119 C7.64429976,16.9455119 7.87991451,17.1820058 7.87991451,17.4730076 C7.87991451,17.7640094 7.64429976,17.9996242 7.3524188,17.9996242 L7.3524188,17.9996242 L4.73779838,17.9996242 C3.7795145,17.9996242 2.9997,17.2198097 2.9997,16.2624049 L2.9997,16.2624049 L2.9997,3.73877754 C2.9997,2.7796145 3.7795145,1.9998 4.73779838,1.9998 L4.73779838,1.9998 Z" id="形状结合" stroke="#191C26" stroke-width="0.2" fill="#191C26"></path>
                <path d="M15.4539248,9.67181497 L9.33937148,16.9220971 C9.12237148,17.1730971 9.15037148,17.5510971 9.40037148,17.7680971 C9.51337148,17.8660971 9.65337148,17.9140971 9.79337148,17.9140971 C9.96137148,17.9140971 10.1283715,17.8430971 10.2473715,17.7070971 L16.3629248,10.456815 C16.5789248,10.205815 16.5509248,9.82681497 16.3009248,9.60981497 C16.0519248,9.39581497 15.6729248,9.42181497 15.4539248,9.67181497 Z" id="Fill-5" stroke="#3B65EE" stroke-width="0.1" fill="#3B65EE"></path>
            </g>
        </g>
    </g>
</svg>