<?xml version="1.0" encoding="UTF-8"?>
<svg width="20px" height="20px" viewBox="0 0 20 20" version="1.1" xmlns="http://www.w3.org/2000/svg" xmlns:xlink="http://www.w3.org/1999/xlink">
    <title>切换</title>
    <g id="用户中心" stroke="none" stroke-width="1" fill="none" fill-rule="evenodd">
        <g id="切图板板" transform="translate(-552.000000, -157.000000)" fill-rule="nonzero">
            <g id="切换" transform="translate(552.000000, 157.000000)">
                <rect id="矩形" fill="#000000" opacity="0" x="0" y="0" width="20" height="20"></rect>
                <path d="M6.923,2.14 L2.33974639,5.41472831 C2.139259,5.5577938 2.05414174,5.81398078 2.12915155,6.04857928 C2.19478513,6.25385297 2.36986359,6.40146288 2.57755079,6.43529968 L2.66833203,6.44267188 L14.668332,6.44267188 C15.777704,6.44267188 16.6861602,7.30289452 16.7630593,8.39269845 L16.768332,8.54267188 L16.768,10.442 L17.901,10.442 L17.9016602,8.54267188 C17.9016602,7.82805644 17.6650976,7.13783398 17.2353381,6.57670322 L17.1006577,6.41234145 L16.9546456,6.25635337 C16.3988091,5.70051427 15.6614349,5.36794925 14.8818793,5.31638174 L14.668332,5.30932813 L4.74700391,5.30932813 L4.68887657,5.12795729 L7.58,3.062 L6.923,2.14 Z" id="形状" stroke="#191C26" stroke-width="0.1" fill="#191C26"></path>
                <path d="M3.235,9.309 L2.101,9.309 L2.10166016,11.2093281 C2.10166016,11.9239458 2.33822411,12.6141702 2.76798605,13.1753018 L2.9026672,13.3396638 L3.04868004,13.495652 C3.60451954,14.0514915 4.34189726,14.384055 5.12145578,14.4356192 L5.33500375,14.4426719 L15.2550194,14.4426563 L15.313147,14.624027 L12.421,16.689 L13.078,17.611 L17.6635896,14.3372717 C17.8139536,14.2299736 17.8994234,14.0590459 17.9011172,13.8813175 L17.8948954,13.7921497 L17.8741864,13.703427 C17.8085559,13.4981546 17.6334819,13.3505433 17.425799,13.3167023 L17.3350195,13.3093281 L5.33501953,13.3093281 C4.22564756,13.3093281 3.31719134,12.4491055 3.24029226,11.3593015 L3.23501953,11.2093281 L3.235,9.309 Z" id="路径" stroke="#3B65EE" stroke-width="0.1" fill="#3B65EE"></path>
            </g>
        </g>
    </g>
</svg>