<?xml version="1.0" encoding="UTF-8"?>
<svg width="20px" height="20px" viewBox="0 0 20 20" version="1.1" xmlns="http://www.w3.org/2000/svg" xmlns:xlink="http://www.w3.org/1999/xlink">
    <title>导出</title>
    <g id="业务中心" stroke="none" stroke-width="1" fill="none" fill-rule="evenodd">
        <g id="结算订单" transform="translate(-1830.000000, -292.000000)" fill-rule="nonzero">
            <g id="编组-25" transform="translate(1810.000000, 273.000000)">
                <g id="导出" transform="translate(20.000000, 19.000000)">
                    <rect id="矩形" fill="#000000" opacity="0" x="0" y="0" width="20" height="20"></rect>
                    <path d="M15.9998222,17.9997968 L3.9999746,17.9997968 C2.89733236,17.9997968 2,17.1024645 2,15.9998222 L2,11.999873 C2,11.6312058 2.29799622,11.3332096 2.66666341,11.3332096 C3.0353306,11.3332096 3.33331119,11.6312058 3.33331119,11.999873 L3.33331119,15.9998222 C3.33331119,16.3678176 3.63197928,16.6664856 3.9999746,16.6664856 L15.9998222,16.6664856 C16.3678176,16.6664856 16.6664856,16.3678176 16.6664856,15.9998222 L16.6664856,11.999873 C16.6664856,11.6312058 16.9644819,11.3332096 17.3331334,11.3332096 C17.701785,11.3332096 17.9997968,11.6312058 17.9997968,11.999873 L17.9997968,15.9998222 C17.9997968,17.1024645 17.1024645,17.9997968 15.9998222,17.9997968" id="形状" fill="#191C26"></path>
                    <path d="M10.1017249,2.00757549 L10.1501235,2.01718168 C10.1642169,2.02045929 10.1781426,2.02418721 10.1918843,2.02834928 C10.1952462,2.02979625 10.1962323,2.0301004 10.1972178,2.03040688 C10.2107794,2.03368566 10.2236351,2.03809486 10.2363736,2.04290691 C10.2541216,2.0503603 10.2715521,2.05790588 10.2885846,2.06615593 C10.3024434,2.07187901 10.3155653,2.07872531 10.3284956,2.08603646 C10.3430085,2.09545663 10.357549,2.10450391 10.3717064,2.11407962 C10.3920416,2.12636364 10.4115095,2.14102751 10.430309,2.1568931 C10.4332917,2.16110225 10.4365845,2.16394981 10.4398492,2.16682865 C10.4507374,2.17465525 10.4610279,2.1842665 10.4710799,2.19426316 L10.4830513,2.20779684 L14.4634355,6.18835307 C14.7227239,6.44907695 14.7227239,6.87027346 14.4634355,7.13099735 C14.2041107,7.3904628 13.7794442,7.3904628 13.5207912,7.13099735 L10.6660513,4.27679684 L10.6665618,12.6665364 C10.6665618,13.033188 10.3665656,13.3331842 9.99989842,13.3331842 C9.6332312,13.3331842 9.33323501,13.033188 9.33323501,12.6665364 L9.3330513,4.27479684 L6.4771619,7.13101297 C6.21643801,7.3903014 5.7952415,7.3903014 5.53451762,7.13101297 C5.27522919,6.87028909 5.27522919,6.44909258 5.53451762,6.18836869 L9.51484932,2.20705278 C9.51878324,2.20289165 9.52278078,2.19876866 9.52684192,2.19468503 C9.6074056,2.1145649 9.70329137,2.0592019 9.80503018,2.02859601 C9.81816751,2.02520273 9.8306448,2.02177424 9.84325943,2.01870717 C9.89212755,2.00657248 9.94190457,2.00043914 9.99173536,1.99984469 C9.99348422,2.00023092 9.99582414,2.0002187 9.99816406,2.0002187 C10.0338538,1.99979684 10.0679498,2.00238972 10.1017249,2.00757549 Z" id="形状结合" fill="#3B65EE"></path>
                </g>
            </g>
        </g>
    </g>
</svg>