<?xml version="1.0" encoding="UTF-8"?>
<svg width="20px" height="20px" viewBox="0 0 20 20" version="1.1" xmlns="http://www.w3.org/2000/svg" xmlns:xlink="http://www.w3.org/1999/xlink">
    <title>关联</title>
    <g id="用户中心" stroke="none" stroke-width="1" fill="none" fill-rule="evenodd">
        <g id="切图板板" transform="translate(-522.000000, -156.000000)" fill-rule="nonzero">
            <g id="关联" transform="translate(522.000000, 156.000000)">
                <rect id="矩形" fill="#000000" opacity="0" x="0" y="0" width="20" height="20"></rect>
                <g id="编组-24" transform="translate(2.149963, 2.150032)" stroke-width="0.1">
                    <path d="M3.91542743,6.74826656 C3.80036397,6.74826656 3.68908151,6.78488429 3.59709565,6.85171801 L3.5319668,6.90740877 L1.14963078,9.2890774 C-0.38320682,10.8225755 -0.38320682,13.3164291 1.14961013,14.8499065 C1.84275725,15.5430536 2.75182623,15.9406126 3.70874081,15.9938703 L3.92953213,16 L4.15188104,15.9938679 C5.03494583,15.9446888 5.87788165,15.6020453 6.5473863,15.0045745 L6.71107217,14.8499202 L9.09271627,12.4675929 C9.30429778,12.2556916 9.30429778,11.9124708 9.09286106,11.7007143 C8.90450438,11.5126419 8.61238905,11.491745 8.40103519,11.6379633 L8.32592357,11.7006285 L5.94414618,14.0830733 C4.83288866,15.1929126 3.02710582,15.1929126 1.91647427,14.0829818 C0.849281406,13.0151151 0.808235527,11.3038197 1.79337547,10.1870575 L1.91651795,10.055979 L4.29897701,7.67418745 C4.40078819,7.57259336 4.4580034,7.43467185 4.4580034,7.29084253 C4.4580034,7.14701321 4.40078819,7.0090917 4.29877234,6.90729295 C4.19717826,6.80548177 4.05925675,6.74826656 3.91542743,6.74826656 Z M9.44079275,1.00613513 L9.28956796,1.14969638 L6.95064961,3.48861467 C6.73906811,3.70051594 6.73906811,4.04373675 6.95067952,4.25566798 C7.0522736,4.35747916 7.19019512,4.41469437 7.33402444,4.41469437 C7.4490879,4.41469437 7.56037035,4.37807664 7.65234934,4.3112498 L7.71747163,4.25556559 L10.0564624,1.91657487 C11.1668098,0.806227455 12.972639,0.806449562 14.083482,1.91657487 C15.1513553,2.98444823 15.1924274,4.69578705 14.2066981,5.81251991 L14.083482,5.94359451 L11.7443873,8.28268909 C11.6425722,8.38428369 11.5853545,8.52220792 11.5853545,8.66604036 C11.5853545,8.8098728 11.6425722,8.94779704 11.7444913,9.0494955 C11.8269925,9.13199679 11.9314353,9.18419807 12.0430784,9.20177854 L12.1275131,9.20767129 L12.2133792,9.20171686 C12.2975026,9.18835468 12.3773263,9.15527093 12.4462879,9.10516943 L12.5113857,9.0494955 L14.8503759,6.71050526 C16.3831933,5.17767247 16.3831933,2.68313563 14.8504172,1.14905395 C13.4159602,-0.284181324 11.1397874,-0.376822986 9.59764201,0.872145664 L9.44079275,1.00613513 Z" id="形状结合" stroke="#191C26" fill="#191C26"></path>
                    <path d="M6.19213687,10.4105604 C6.0378567,10.4105604 5.88359066,10.3514921 5.76607615,10.2339776 C5.65292269,10.1210617 5.58933373,9.96777219 5.58933373,9.8079169 C5.58933373,9.64806161 5.65292269,9.49477211 5.76607615,9.38185618 L9.38190721,5.76602512 C9.49482314,5.65287166 9.64811264,5.5892827 9.80796793,5.5892827 C9.96782322,5.5892827 10.1211127,5.65287166 10.2340286,5.76602512 C10.3471821,5.87894105 10.4107711,6.03223055 10.4107711,6.19208584 C10.4107711,6.35194112 10.3471821,6.50523063 10.2340286,6.61814656 L6.61819759,10.2339776 C6.50531552,10.3471622 6.35199023,10.4107085 6.19213687,10.4105604" id="路径" stroke="#3B65EE" fill="#3B65EE"></path>
                </g>
            </g>
        </g>
    </g>
</svg>