<?xml version="1.0" encoding="UTF-8"?>
<svg width="20px" height="20px" viewBox="0 0 20 20" version="1.1" xmlns="http://www.w3.org/2000/svg" xmlns:xlink="http://www.w3.org/1999/xlink">
    <title>关联设备</title>
    <g id="用户中心" stroke="none" stroke-width="1" fill="none" fill-rule="evenodd">
        <g id="切图板板" transform="translate(-604.000000, -222.000000)" fill-rule="nonzero">
            <g id="关联设备" transform="translate(604.000000, 222.000000)">
                <rect id="矩形" fill="#000000" opacity="0" x="0" y="0" width="20" height="20"></rect>
                <g id="编组-2" transform="translate(2.000000, 2.000000)">
                    <path d="M3.50171429,8.57142857 L1.71428571,8.57142857 C1.39869443,8.57142857 1.14285714,8.31559129 1.14285714,8 L1.14285714,3.42857143 L9.71428571,3.42857143 L9.71428571,8 C9.71428571,8.31559129 9.45844843,8.57142857 9.14285714,8.57142857 L8.16114286,8.57142857 C7.84555157,8.57142857 7.58971429,8.82726586 7.58971429,9.14285714 C7.58971429,9.45844843 7.84555157,9.71428571 8.16114286,9.71428571 L9.14285714,9.71428571 C10.089631,9.71428571 10.8571429,8.94677386 10.8571429,8 L10.8571429,1.71428571 C10.8571429,0.767511857 10.089631,0 9.14285714,0 L1.71428571,0 C0.767511857,0 0,0.767511857 0,1.71428571 L0,8 C0,8.94677386 0.767511857,9.71428571 1.71428571,9.71428571 L3.50171429,9.71428571 C3.81730557,9.71428571 4.07314286,9.45844843 4.07314286,9.14285714 C4.07314286,8.82726586 3.81730557,8.57142857 3.50171429,8.57142857 Z M1.14285714,1.71428571 C1.14285714,1.39869443 1.39869443,1.14285714 1.71428571,1.14285714 L9.14285714,1.14285714 C9.45844843,1.14285714 9.71428571,1.39869443 9.71428571,1.71428571 L9.71428571,2.28571429 L1.14285714,2.28571429 L1.14285714,1.71428571 Z" id="形状" fill="#3B65EE"></path>
                    <path d="M7.98342857,6.28571429 C8.29901986,6.28571429 8.55485714,6.54155157 8.55485714,6.85714286 C8.55485714,7.17273414 8.29901986,7.42857143 7.98342857,7.42857143 L7.98342857,7.42857143 L6.85714286,7.42857143 C6.54155157,7.42857143 6.28571429,7.68440871 6.28571429,8 L6.28571429,8 L6.28571429,12.5714286 L14.8571429,12.5714286 L14.8571429,8 C14.8571429,7.68440871 14.6013056,7.42857143 14.2857143,7.42857143 L14.2857143,7.42857143 L12.6628571,7.42857143 C12.3472659,7.42857143 12.0914286,7.17273414 12.0914286,6.85714286 C12.0914286,6.54155157 12.3472659,6.28571429 12.6628571,6.28571429 L12.6628571,6.28571429 L14.2857143,6.28571429 C15.2324881,6.28571429 16,7.05322614 16,8 L16,8 L16,14.2857143 C16,15.2324881 15.2324881,16 14.2857143,16 L14.2857143,16 L6.85714286,16 C5.910369,16 5.14285714,15.2324881 5.14285714,14.2857143 L5.14285714,14.2857143 L5.14285714,8 C5.14285714,7.05322614 5.910369,6.28571429 6.85714286,6.28571429 L6.85714286,6.28571429 Z M14.8571429,13.7142857 L6.28571429,13.7142857 L6.28571429,14.2857143 C6.28571429,14.6013056 6.54155157,14.8571429 6.85714286,14.8571429 L6.85714286,14.8571429 L14.2857143,14.8571429 C14.6013056,14.8571429 14.8571429,14.6013056 14.8571429,14.2857143 L14.8571429,14.2857143 L14.8571429,13.7142857 Z" id="形状结合" fill="#191C26"></path>
                </g>
            </g>
        </g>
    </g>
</svg>