<?xml version="1.0" encoding="UTF-8"?>
<svg width="20px" height="20px" viewBox="0 0 20 20" version="1.1" xmlns="http://www.w3.org/2000/svg" xmlns:xlink="http://www.w3.org/1999/xlink">
    <title>bg-association</title>
    <g id="用户中心" stroke="none" stroke-width="1" fill="none" fill-rule="evenodd">
        <g id="切图板板" transform="translate(-631.000000, -222.000000)">
            <g id="bg-association" transform="translate(631.000000, 222.000000)">
                <rect id="矩形" fill="#000000" fill-rule="nonzero" opacity="0" x="0" y="0" width="20" height="20"></rect>
                <path d="M16.0008281,4.00498437 C16.0008281,2.97397061 15.2167818,2.11203528 14.1903778,2.01464858 C13.1639738,1.91726188 12.2318329,2.61636468 12.0379271,3.62898007 C11.8440212,4.64159545 12.4519476,5.63560593 13.4417188,5.92429687 L13.4417188,7.92357812 L10.0029688,11.3357031 L6.5575,7.91692187 L6.5575,5.917625 C7.51152697,5.63756753 8.11477626,4.69899805 7.97330826,3.71483014 C7.83184027,2.73066224 6.98865068,2.00000933 5.99436719,2.00000933 C5.0000837,2.00000933 4.15689411,2.73066224 4.01542611,3.71483014 C3.87395812,4.69899805 4.4772074,5.63756753 5.43123438,5.917625 L5.43123438,8.37009375 L9.42979688,12.3686719 L9.42979688,14.0614062 C8.4757699,14.3414637 7.87252062,15.2800332 8.01398861,16.2642011 C8.15545661,17.248369 8.9986462,17.9790219 9.99292969,17.9790219 C10.9872132,17.9790219 11.8304028,17.248369 11.9718708,16.2642011 C12.1133388,15.2800332 11.5100895,14.3414637 10.5560625,14.0614062 L10.5560625,12.382 L14.5546875,8.38342187 L14.5546875,5.92429687 C15.4103538,5.67794396 15.9999698,4.8954078 16.0008281,4.00498437 L16.0008281,4.00498437 Z" id="路径" fill="#191C26" fill-rule="nonzero"></path>
                <circle id="椭圆形" fill="#3B65EE" cx="14" cy="4" r="2"></circle>
                <circle id="椭圆形备份" fill="#3B65EE" cx="6" cy="4" r="2"></circle>
            </g>
        </g>
    </g>
</svg>