<?xml version="1.0" encoding="UTF-8"?>
<svg width="20px" height="20px" viewBox="0 0 20 20" version="1.1" xmlns="http://www.w3.org/2000/svg" xmlns:xlink="http://www.w3.org/1999/xlink">
    <title>切片</title>
    <defs>
        <path d="M3,1.5 C3,2.329 2.329,3 1.5,3 C0.672,3 0,2.329 0,1.5 C0,0.672 0.672,0 1.5,0 C2.329,0 3,0.672 3,1.5 M9,1.5 C9,2.329 8.329,3 7.5,3 C6.672,3 6,2.329 6,1.5 C6,0.672 6.672,0 7.5,0 C8.329,0 9,0.672 9,1.5 M15,1.5 C15,2.329 14.329,3 13.5,3 C12.672,3 12,2.329 12,1.5 C12,0.672 12.672,0 13.5,0 C14.329,0 15,0.672 15,1.5" id="path-1"></path>
    </defs>
    <g id="用户中心" stroke="none" stroke-width="1" fill="none" fill-rule="evenodd">
        <g id="切图板板" transform="translate(-523.000000, -189.000000)">
            <g id="2-Edit/plus备份" transform="translate(523.000000, 189.000000)">
                <g id="icon-plus" transform="translate(3.000000, 9.000000)">
                    <mask id="mask-2" fill="white">
                        <use xlink:href="#path-1"></use>
                    </mask>
                    <use id="形状结合" fill-opacity="0.4" fill="#191C26" xlink:href="#path-1"></use>
                </g>
            </g>
        </g>
    </g>
</svg>