<?xml version="1.0" encoding="UTF-8"?>
<svg width="20px" height="20px" viewBox="0 0 20 20" version="1.1" xmlns="http://www.w3.org/2000/svg" xmlns:xlink="http://www.w3.org/1999/xlink">
    <title>分享</title>
    <g id="用户中心" stroke="none" stroke-width="1" fill="none" fill-rule="evenodd">
        <g id="切图板板" transform="translate(-660.000000, -223.000000)">
            <g id="分享" transform="translate(660.000000, 223.000000)">
                <rect id="矩形" fill="#000000" fill-rule="nonzero" opacity="0" x="0" y="0" width="20" height="20"></rect>
                <g id="编组-19" transform="translate(0.951732, 0.890016)">
                    <path d="M8.95,0 C13.8848437,0 17.9,4.0151563 17.9,8.95 C17.9,9.30473674 17.6124291,9.59230769 17.2576923,9.59230769 C16.9029556,9.59230769 16.6153846,9.30473674 16.6153846,8.95 C16.6153846,4.72362164 13.1760917,1.28461538 8.95,1.28461538 C4.72390827,1.28461538 1.28461538,4.72362164 1.28461538,8.95 C1.28461538,13.1766948 4.72330523,16.6153846 8.95,16.6153846 C11.6088884,16.6238761 14.0801525,15.2459882 15.4707784,12.9795442 L15.5217237,12.8952407 C15.5769566,12.8041571 15.6302503,12.7118221 15.6815275,12.6183664 C15.8544503,12.3095246 16.2443728,12.1975145 16.555219,12.3677031 C16.86487,12.5400006 16.977071,12.9305877 16.8059064,13.2412566 L16.7492546,13.3430223 L16.5633489,13.6565203 C14.939189,16.3016818 12.0542435,17.9097381 8.95015614,17.9001312 C4.0151648,17.9001312 0,13.8848522 0,8.95 C0,4.0151563 4.0151563,0 8.95,0 Z" id="路径" fill="#191C26" fill-rule="nonzero"></path>
                    <g id="编组" transform="translate(9.289765, 9.257151) scale(-1, 1) translate(-9.289765, -9.257151) translate(6.645050, 5.812260)" stroke="#3B65EE" stroke-linecap="round" stroke-linejoin="round" stroke-width="1.2">
                        <polyline id="路径-2" points="1.11233765 2.04589058 5.28943081 2.04589058 5.28943081 6.88978258"></polyline>
                        <polyline id="路径" transform="translate(1.018437, 2.000000) rotate(-90.000000) translate(-1.018437, -2.000000) " points="-0.981563208 3.01843679 1.01843679 0.981563208 3.01843679 3.01843679"></polyline>
                    </g>
                </g>
            </g>
        </g>
    </g>
</svg>