<?xml version="1.0" encoding="UTF-8"?>
<svg width="20px" height="20px" viewBox="0 0 20 20" version="1.1" xmlns="http://www.w3.org/2000/svg" xmlns:xlink="http://www.w3.org/1999/xlink">
    <title>查找</title>
    <g id="用户中心" stroke="none" stroke-width="1" fill="none" fill-rule="evenodd">
        <g id="切图板板" transform="translate(-475.000000, -222.000000)" fill-rule="nonzero">
            <g id="查找" transform="translate(475.000000, 222.000000)">
                <rect id="矩形" fill="#000000" opacity="0" x="0" y="0" width="20" height="20"></rect>
                <path d="M9.34544028,2.14998015 L9.10661993,2.15384638 C5.23412767,2.27941479 2.15,5.45904814 2.15,9.34388314 C2.15,13.3172002 5.37066263,16.5377663 9.3442019,16.5377663 C10.9521714,16.5377663 12.4783324,16.0084819 13.7227959,15.0519692 L13.9678734,14.8550005 L14.1704129,14.863788 L17.0087841,17.7021809 L17.0449772,17.7354253 C17.2458615,17.9039071 17.5437737,17.8844127 17.7209891,17.6911892 C17.8760526,17.5221186 17.8906288,17.2724585 17.7678595,17.0884149 L17.7068443,17.0139827 L14.8639622,14.1701297 L14.8551808,13.9676147 C15.9356246,12.6811058 16.5377663,11.0589124 16.5377663,9.34356438 C16.5377663,5.54023267 13.5804703,2.4122263 9.8220909,2.1656511 L9.58356632,2.15390597 L9.34544028,2.14998015 Z M9.3442019,3.13004144 C12.7757806,3.13004144 15.5577436,5.91199851 15.5577436,9.34388314 C15.5577436,12.7756242 12.7756242,15.5577436 9.34388314,15.5577436 C5.91188515,15.5577436 3.13004144,12.775686 3.13004144,9.34356438 C3.13004144,5.91195098 5.912052,3.13004144 9.3442019,3.13004144 Z" id="形状结合" stroke="#191C26" stroke-width="0.3" fill="#191C26"></path>
                <path d="M6.16002106,10.7902372 C5.97905841,10.7901173 5.81276055,10.889743 5.72749161,11.0493571 C5.65643415,11.1823689 5.6512873,11.3389933 5.70982424,11.4745161 L5.75257065,11.5529399 L5.751,11.558 L5.81573487,11.6549139 C6.67179558,12.91626 7.93467516,13.6807476 9.40463917,13.8245683 L9.6661536,13.8434804 L9.767,13.845 L9.767,12.865 L9.5632945,12.854851 C8.47815511,12.7652859 7.54182763,12.2617191 6.85274493,11.4096418 L6.70890459,11.2217433 L6.57284819,11.0233193 L6.55479134,10.9897357 C6.49956693,10.9146935 6.42476324,10.8578825 6.33999496,10.8244405 L6.25226124,10.7989784 L6.16002106,10.7902372 Z" id="路径" stroke="#3B65EE" stroke-width="0.3" fill="#3B65EE"></path>
            </g>
        </g>
    </g>
</svg>