<?xml version="1.0" encoding="UTF-8"?>
<svg width="20px" height="20px" viewBox="0 0 20 20" version="1.1" xmlns="http://www.w3.org/2000/svg" xmlns:xlink="http://www.w3.org/1999/xlink">
    <title>树形</title>
    <g id="树形" stroke="none" stroke-width="1" fill="none" fill-rule="evenodd">
        <path d="M6.5,2.5 C7.88071187,2.5 9,3.61928813 9,5 C9,6.20932545 8.14133817,7.21809967 7.00043449,7.44990271 L7,10.423 L12.5707367,9.62734635 C12.8170493,9.59214562 13,9.38119053 13,9.13237532 L13.000574,8.4501074 C11.8591679,8.2186941 11,7.20968176 11,6 C11,4.61928813 12.1192881,3.5 13.5,3.5 C14.8807119,3.5 16,4.61928813 16,6 C16,7.20932545 15.1413382,8.21809967 14.0004345,8.44990271 L14,9.5663523 C14,10.0640027 13.6340701,10.4859234 13.1414214,10.5563018 L7,11.433 L7.00043449,12.5500973 C8.14133817,12.7819003 9,13.7906746 9,15 C9,16.3807119 7.88071187,17.5 6.5,17.5 C5.11928813,17.5 4,16.3807119 4,15 C4,13.7903182 4.85916789,12.7813059 6.00057405,12.5498926 L6.00057405,7.4501074 C4.85916789,7.2186941 4,6.20968176 4,5 C4,3.61928813 5.11928813,2.5 6.5,2.5 Z M6.5,13.5 C5.67157288,13.5 5,14.1715729 5,15 C5,15.8284271 5.67157288,16.5 6.5,16.5 C7.32842712,16.5 8,15.8284271 8,15 C8,14.1715729 7.32842712,13.5 6.5,13.5 Z M13.5,4.5 C12.6715729,4.5 12,5.17157288 12,6 C12,6.82842712 12.6715729,7.5 13.5,7.5 C14.3284271,7.5 15,6.82842712 15,6 C15,5.17157288 14.3284271,4.5 13.5,4.5 Z M6.5,3.5 C5.67157288,3.5 5,4.17157288 5,5 C5,5.82842712 5.67157288,6.5 6.5,6.5 C7.32842712,6.5 8,5.82842712 8,5 C8,4.17157288 7.32842712,3.5 6.5,3.5 Z" id="形状结合" fill="#979797" fill-rule="nonzero"></path>
    </g>
</svg>