<?xml version="1.0" encoding="UTF-8"?>
<svg width="18px" height="18px" viewBox="0 0 18 18" version="1.1" xmlns="http://www.w3.org/2000/svg" xmlns:xlink="http://www.w3.org/1999/xlink">
    <title>形状结合</title>
    <g id="1" stroke="none" stroke-width="1" fill="none" fill-rule="evenodd">
        <g id="外框-账号设置" transform="translate(-951.000000, -206.000000)" fill="#FFFFFF" fill-rule="nonzero">
            <path d="M961.75,207.5 C962.164214,207.5 962.5,207.835786 962.5,208.25 C962.5,208.629696 962.217846,208.943491 961.851771,208.993153 L961.75,209 L952.75,209 C952.631653,209 952.532513,209.082233 952.506603,209.192677 L952.5,209.25 L952.5,222.25 C952.5,222.368347 952.582233,222.467487 952.692677,222.493397 L952.75,222.5 L964.75,222.5 C964.868347,222.5 964.967487,222.417767 964.993397,222.307323 L965,222.25 L965,214.25 C965,213.835786 965.335786,213.5 965.75,213.5 C966.129696,213.5 966.443491,213.782154 966.493153,214.148229 L966.5,214.25 L966.5,222.25 C966.5,223.168173 965.79289,223.921192 964.893527,223.994199 L964.75,224 L952.75,224 C951.831827,224 951.078808,223.29289 951.005801,222.393527 L951,222.25 L951,209.25 C951,208.331827 951.70711,207.578808 952.606473,207.505801 L952.75,207.5 L961.75,207.5 Z M961.75,218.5 C962.164214,218.5 962.5,218.835786 962.5,219.25 C962.5,219.664214 962.164214,220 961.75,220 L955.75,220 C955.335786,220 955,219.664214 955,219.25 C955,218.835786 955.335786,218.5 955.75,218.5 L961.75,218.5 Z M968.78033,206.21967 C969.046597,206.485936 969.070803,206.9026 968.852948,207.196212 L968.78033,207.28033 L959.53033,216.53033 C959.237437,216.823223 958.762563,216.823223 958.46967,216.53033 C958.203403,216.264064 958.179197,215.8474 958.397052,215.553788 L958.46967,215.46967 L967.71967,206.21967 C968.012563,205.926777 968.487437,205.926777 968.78033,206.21967 Z" id="形状结合"></path>
        </g>
    </g>
</svg>