<?xml version="1.0" encoding="UTF-8"?>
<svg width="40px" height="40px" viewBox="0 0 40 40" version="1.1" xmlns="http://www.w3.org/2000/svg" xmlns:xlink="http://www.w3.org/1999/xlink">
    <title>icon_选择</title>
    <g id="页面-1" stroke="none" stroke-width="1" fill="none" fill-rule="evenodd">
        <g id="图标" transform="translate(-369.000000, -248.000000)">
            <g id="icon_选择" transform="translate(369.000000, 248.000000)">
                <path d="M40,0 L40,0 L40,0 C40,22.09139 22.09139,40 0,40 L0,40 L0,40 C-2.705415e-15,17.90861 17.90861,4.05812251e-15 40,0 Z" id="矩形" fill="#07F89C"></path>
                <path d="M16.2071068,13.9142136 C16.7593915,13.9142136 17.2071068,14.3619288 17.2071068,14.9142136 L17.2071068,19.0852136 L28.7928932,19.0857864 C29.345178,19.0857864 29.7928932,19.5335017 29.7928932,20.0857864 C29.7928932,20.6380712 29.345178,21.0857864 28.7928932,21.0857864 L16.2071068,21.0857864 L16.2071068,21.0857864 C15.654822,21.0857864 15.2071068,20.6380712 15.2071068,20.0857864 L15.2071068,14.9142136 C15.2071068,14.3619288 15.654822,13.9142136 16.2071068,13.9142136 Z" id="形状结合" fill="#FFFFFF" transform="translate(22.500000, 17.500000) rotate(-45.000000) translate(-22.500000, -17.500000) "></path>
            </g>
        </g>
    </g>
</svg>