<?xml version="1.0" encoding="UTF-8"?>
<svg width="20px" height="20px" viewBox="0 0 20 20" version="1.1" xmlns="http://www.w3.org/2000/svg"
    xmlns:xlink="http://www.w3.org/1999/xlink">
    <title>客服管理</title>
    <g id="用户中心" stroke="none" stroke-width="1" fill="none" fill-rule="evenodd">
        <g id="切图板板" transform="translate(-153.000000, -82.000000)" fill-rule="nonzero">
            <g id="客服备份" transform="translate(153.000000, 82.000000)">
                <rect id="矩形" fill="#000000" opacity="0" x="0" y="0" width="20" height="20"></rect>
                <path
                    d="M17.7727208,9.25380374 C17.6967875,5.20043708 14.5546208,1.92623708 10.6961875,1.92623708 L10.1295208,1.92623708 C6.2710875,1.92623708 3.12892084,5.20043708 3.0529875,9.25323708 C2.37525417,9.64593708 1.91285417,10.3707037 1.91285417,11.2088037 L1.91285417,12.3421371 C1.91285417,13.5922037 2.92945417,14.6088037 4.17952084,14.6088037 C5.4295875,14.6088037 6.4461875,13.5922037 6.4461875,12.3421371 L6.4461875,11.2088037 C6.44438696,9.96645638 5.4433408,8.95681972 4.20105417,8.94440374 C4.42262084,5.66057041 6.9935875,3.05957041 10.1295208,3.05957041 L10.6961875,3.05957041 C13.8326875,3.05957041 16.4030875,5.66057041 16.6246542,8.94440374 C15.3823675,8.95681972 14.3813214,9.96645638 14.3795208,11.2088037 L14.3795208,12.3421371 C14.3795208,13.3655371 15.0651875,14.2223371 15.9979208,14.5028371 C15.1561306,15.610889 13.9540803,16.3904781 12.5990542,16.7071704 C12.4072079,16.1318518 11.8693152,15.7433738 11.2628542,15.7421371 C10.4804508,15.7421371 9.8461875,16.3764003 9.8461875,17.1588037 C9.8461875,17.9412071 10.4804508,18.5754704 11.2628542,18.5754704 C11.7535914,18.5748175 12.2087433,18.3192372 12.4647542,17.9005704 C14.5317917,17.538952 16.3343861,16.2847028 17.3919208,14.4722371 C18.2747875,14.1628371 18.9128542,13.3298371 18.9128542,12.3421371 L18.9128542,11.2088037 C18.9128542,10.3707037 18.4504542,9.64593708 17.7727208,9.25380374 Z M5.31285417,11.2088037 L5.31285417,12.3421371 C5.31285417,12.9671704 4.80455417,13.4754704 4.17952084,13.4754704 C3.5544875,13.4754704 3.0461875,12.9671704 3.0461875,12.3421371 L3.0461875,11.2088037 C3.0461875,10.5837704 3.5544875,10.0754704 4.17952084,10.0754704 C4.80455417,10.0754704 5.31285417,10.5837704 5.31285417,11.2088037 Z M17.7795208,12.3421371 C17.7795208,12.9496037 17.2978542,13.4431704 16.6971875,13.4703704 L16.6529875,13.4494037 C16.6490208,13.4584704 16.6427875,13.4658371 16.6388208,13.4743371 C16.0162186,13.4702904 15.5134636,12.9647521 15.5128542,12.3421371 L15.5128542,11.2088037 C15.5128542,10.5837704 16.0211542,10.0754704 16.6461875,10.0754704 C17.2712208,10.0754704 17.7795208,10.5837704 17.7795208,11.2088037 L17.7795208,12.3421371 Z"
                    id="形状" stroke="#FFFFFF" stroke-width="0.2" fill="currentColor"></path>
            </g>
        </g>
    </g>
</svg>