<?xml version="1.0" encoding="UTF-8"?>
<svg width="20px" height="20px" viewBox="0 0 20 20" version="1.1" xmlns="http://www.w3.org/2000/svg"
    xmlns:xlink="http://www.w3.org/1999/xlink">
    <title>门户管理</title>
    <g id="用户中心" stroke="none" stroke-width="1" fill="none" fill-rule="evenodd">
        <g id="切图板板" transform="translate(-119.000000, -82.000000)" fill-rule="nonzero">
            <g id="大楼2-线型备份" transform="translate(119.000000, 82.000000)">
                <rect id="矩形" fill="#000000" opacity="0" x="0" y="0" width="20" height="20"></rect>
                <path
                    d="M11.4173358,1.94343847 C11.6311683,2.05974901 11.7993712,2.25389816 11.903156,2.51336012 L11.9568378,2.61088205 L11.9568378,6.87947902 L16.7783572,10.0341789 C16.9336104,10.1022201 17.0624092,10.2190814 17.1451828,10.367006 C17.2471782,10.5405771 17.2937024,10.7427785 17.2937024,10.9127708 L17.2937024,16.9519722 L17.8645188,16.9519722 C17.998694,16.9462158 18.1295632,16.9945665 18.2277656,17.0861767 C18.3198764,17.1841261 18.3685841,17.3150888 18.3628647,17.4494234 C18.3676176,17.5834016 18.3182865,17.7136617 18.2259762,17.8108808 C18.1289024,17.9035172 17.9986249,17.9531774 17.8645188,17.9486641 L1.86197726,17.9486641 C1.72787114,17.9531774 1.59759366,17.9035172 1.50051987,17.8108808 C1.40820958,17.7136617 1.35887843,17.5834016 1.36363131,17.4494234 C1.36363131,17.317903 1.4173131,17.188172 1.51215092,17.0942289 C1.60482712,17.001504 1.73088394,16.9499206 1.86197726,16.9510775 L2.43279362,16.9510775 L2.43279362,5.11513754 C2.43279362,4.88698993 2.50794812,4.66868398 2.63499503,4.48884999 C2.76472603,4.30454251 2.94813881,4.15781229 3.15839249,4.07997369 L10.6684749,1.83965367 C10.9494096,1.78955067 11.2052928,1.82802261 11.4173358,1.94343847 Z M11.9568378,8.01305948 L11.9568378,16.866976 L16.2961158,16.866976 L16.2961158,10.8367216 L11.9568378,8.01305948 Z M10.9681982,2.8247145 L3.43038022,5.08829664 L3.43038022,16.866976 L10.9681982,16.866976 L10.9681982,2.8247145 L10.9681982,2.8247145 Z M8.79408571,13.4805498 C8.92851544,13.4752743 9.0594189,13.5242825 9.15733248,13.6165436 C9.2492169,13.7142729 9.29790747,13.8448668 9.29243165,13.9788957 C9.29718453,14.1128739 9.24785337,14.243134 9.15554308,14.3403531 C9.05846929,14.4329895 8.92819182,14.4826497 8.79408571,14.4781364 L5.59554574,14.4781364 C5.46143962,14.4826497 5.33116214,14.4329895 5.23408835,14.3403531 C5.14177806,14.243134 5.09244691,14.1128739 5.09719979,13.9788957 C5.09719979,13.8303761 5.1464081,13.7051186 5.23408835,13.6174383 C5.33130749,13.5251281 5.46156753,13.4757969 5.59554574,13.4805498 L8.79408571,13.4805498 L8.79408571,13.4805498 Z M14.6659788,13.4805498 C14.8144984,13.4805498 14.9397559,13.5306528 15.0274362,13.6174383 C15.1197465,13.7146575 15.1690776,13.8449175 15.1643248,13.9788957 C15.1690776,14.1128739 15.1197465,14.243134 15.0274362,14.3403531 C14.9303624,14.4329895 14.8000849,14.4826497 14.6659788,14.4781364 L13.5968165,14.4781364 C13.4627104,14.4826497 13.3324329,14.4329895 13.2353591,14.3403531 C13.1427227,14.2432793 13.0930625,14.1130018 13.0975758,13.9788957 C13.0975758,13.8473753 13.1521523,13.7176443 13.2460955,13.6237012 C13.3389896,13.5307535 13.4654139,13.4791518 13.5968165,13.4805498 L14.6659788,13.4805498 L14.6659788,13.4805498 Z M8.79408571,10.2820098 C8.94260532,10.2820098 9.06786284,10.3321128 9.15554308,10.4188984 C9.24785337,10.5161175 9.29718452,10.6463775 9.29243165,10.7803557 C9.29718453,10.914334 9.24785337,11.044594 9.15554308,11.1418131 C9.05846929,11.2344495 8.92819182,11.2841097 8.79408571,11.2795964 L5.59554574,11.2795964 C5.46143962,11.2841097 5.33116214,11.2344495 5.23408835,11.1418131 C5.14177806,11.044594 5.09244691,10.914334 5.09719979,10.7803557 C5.09719979,10.6318361 5.1464081,10.5065786 5.23408835,10.4188984 C5.33130749,10.3265881 5.46156753,10.2772569 5.59554574,10.2820098 L8.79408571,10.2820098 L8.79408571,10.2820098 Z M8.79408571,7.08346983 C8.92851544,7.07819438 9.0594189,7.12720257 9.15733248,7.21946369 C9.2492169,7.31719291 9.29790747,7.44778682 9.29243165,7.58181577 C9.29718453,7.71579399 9.24785337,7.84605402 9.15554308,7.94327316 C9.05846929,8.03590954 8.92819182,8.08556976 8.79408571,8.08105642 L5.59554574,8.08105642 C5.46143962,8.08556977 5.33116214,8.03590954 5.23408835,7.94327316 C5.14177806,7.84605402 5.09244691,7.71579398 5.09719979,7.58181577 C5.09910614,7.44861729 5.15305508,7.32145192 5.2475088,7.22751596 C5.33957791,7.13497904 5.46501281,7.08338629 5.59554574,7.08436454 L8.79408571,7.08436454 L8.79408571,7.08346983 Z"
                    id="形状" stroke="currentColor" stroke-width="0.3" fill="currentColor"></path>
            </g>
        </g>
    </g>
</svg>