<?xml version="1.0" encoding="UTF-8"?>
<svg width="20px" height="20px" viewBox="0 0 20 20" version="1.1" xmlns="http://www.w3.org/2000/svg"
    xmlns:xlink="http://www.w3.org/1999/xlink">
    <title>租户管理</title>
    <g id="用户中心" stroke="none" stroke-width="1" fill="none" fill-rule="evenodd">
        <g id="切图板板" transform="translate(-51.000000, -82.000000)" fill-rule="nonzero">
            <g id="租房" transform="translate(51.000000, 82.000000)">
                <rect id="矩形" fill="#000000" opacity="0" x="0" y="0" width="20" height="20"></rect>
                <path
                    d="M16.2881291,9.8383611 C16.5256541,9.8383611 16.7224605,10.0317743 16.7224605,10.2726924 L16.7224605,10.2726924 L16.7224605,18.0567244 C16.7224605,18.2942493 16.5290473,18.4910557 16.2881291,18.4910557 L16.2881291,18.4910557 L3.98433672,18.4910557 C3.74681177,18.4910557 3.55000538,18.2976425 3.55000538,18.0567244 L3.55000538,18.0567244 L3.55000538,10.3744888 C3.55000538,10.1369639 3.74341856,9.94015751 3.98433672,9.94015751 C4.22186167,9.94015751 4.41866806,10.1335707 4.41866806,10.3744888 L4.41866806,10.3744888 L4.41866806,17.6189998 L15.8537978,17.6189998 L15.8537978,10.2726924 C15.8537978,10.0351675 16.047211,9.8383611 16.2881291,9.8383611 Z M7.84242055,9.59065651 C8.67036466,9.59065651 9.38972594,10.15393 9.58313911,10.9615148 L9.58313911,10.9615148 L9.59671197,11.0225926 L13.8619814,11.0225926 C14.062181,11.0225926 14.2216621,11.1854669 14.2216621,11.3822733 L14.2216621,11.3822733 L14.2216621,13.0653072 C14.2216621,13.2655068 14.0587878,13.4249878 13.8619814,13.4249878 C13.665175,13.4249878 13.505694,13.2621136 13.5158736,13.0687004 L13.5158736,13.0687004 L13.5158736,11.7453471 L11.9380293,11.7453471 L11.9380293,13.0687004 C11.9380293,13.2689 11.7751551,13.4283811 11.5783487,13.4283811 C11.3781491,13.4283811 11.2186681,13.2655068 11.2186681,13.0687004 L11.2186681,13.0687004 L11.2186681,11.7453471 L9.28114311,11.7453471 C9.08094351,11.7453471 8.92146247,11.5824729 8.92146247,11.3856665 C8.92146247,10.7918541 8.43962614,10.3100178 7.84581377,10.3100178 C7.25200139,10.3100178 6.77016506,10.7918541 6.77016506,11.3856665 C6.77016506,11.9794789 7.25200139,12.4613152 7.84581377,12.4613152 C7.94082375,12.4613152 8.03244051,12.4477423 8.12405728,12.4239898 C8.1545962,12.4138102 8.18513512,12.410417 8.21567405,12.410417 C8.3785483,12.410417 8.52106327,12.5189998 8.56178183,12.6750876 C8.58553432,12.7667044 8.57196147,12.8651076 8.52445648,12.9465447 C8.47695149,13.0279819 8.39890758,13.0890597 8.30729081,13.1128122 C8.1545962,13.1535308 7.99850838,13.17389 7.84242055,13.17389 C6.8549954,13.17389 6.05080379,12.3696984 6.05080379,11.3822733 C6.05080379,10.3948481 6.8549954,9.59065651 7.84242055,9.59065651 Z M10.2142768,1.49105571 C10.3330393,1.49105571 10.4484086,1.5385607 10.5298457,1.62339104 L10.5298457,1.62339104 L18.7516022,9.84514753 C18.8364325,9.92997787 18.8839375,10.0419539 18.8839375,10.1607164 C18.8839375,10.2794789 18.8364325,10.3914549 18.7516022,10.4762853 C18.6667718,10.5611156 18.5547958,10.6086206 18.4360333,10.6086206 C18.3172709,10.6086206 18.2052948,10.5611156 18.1204645,10.4762853 L18.1204645,10.4762853 L10.2142768,2.57009763 L2.30808921,10.4762853 C2.22325888,10.5611156 2.11128283,10.6086206 1.99252035,10.6086206 C1.87375788,10.6086206 1.76178183,10.5611156 1.67695149,10.4762853 C1.5038976,10.3032314 1.5038976,10.0182014 1.67695149,9.84514753 L1.67695149,9.84514753 L9.89870798,1.62339104 C9.98353832,1.5385607 10.0955144,1.49105571 10.2142768,1.49105571 Z"
                    id="形状结合" stroke="#currentColor" stroke-width="0.5" fill="currentColor"></path>
            </g>
        </g>
    </g>
</svg>