<?xml version="1.0" encoding="UTF-8"?>
<svg width="20px" height="20px" viewBox="0 0 20 20" version="1.1" xmlns="http://www.w3.org/2000/svg"
    xmlns:xlink="http://www.w3.org/1999/xlink">
    <title>用户与权限</title>
    <g id="用户中心" stroke="none" stroke-width="1" fill="none" fill-rule="evenodd">
        <g id="切图板板" transform="translate(-85.000000, -82.000000)" fill-rule="nonzero">
            <g id="权限备份" transform="translate(85.000000, 82.000000)">
                <rect id="矩形" fill="#000000" opacity="0" x="0" y="0" width="20" height="20"></rect>
                <path
                    d="M16,2 C17.1045695,2 18,2.8954305 18,4 L18,9.70633333 C18,9.9445347 17.8729785,10.1646574 17.6666961,10.2837687 C17.4604138,10.4028799 17.2062529,10.4028799 16.9999705,10.2837687 C16.7936882,10.1646574 16.6666302,9.9445347 16.6666667,9.70633333 L16.6666667,7.33333333 L3.33333333,7.33333333 L3.33333333,16 C3.33322293,16.3488749 3.60210765,16.6388344 3.95,16.665 L4,16.6666667 L9.234,16.6666667 C9.47220137,16.6666302 9.69232411,16.7936882 9.81143532,16.9999705 C9.93054654,17.2062529 9.93054654,17.4604138 9.81143532,17.6666961 C9.69232411,17.8729785 9.47220137,18 9.234,18 L4,18 C2.8954305,18 2,17.1045695 2,16 L2,4 C2,2.8954305 2.8954305,2 4,2 L16,2 Z M14.1676667,9.66666667 C15.5713333,9.66666667 16.3016667,10.6036667 16.334,12.028 C17.2960146,12.1909447 18,13.0242833 18,14 L18,16 C18,17.1045695 17.1045695,18 16,18 L12.6666667,18 C11.5620972,18 10.6666667,17.1045695 10.6666667,16 L10.6666667,14 C10.6665633,13.152235 11.2007861,12.3964433 12,12.1136667 C12.0156667,10.617 12.7313333,9.66666667 14.1676667,9.66666667 L14.1676667,9.66666667 Z M16,13.3333333 L12.6666667,13.3333333 C12.2984768,13.3333333 12,13.6318102 12,14 L12,16 C12,16.3681898 12.2984768,16.6666667 12.6666667,16.6666667 L16,16.6666667 C16.3681898,16.6666667 16.6666667,16.3681898 16.6666667,16 L16.6666667,14 C16.6666667,13.6318102 16.3681898,13.3333333 16,13.3333333 L16,13.3333333 Z M7.52366667,12.6666667 C7.76186804,12.6666302 7.98199078,12.7936882 8.101102,12.9999705 C8.22021321,13.2062529 8.22021321,13.4604138 8.101102,13.6666961 C7.98199078,13.8729785 7.76186804,14.0000365 7.52366667,14 L5.33333333,14 C5.09513196,14.0000365 4.87500922,13.8729785 4.755898,13.6666961 C4.63678679,13.4604138 4.63678679,13.2062529 4.755898,12.9999705 C4.87500922,12.7936882 5.09513196,12.6666302 5.33333333,12.6666667 L7.52366667,12.6666667 Z M14.1676667,11 C13.595,11 13.3653333,11.2626667 13.3363333,12 L15,12 C14.9766667,11.281 14.735,11 14.168,11 L14.1676667,11 Z M10.3333333,9.33333333 C10.7015232,9.33333333 11,9.63181016 11,10 C11,10.3681898 10.7015232,10.6666667 10.3333333,10.6666667 L5.33333333,10.6666667 C4.96514349,10.6666667 4.66666666,10.3681898 4.66666666,10 C4.66666666,9.63181016 4.96514349,9.33333333 5.33333333,9.33333333 L10.3333333,9.33333333 Z M16,3.33333333 L4,3.33333333 C3.63181016,3.33333333 3.33333333,3.63181016 3.33333333,4 L3.33333333,6 L16.6666667,6 L16.6666667,4 C16.6666667,3.65112508 16.3978923,3.3611656 16.05,3.335 L16,3.33333333 Z"
                    id="形状" fill="currentColor"></path>
            </g>
        </g>
    </g>
</svg>