<?xml version="1.0" encoding="UTF-8"?>
<svg width="20px" height="20px" viewBox="0 0 20 20" version="1.1" xmlns="http://www.w3.org/2000/svg"
    xmlns:xlink="http://www.w3.org/1999/xlink">
    <title>24gl-archiveBox</title>
    <defs>
        <linearGradient x1="0%" y1="0%" x2="100%" y2="100%" id="linearGradient-1">
            <stop stop-color="#7A68FF" offset="0%"></stop>
            <stop stop-color="#6F94FF" offset="21.0551387%"></stop>
            <stop stop-color="#7DBEFF" offset="75.82392%"></stop>
            <stop stop-color="#80FFF3" offset="100%"></stop>
        </linearGradient>
    </defs>
    <g id="页面-1" stroke="none" stroke-width="1" fill="none" fill-rule="evenodd">
        <g id="协调调度" transform="translate(-30.000000, -283.000000)" fill-rule="nonzero">
            <g id="编组-16" transform="translate(0.000000, 94.000000)">
                <g id="编组-2备份-2" transform="translate(0.000000, 172.000000)">
                    <g id="24gl-archiveBox" transform="translate(30.000000, 17.000000)">
                        <rect id="矩形" fill="#000000" opacity="0" x="0" y="0" width="20" height="20"></rect>
                        <path
                            d="M14.1412592,1.89999488 C14.6092594,1.89950463 15.0494873,2.11000147 15.3427418,2.46763834 L15.4348864,2.59221267 L18.035315,6.4907452 L18.0681636,6.55807671 L18.0873037,6.62217543 L18.0971738,6.69137793 L18.0979527,9.81831182 C18.0973601,10.257588 17.8140666,10.6411295 17.4053054,10.7763474 L17.37,10.785 L17.3706909,17.0910265 C17.3701519,17.5708936 17.0350428,17.9723652 16.5860022,18.0747361 L16.4714962,18.0939699 L16.3615881,18.1000009 L3.636254,18.1000009 C3.11639785,18.0994258 2.68854053,17.7061943 2.63329469,17.2008224 L2.6272618,17.0909142 L2.627,10.785 L2.59264741,10.7763473 C2.26233531,10.6670795 2.01395296,10.3956505 1.93046791,10.0636197 L1.90705263,9.93646576 L1.9,9.81815329 L1.90399146,6.66037647 L1.92598208,6.56897349 L1.94686907,6.51971353 L1.97736167,6.46724981 L4.56104538,2.59235506 C4.82018716,2.20267302 5.23951222,1.95314668 5.69977027,1.90755682 L5.85454208,1.89999488 L14.1412592,1.89999488 Z M6.36159352,11.0194299 L3.72301498,11.0194299 L3.62301498,11.1194299 L3.62301498,17.0909142 L3.63045816,17.1555339 C3.65966696,17.2800368 3.77142717,17.3727382 3.90483896,17.3727382 L3.90483896,17.3727382 L16.1201242,17.3727382 L16.193264,17.3630828 C16.2405649,17.3503701 16.284169,17.3254287 16.3194038,17.2901939 C16.3722561,17.2373416 16.4019482,17.1656586 16.4019482,17.0909142 L16.4019482,17.0909142 L16.4019482,11.1194299 L16.3019482,11.0194299 L13.6343138,11.0194299 L13.5343138,11.1194299 L13.5290763,11.2678762 C13.452694,12.3467202 12.5504288,13.4205687 11.4524952,13.4205687 L11.4524952,13.4205687 L8.54341301,13.4205687 L8.3949667,13.4153312 C7.31612257,13.3389489 6.46159352,12.2173642 6.46159352,11.1194299 L6.46159352,11.1194299 L6.36159352,11.0194299 Z M12.5963137,11.0384334 L7.31626258,11.0384334 L7.21626264,11.1385434 L7.22275891,11.279963 C7.29497529,12.0717701 7.96027969,12.6920922 8.77071147,12.6929741 L8.77071147,12.6929741 L11.141756,12.6929741 L11.2831928,12.6864795 C12.0750924,12.6142723 12.6954224,11.9489752 12.6963136,11.1385434 L12.6963136,11.1385434 L12.5963137,11.0384334 Z M16.9431169,6.99090256 L3.02600314,6.99090256 L2.92600314,7.09090256 L2.92600314,9.81817692 L2.93344631,9.88279657 C2.96265511,10.0072995 3.07441533,10.1000009 3.20782711,10.1000009 L3.20782711,10.1000009 L16.7612929,10.1000009 L16.8259126,10.0925577 C16.9504155,10.0633489 17.0431169,9.9515887 17.0431169,9.81817692 L17.0431169,9.81817692 L17.0431169,7.09090256 L16.9431169,6.99090256 Z M14.1413652,2.82726249 L5.85441971,2.82726249 C5.6796565,2.82704909 5.51449278,2.89982181 5.39705955,3.02521279 L5.33263232,3.10659861 L3.228,6.263 L16.767,6.263 L14.6632039,3.10649182 C14.5664473,2.96095727 14.4142847,2.86389315 14.2448882,2.83572959 L14.1413652,2.82726249 Z"
                            id="形状结合" fill="url(#linearGradient-1)"></path>
                    </g>
                </g>
            </g>
        </g>
    </g>
</svg>