<?xml version="1.0" encoding="UTF-8"?>
<svg width="20px" height="20px" viewBox="0 0 20 20" version="1.1" xmlns="http://www.w3.org/2000/svg"
    xmlns:xlink="http://www.w3.org/1999/xlink">
    <title>调度</title>
    <defs>
        <linearGradient x1="0%" y1="0%" x2="100%" y2="100%" id="linearGradient-1">
            <stop stop-color="#7A68FF" offset="0%"></stop>
            <stop stop-color="#6F94FF" offset="21.0551387%"></stop>
            <stop stop-color="#7DBEFF" offset="75.82392%"></stop>
            <stop stop-color="#80FFF3" offset="100%"></stop>
        </linearGradient>
    </defs>
    <g id="页面-1" stroke="none" stroke-width="1" fill="none" fill-rule="evenodd">
        <g id="协调调度" transform="translate(-30.000000, -187.000000)" fill-rule="nonzero">
            <g id="编组-16" transform="translate(0.000000, 94.000000)">
                <g id="编组-2备份" transform="translate(0.000000, 76.000000)">
                    <g id="调度" transform="translate(30.000000, 17.000000)">
                        <rect id="矩形" fill="#000000" opacity="0" x="0" y="0" width="20" height="20"></rect>
                        <path
                            d="M15.6666719,2.15 L4.33332812,2.15 C3.16909072,2.15 2.23448931,3.03398239 2.15542045,4.17605062 L2.15,4.33332812 L2.15,15.6666719 C2.15,16.8309093 3.03398239,17.7655107 4.17605062,17.8445796 L4.33332812,17.85 L15.6666719,17.85 C16.8309093,17.85 17.7655107,16.9660176 17.8445796,15.8239494 L17.85,15.6666719 L17.85,4.33332812 C17.85,3.16909072 16.9660176,2.23448931 15.8239494,2.15542045 L15.6666719,2.15 Z M15.6666719,3.18332812 C16.2728709,3.18332812 16.7492762,3.61932014 16.8101027,4.20551912 L16.8166719,4.33332812 L16.8166719,15.6666719 C16.8166719,16.2728709 16.3806799,16.7492762 15.7944809,16.8101027 L15.6666719,16.8166719 L4.33332812,16.8166719 C3.72712909,16.8166719 3.25072381,16.3806799 3.18989732,15.7944809 L3.18332812,15.6666719 L3.18332812,4.33332812 C3.18332812,3.72712909 3.61932014,3.25072381 4.20551912,3.18989732 L4.33332812,3.18332812 L15.6666719,3.18332812 Z M8.16667187,11.0166719 C7.59526364,11.0166719 7.10815613,11.3096631 6.83846195,11.7915614 L6.77039942,11.9275936 L6.63332812,12.0166719 L5.96667187,12.0166719 C5.72553892,12.0166719 5.53118554,12.1904347 5.49097285,12.4140496 L5.48332812,12.5 L5.48332812,12.5333281 C5.48332812,12.7744627 5.65709233,12.9688148 5.88071729,13.0090272 L5.96667187,13.0166719 L6.63332812,13.0166719 L6.77039942,13.1057501 C7.02028783,13.6679881 7.54331743,14.0166719 8.16667187,14.0166719 C8.73807666,14.0166719 9.22517247,13.7236839 9.49486605,13.2417832 L9.56292871,13.1057501 L9.7,13.0166719 L14.0333281,13.0166719 C14.2744627,13.0166719 14.4688148,12.8429077 14.5090272,12.6192827 L14.5166719,12.5333281 L14.5166719,12.5 C14.5166719,12.2773446 14.3326958,12.0686321 14.1158788,12.0250004 L14.0333281,12.0166719 L9.7,12.0166719 L9.56292871,11.9275936 C9.31303858,11.3653518 8.79002255,11.0166719 8.16667187,11.0166719 Z M11.8333281,6.01667187 C11.2619233,6.01667187 10.7748275,6.30965988 10.505134,6.79156058 L10.4370713,6.92759364 L10.3,7.01667187 L5.96667187,7.01667187 C5.72553892,7.01667187 5.53118554,7.19043467 5.49097285,7.4140496 L5.48332812,7.5 L5.48332812,7.53332812 C5.48332812,7.77446271 5.65709233,7.96881482 5.88071729,8.00902721 L5.96667187,8.01667187 L10.3,8.01667187 L10.4370713,8.10575011 C10.6869614,8.66799193 11.2099774,9.01667187 11.8333281,9.01667187 C12.4047364,9.01667187 12.8918439,8.72368062 13.161538,8.24178236 L13.2296006,8.10575011 L13.3666719,8.01667187 L14.0333281,8.01667187 C14.2744627,8.01667187 14.4688148,7.84290767 14.5090272,7.61928271 L14.5166719,7.53332812 L14.5166719,7.5 C14.5166719,7.27734457 14.3326958,7.06863213 14.1158788,7.02500042 L14.0333281,7.01667187 L13.3666719,7.01667187 L13.2296006,6.92759364 C12.9797122,6.36535568 12.4566826,6.01667187 11.8333281,6.01667187 Z"
                            id="形状" fill="url(#linearGradient-1)"></path>
                    </g>
                </g>
            </g>
        </g>
    </g>
</svg>