<?xml version="1.0" encoding="UTF-8"?>
<svg width="20px" height="20px" viewBox="0 0 20 20" version="1.1" xmlns="http://www.w3.org/2000/svg"
  xmlns:xlink="http://www.w3.org/1999/xlink">
  <title>设置</title>
  <defs>
    <linearGradient x1="0%" y1="0%" x2="100%" y2="100%" id="linearGradient-1">
      <stop stop-color="#7A68FF" offset="0%"></stop>
      <stop stop-color="#6F94FF" offset="21.0551387%"></stop>
      <stop stop-color="#7DBEFF" offset="75.82392%"></stop>
      <stop stop-color="#80FFF3" offset="100%"></stop>
    </linearGradient>
  </defs>
  <g id="设置" stroke="none" stroke-width="1" fill="none" fill-rule="evenodd">
    <g id="系统设置" transform="translate(-30.000000, -497.000000)" fill-rule="nonzero">
      <g id="星球" transform="translate(0.000000, 64.000000)">
        <g id="设置" transform="translate(30.000000, 433.000000)">
          <rect id="矩形" fill="#000000" opacity="0" x="0" y="0" width="20" height="20"></rect>
          <path
            d="M10.0273988,6.74570377 C8.00410814,6.74570377 6.35801943,8.37329571 6.35801943,10.3738783 C6.35801943,12.3745641 8.00410814,14.0023006 10.0273988,14.0023006 C10.224278,14.0023006 10.4324286,13.9820904 10.6838071,13.9385321 C11.0594608,13.8707795 11.3091259,13.5145308 11.2404236,13.1443477 C11.1800614,12.8195808 10.8958181,12.5838295 10.5644038,12.5838295 C10.5216301,12.5838295 10.478526,12.5878757 10.4379817,12.5954519 C10.2741119,12.6244151 10.1441597,12.637916 10.0290916,12.637916 C8.76652189,12.637916 7.73939376,11.6222245 7.73939376,10.3738783 C7.73939376,9.12561469 8.76497361,8.11006767 10.0256235,8.11006767 C11.2873055,8.11006767 12.3136079,9.12561469 12.3136079,10.3738783 C12.3136079,10.4955317 12.300045,10.623337 12.2705038,10.7770914 C12.2018015,11.1472126 12.4515492,11.5035438 12.8270378,11.5711313 C12.8684491,11.5785631 12.9105416,11.5824234 12.9523452,11.5824234 C13.286856,11.5824234 13.5720695,11.3464658 13.6301403,11.0226278 C13.6742972,10.7862159 13.6949219,10.5801297 13.6949219,10.3740435 C13.695808,9.40638988 13.3143327,8.49567166 12.6207658,7.80959837 C11.9272195,7.12352508 11.0061794,6.74570377 10.0273988,6.74570377 L10.0273988,6.74570377 Z"
            id="路径" fill="url(#linearGradient-1)"></path>
          <path
            d="M12.7972703,2.00049866 L12.7194705,2.006916 C12.6173405,2.02387508 12.5225966,2.07382949 12.4521497,2.14939681 C11.8095467,2.83171602 10.9379422,3.20798817 10.000105,3.20798817 C9.06211764,3.20798817 8.18996198,2.83111128 7.54616863,2.14770533 C7.42105474,2.0153327 7.21816551,1.96529069 7.04396089,2.02485267 C5.96015226,2.40011648 4.97658476,2.96250987 4.12003567,3.69654683 C3.98069729,3.81653968 3.92543252,4.00620416 3.97863239,4.17974964 C4.25551439,5.07385829 4.14913454,6.01106216 3.67929594,6.81625763 C3.2105395,7.62143361 2.44336649,8.18071357 1.52131093,8.3903575 C1.33730046,8.43356592 1.19673305,8.57794999 1.16261882,8.75703644 C1.05469403,9.31792332 1,9.87882551 1,10.4238672 C1,10.9689037 1.0546764,11.5298071 1.16258789,12.090849 C1.19683411,12.270618 1.33689017,12.4142154 1.51997303,12.4560086 C2.44089265,12.6650299 3.2085138,13.2243623 3.6793703,14.0299456 C4.14918945,14.8351958 4.25548195,15.7724289 3.97861303,16.6664579 C3.92562498,16.8393033 3.98104017,17.0296782 4.12017823,17.1514477 C4.98429716,17.8887435 5.96783474,18.450451 7.04412682,18.8214447 C7.22375949,18.8823249 7.41996374,18.8328958 7.54447928,18.7000692 C8.18842087,18.0167206 9.0605127,17.6398931 9.99825753,17.6398931 C10.9359457,17.6398931 11.808235,18.0166803 12.451831,18.6999192 C12.5396036,18.7939782 12.6658479,18.8483693 12.7976085,18.8483693 C12.8506772,18.8483693 12.9030762,18.839887 12.9542644,18.823128 C14.03057,18.4521219 15.0141437,17.8903003 15.8781834,17.1531311 C16.0172271,17.0333114 16.0726091,16.8428124 16.0197729,16.6680922 C15.7426301,15.7731969 15.8495904,14.8360473 16.3206873,14.0317214 C16.7897654,13.2260949 17.5573909,12.6667656 18.4800684,12.4576863 C18.6608917,12.4165367 18.8011308,12.2729386 18.8375213,12.0925599 C18.9453613,11.5313957 19,10.9705434 19,10.4256936 C19,9.87959116 18.9453756,9.31808943 18.8375811,8.75721097 C18.8031252,8.57709771 18.6630505,8.43354954 18.4799542,8.39191723 C17.5592221,8.18301144 16.7915532,7.62352986 16.3206994,6.81792615 C15.85136,6.01365864 15.7442316,5.07644417 16.0196468,4.18176589 C16.0750655,4.00709259 16.0197946,3.81677688 15.8780929,3.69649032 C15.0138101,2.95895939 14.0296628,2.39716117 12.9525656,2.02655066 L12.8760065,2.00703593 L12.7972703,2.00049866 Z M7.15425762,3.45636607 L7.3112083,3.48322017 C8.05708634,4.13551403 9.00655593,4.49228769 9.99827852,4.49228769 C10.9102041,4.49228769 11.7839839,4.19300471 12.4955905,3.64162991 L12.6855511,3.4850402 L12.8426167,3.45808848 C13.3915686,3.67713367 13.9101942,3.95755404 14.3904926,4.2947926 L14.6740084,4.50391746 L14.7300237,4.65529888 C14.5314909,5.61930608 14.6932252,6.60957263 15.1883118,7.45788563 C15.6411076,8.23524224 16.340872,8.8336578 17.1841601,9.16998936 L17.4176285,9.25515574 L17.5205752,9.37801202 C17.5716342,9.72942027 17.5974225,10.0813558 17.5974159,10.4259817 C17.5997236,10.6752084 17.5861068,10.9350251 17.5568306,11.2022564 L17.5223446,11.4718416 L17.4194102,11.5945949 C16.4719119,11.9087527 15.6839873,12.5437218 15.1899282,13.3916994 C14.7368022,14.1681561 14.562703,15.0650467 14.6884925,15.9526678 L14.7302497,16.194419 L14.6741876,16.3455086 C14.2094452,16.7054354 13.7048014,17.0093786 13.1682891,17.2527565 L12.8426218,17.3914787 L12.6855721,17.3645206 C11.9425881,16.7134704 10.9930616,16.3572731 9.99829952,16.3572731 C9.09138447,16.3572731 8.21794059,16.6566627 7.5023405,17.2083184 L7.31118376,17.364989 L7.15450849,17.3916282 C6.60563469,17.1727142 6.08693247,16.892295 5.60649366,16.5549751 L5.32288672,16.345792 L5.26694666,16.1940353 C5.46711689,15.2342338 5.30472699,14.2439773 4.80657264,13.3916869 C4.35371213,12.6143782 3.65384498,12.0159888 2.81060769,11.6797567 L2.57715711,11.5946193 L2.47420557,11.4718152 C2.42317838,11.1215471 2.3973711,10.769588 2.3973711,10.4238672 C2.3973711,10.194354 2.40883944,9.96150931 2.43160198,9.72765096 L2.47419469,9.37639285 L2.57732963,9.25345684 C3.52160368,8.94169021 4.30945429,8.30668974 4.80662614,7.45614465 C5.26078465,6.67785441 5.4350377,5.78073182 5.30851818,4.89482648 L5.26654001,4.65359175 L5.32257191,4.50227822 C5.88017293,4.07053596 6.49532986,3.71928165 7.15425762,3.45636607 Z"
            id="形状" fill="url(#linearGradient-1)"></path>
        </g>
      </g>
    </g>
  </g>
</svg>
