<?xml version="1.0" encoding="UTF-8"?>
<svg width="20px" height="20px" viewBox="0 0 20 20" version="1.1" xmlns="http://www.w3.org/2000/svg"
    xmlns:xlink="http://www.w3.org/1999/xlink">
    <title>交易线性</title>
    <defs>
        <linearGradient x1="0%" y1="0%" x2="100%" y2="100%" id="linearGradient-1">
            <stop stop-color="#7A68FF" offset="0%"></stop>
            <stop stop-color="#6F94FF" offset="21.0551387%"></stop>
            <stop stop-color="#7DBEFF" offset="75.82392%"></stop>
            <stop stop-color="#80FFF3" offset="100%"></stop>
        </linearGradient>
    </defs>
    <g id="页面-1" stroke="none" stroke-width="1" fill="none" fill-rule="evenodd">
        <g id="协调调度" transform="translate(-30.000000, -133.000000)" fill-rule="nonzero">
            <g id="编组-16" transform="translate(0.000000, 94.000000)">
                <g id="编组-2备份-8" transform="translate(0.000000, 22.000000)">
                    <g id="交易线性" transform="translate(30.000000, 17.000000)">
                        <rect id="矩形" fill="#000000" opacity="0" x="0" y="0" width="20" height="20"></rect>
                        <path
                            d="M10.7946746,2.00098524 C14.1654881,1.94099118 17.0034691,4.62843811 17.1185808,7.99792169 C17.1616237,9.25923248 16.8272022,10.4389539 16.2214986,11.4357377 C17.5301798,11.5306685 18.4753713,12.3892887 18.8999528,13.0262559 C19.0073172,13.160472 19.0471092,13.446531 18.9238279,13.7332021 C18.9093255,13.7669778 18.8824738,13.7942939 18.8502392,13.8120261 L18.8502392,13.8120261 L11.1635262,18.0321715 L1.18015107,18.0321715 C1.13237398,18.0321715 1.08655179,18.0132016 1.05276631,17.9794201 C1.01898082,17.9456386 1,17.8998186 1,17.8520415 L1,17.8520415 L1,10.3763633 C1,10.3285826 1.01897275,10.2827572 1.05275884,10.2489711 C1.08654494,10.215185 1.13237032,10.1962066 1.18015107,10.1962122 L1.18015107,10.1962122 L5.01804009,10.1962122 C4.80263356,9.55778622 4.692779,8.88850552 4.69280134,8.21471938 C4.69280134,4.82011513 7.41440394,2.06123262 10.7946746,2.00098524 Z M3.70205491,11.0969042 L2.08082197,11.0969042 C1.98133894,11.0969042 1.90069201,11.1775512 1.90069201,11.2770342 L1.90069201,11.2770342 L1.90069201,16.9513495 C1.90069201,16.9991266 1.91966186,17.0449488 1.95344339,17.0787343 C1.98722491,17.1125198 2.03304487,17.1315006 2.08082197,17.1315006 L2.08082197,17.1315006 L3.70205491,17.1315006 C3.74983566,17.1315006 3.79566105,17.1125278 3.82944714,17.0787417 C3.86323323,17.0449557 3.88220598,16.9991303 3.88220598,16.9513495 L3.88220598,16.9513495 L3.88220598,11.2770342 C3.88220598,11.2292571 3.86322516,11.1834372 3.82943967,11.1496556 C3.79565419,11.1158741 3.74983201,11.0969042 3.70205491,11.0969042 L3.70205491,11.0969042 Z M5.0957875,11.0969042 L4.78287688,11.0969042 L4.78287688,17.1220434 L10.8601572,17.1220434 L17.8997491,13.2964825 L17.8997491,13.2964825 L17.7877368,13.1845496 C17.2761022,12.6779583 16.2088351,11.7284189 14.8042708,12.5711496 C13.4390153,13.3297093 11.4669586,14.3915325 11.4669586,14.3915325 L11.4669586,14.3915325 L11.4405832,14.4040986 C11.2317893,14.5010369 9.81000133,15.1149784 8.12966742,14.6948804 L8.12966742,14.6948804 L5.85424165,14.239753 L5.85424165,14.239753 L5.83893704,14.2331878 C5.66336304,14.2007124 5.53359319,14.0511174 5.52623752,13.8727168 C5.52036899,13.7238505 5.61287215,13.5886633 5.74409069,13.5179455 C5.83469397,13.4691185 5.91638891,13.4675986 5.99141316,13.4841698 C5.9964584,13.4831776 8.28132026,13.936384 8.28132026,13.936384 C10.0068567,14.1592191 10.5472677,13.979068 11.1351547,13.6615343 L11.1351547,13.6615343 L5.0957875,11.0969042 Z M10.9940989,2.90138171 C8.0195798,2.85401131 5.593491,5.25100845 5.593491,8.21471938 C5.59272363,9.03104288 5.78099384,9.83645675 6.14355151,10.5678503 L6.14355151,10.5678503 L12.0737388,13.0263614 C12.832214,12.5712341 13.5906682,12.1161067 14.3491434,11.8127588 C14.5701547,11.7091723 14.7995006,11.624391 15.0347476,11.5593145 C15.8300595,10.5794607 16.2848913,9.31219698 16.214469,7.93630218 C16.0724212,5.16103846 13.7727191,2.94560675 10.9940989,2.90138171 Z M9.39638232,5.34612922 L10.9067564,6.85637549 L12.4187152,5.34612922 C12.4749884,5.28986983 12.5592209,5.27861796 12.6266778,5.31237359 L12.6734261,5.34612922 L13.0555769,5.72828001 C13.1118362,5.78455324 13.1230881,5.86878569 13.0893325,5.9362426 L13.0555769,5.9829909 L12.0957564,6.94137549 L12.7989872,6.94150266 C12.8984702,6.94150266 12.9791171,7.02214959 12.9791171,7.12163262 L12.9791171,7.6620436 C12.9791171,7.70982069 12.9601473,7.75564288 12.9263658,7.78942836 C12.8925842,7.82321385 12.8467643,7.84219467 12.7989872,7.84219467 L11.3577564,7.84137549 L11.3577564,8.64437549 L12.7989872,8.64459943 C12.8467643,8.64459943 12.8925842,8.66358025 12.9263658,8.69736574 C12.9601473,8.73115122 12.9791171,8.7769734 12.9791171,8.8247505 L12.9791171,9.36516148 C12.9791171,9.46464451 12.8984702,9.54529144 12.7989872,9.54529144 L11.3577564,9.54437549 L11.3578842,10.9167743 C11.3578842,11.0162573 11.2772373,11.0969043 11.1777542,11.0969043 L10.6373433,11.0969043 C10.5895662,11.0969043 10.543744,11.0779344 10.5099585,11.0441529 C10.476173,11.0103713 10.4571922,10.9645514 10.4571922,10.9167743 L10.4567564,9.54437549 L9.01611031,9.54529144 C8.96833322,9.54529144 8.92251104,9.52632158 8.88872555,9.49254006 C8.85494007,9.45875853 8.83595925,9.41293857 8.83595925,9.36516148 L8.83595925,8.8247505 C8.83595925,8.77696975 8.854932,8.73114436 8.88871809,8.69735827 C8.92250418,8.66357218 8.96832956,8.64459943 9.01611031,8.64459943 L10.4567564,8.64437549 L10.4567564,7.84137549 L9.01611031,7.84219467 C8.96832956,7.84219467 8.92250418,7.82322192 8.88871809,7.78943583 C8.854932,7.75564973 8.83595925,7.70982435 8.83595925,7.6620436 L8.83595925,7.12163262 C8.83595925,7.07385553 8.85494007,7.02803557 8.88872555,6.99425404 C8.92251104,6.96047251 8.96833322,6.94150266 9.01611031,6.94150266 L9.71775636,6.94137549 L8.75949954,5.9829909 C8.6891753,5.91264936 8.6891753,5.79862154 8.75949954,5.72828001 L9.14165032,5.34612922 C9.21199427,5.27579092 9.32603837,5.27579092 9.39638232,5.34612922 Z"
                            id="形状结合" fill="url(#linearGradient-1)"></path>
                    </g>
                </g>
            </g>
        </g>
    </g>
</svg>