<?xml version="1.0" encoding="UTF-8"?>
<svg width="20px" height="20px" viewBox="0 0 20 20" version="1.1" xmlns="http://www.w3.org/2000/svg"
    xmlns:xlink="http://www.w3.org/1999/xlink">
    <title>设备状态</title>
    <g id="用户中心" stroke="none" stroke-width="1" fill="none" fill-rule="evenodd">
        <g id="切图板板" transform="translate(-85.000000, -462.000000)" fill-rule="nonzero">
            <g id="设备状态" transform="translate(85.000000, 462.000000)">
                <rect id="矩形" fill="#000000" opacity="0" x="0" y="0" width="20" height="20"></rect>
                <path
                    d="M16.5357143,2.25 L3.96428571,2.25 C3.01751186,2.25 2.25,3.01751186 2.25,3.96428571 L2.25,14.25 C2.25,15.1967739 3.01751186,15.9642857 3.96428571,15.9642857 L9.67857143,15.9642857 L9.67857143,17.1071429 L5.67857143,17.1071429 C5.36298014,17.1071429 5.10714286,17.3629801 5.10714286,17.6785714 C5.10714286,17.9941627 5.36298014,18.25 5.67857143,18.25 L14.8214286,18.25 C15.1370199,18.25 15.3928571,17.9941627 15.3928571,17.6785714 C15.3928571,17.3629801 15.1370199,17.1071429 14.8214286,17.1071429 L10.8214286,17.1071429 L10.8214286,15.9642857 L16.5357143,15.9642857 C17.4824881,15.9642857 18.25,15.1967739 18.25,14.25 L18.25,3.96428571 C18.25,3.01751186 17.4824881,2.25 16.5357143,2.25 L16.5357143,2.25 Z M3.96428571,3.39285714 L16.5357143,3.39285714 C16.8513056,3.39285714 17.1071429,3.64869443 17.1071429,3.96428571 L17.1071429,11.9642857 L3.39285714,11.9642857 L3.39285714,3.96428571 C3.39285714,3.64869443 3.64869443,3.39285714 3.96428571,3.39285714 Z M17.1071429,14.25 C17.1071429,14.5655913 16.8513056,14.8214286 16.5357143,14.8214286 L3.96428571,14.8214286 C3.64869443,14.8214286 3.39285714,14.5655913 3.39285714,14.25 L3.39285714,13.1071429 L17.1071429,13.1071429 L17.1071429,14.25 Z"
                    id="形状" fill="currentColor"></path>
            </g>
        </g>
    </g>
</svg>