<?xml version="1.0" encoding="UTF-8"?>
<svg width="20px" height="20px" viewBox="0 0 20 20" version="1.1" xmlns="http://www.w3.org/2000/svg"
  xmlns:xlink="http://www.w3.org/1999/xlink">
  <title>提交付款</title>
  <g id="页面-1" stroke="none" stroke-width="1" fill="none" fill-rule="evenodd">
    <g id="项目台账-1" transform="translate(-30.000000, -373.000000)" fill-rule="nonzero">
      <g id="2备份-4" transform="translate(20.000000, 356.000000)">
        <g id="提交付款" transform="translate(10.000000, 17.000000)">
          <rect id="矩形" fill="#000000" opacity="0" x="0" y="0" width="20" height="20"></rect>
          <path
            d="M16.8921875,12.6525 L16.8921875,4.31083984 C16.8921875,3.30054687 16.0702539,2.47861328 15.0599414,2.47861328 L4.95666016,2.47861328 C3.94636719,2.47861328 3.12443359,3.30054687 3.12443359,4.31083984 L3.12443359,12.6524805 L1.24328125,12.6524805 L1.24328125,15.1416016 C1.24328125,16.4553711 2.31212891,17.5241797 3.62589844,17.5241797 L16.4083594,17.5241797 C17.7221289,17.5241797 18.7909375,16.4553516 18.7909375,15.1416016 L18.7909375,12.6525 L16.8921875,12.6525 Z M4.37443359,4.31083984 C4.37443359,3.98978516 4.635625,3.72861328 4.95666016,3.72861328 L15.0599414,3.72861328 C15.3809961,3.72861328 15.6421875,3.98980469 15.6421875,4.31083984 L15.6421875,12.6524805 L11.8065625,12.6524805 L11.8065625,13.2774805 C11.8065625,13.5985352 11.5453711,13.8597266 11.2243164,13.8597266 L8.80986328,13.8597266 C8.48880859,13.8597266 8.22763672,13.5985352 8.22763672,13.2774805 L8.22763672,12.6524805 L4.37443359,12.6524805 L4.37443359,4.31083984 Z M17.5409375,15.1416211 C17.5409375,15.7661328 17.0328516,16.2741992 16.4083594,16.2741992 L3.62589844,16.2741992 C3.00136719,16.2741992 2.49328125,15.7661133 2.49328125,15.1416211 L2.49328125,13.9025 L7.08742187,13.9025 C7.34349609,14.6059766 8.01898437,15.1097461 8.80986328,15.1097461 L11.2243359,15.1097461 C12.0152344,15.1097461 12.6907227,14.6059766 12.9467969,13.9025 L17.5409375,13.9025 L17.5409375,15.1416211 Z M9.098125,10.6483203 L9.10089844,10.6483203 C9.26636682,10.6483203 9.42508263,10.5827033 9.54224609,10.4658594 L12.6953711,7.32115234 C12.9397852,7.07740234 12.9403125,6.68167969 12.696582,6.43726562 C12.452832,6.19287109 12.0571094,6.19234375 11.8126953,6.43607422 L9.10480469,9.13673828 L8.22541016,8.24410156 C7.98316406,7.99818359 7.58742187,7.99523437 7.3415625,8.2375 C7.09566406,8.47974609 7.09271484,8.87546875 7.33496094,9.12136719 L8.65568359,10.4619727 C8.77247388,10.5805144 8.93171714,10.6475846 9.098125,10.6483203 L9.098125,10.6483203 Z"
            id="形状" fill="currentColor"></path>
        </g>
      </g>
    </g>
  </g>
</svg>