<?xml version="1.0" encoding="UTF-8"?>
<svg width="20px" height="20px" viewBox="0 0 20 20" version="1.1" xmlns="http://www.w3.org/2000/svg"
    xmlns:xlink="http://www.w3.org/1999/xlink">
    <title>KHCFDC_管理备份</title>
    <g id="用户中心" stroke="none" stroke-width="1" fill="none" fill-rule="evenodd">
        <g id="切图板板" transform="translate(-119.000000, -462.000000)" fill-rule="nonzero">
            <g id="KHCFDC_管理备份" transform="translate(119.000000, 462.000000)">
                <rect id="矩形" fill="#000000" opacity="0" x="0" y="0" width="20" height="20"></rect>
                <path
                    d="M4.13332813,2 L7.33332813,2 C8.50667188,2 9.46667188,2.96 9.46667188,4.13332813 L9.46667188,7.33332813 C9.46667188,8.50667188 8.50667188,9.46667188 7.33332813,9.46667188 L4.13332813,9.46667188 C2.96,9.46667188 2,8.50667188 2,7.33332813 L2,4.13332813 C2,2.96 2.96,2 4.13332813,2 Z M4.13332813,3.06667187 C3.49332813,3.06667187 3.06667187,3.49332813 3.06667187,4.13332813 L3.06667187,7.33332813 C3.06667187,7.97332813 3.49332813,8.4 4.13332813,8.4 L7.33332813,8.4 C7.97332813,8.4 8.4,7.97332813 8.4,7.33332813 L8.4,4.13332813 C8.4,3.49332813 7.97332813,3.06667187 7.33332813,3.06667187 L4.13332813,3.06667187 Z M4.13332813,10.5333281 L7.33332813,10.5333281 C8.50667188,10.5333281 9.46667188,11.4933281 9.46667188,12.6666719 L9.46667188,15.8666719 C9.46667188,17.04 8.50667188,18 7.33332813,18 L4.13332813,18 C2.96,18 2,17.04 2,15.8666719 L2,12.6666719 C2,11.4933281 2.96,10.5333281 4.13332813,10.5333281 L4.13332813,10.5333281 Z M4.13332813,11.6 C3.49332813,11.6 3.06667187,12.0266719 3.06667187,12.6666719 L3.06667187,15.8666719 C3.06667187,16.5066719 3.49332813,16.9333281 4.13332813,16.9333281 L7.33332813,16.9333281 C7.97332813,16.9333281 8.4,16.5066719 8.4,15.8666719 L8.4,12.6666719 C8.4,12.0266719 7.97332813,11.6 7.33332813,11.6 L4.13332813,11.6 Z M12.6666719,2 L15.8666719,2 C17.04,2 18,2.96 18,4.13332813 L18,7.33332813 C18,8.50667188 17.04,9.46667188 15.8666719,9.46667188 L12.6666719,9.46667188 C11.4933281,9.46667188 10.5333281,8.50667188 10.5333281,7.33332813 L10.5333281,4.13332813 C10.5333281,2.96 11.4933281,2 12.6666719,2 Z M12.6666719,3.06667187 C12.0266719,3.06667187 11.6,3.49332813 11.6,4.13332813 L11.6,7.33332813 C11.6,7.97332813 12.0266719,8.4 12.6666719,8.4 L15.8666719,8.4 C16.5066719,8.4 16.9333281,7.97332813 16.9333281,7.33332813 L16.9333281,4.13332813 C16.9333281,3.49332813 16.5066719,3.06667187 15.8666719,3.06667187 L12.6666719,3.06667187 L12.6666719,3.06667187 Z M12.6666719,10.5333281 L15.8666719,10.5333281 C17.04,10.5333281 18,11.4933281 18,12.6666719 L18,15.8666719 C18,17.04 17.04,18 15.8666719,18 L12.6666719,18 C11.4933281,18 10.5333281,17.04 10.5333281,15.8666719 L10.5333281,12.6666719 C10.5333281,11.4933281 11.4933281,10.5333281 12.6666719,10.5333281 L12.6666719,10.5333281 Z M12.6666719,11.6 C12.0266719,11.6 11.6,12.0266719 11.6,12.6666719 L11.6,15.8666719 C11.6,16.5066719 12.0266719,16.9333281 12.6666719,16.9333281 L15.8666719,16.9333281 C16.5066719,16.9333281 16.9333281,16.5066719 16.9333281,15.8666719 L16.9333281,12.6666719 C16.9333281,12.0266719 16.5066719,11.6 15.8666719,11.6 L12.6666719,11.6 L12.6666719,11.6 Z"
                    id="形状" fill="currentColor"></path>
            </g>
        </g>
    </g>
</svg>