<?xml version="1.0" encoding="UTF-8"?>
<svg width="20px" height="20px" viewBox="0 0 20 20" version="1.1" xmlns="http://www.w3.org/2000/svg" xmlns:xlink="http://www.w3.org/1999/xlink">
    <title>费用模版备份 2</title>
    <g id="业务中心" stroke="none" stroke-width="1" fill="none" fill-rule="evenodd">
        <g id="结算管理" transform="translate(-30.000000, -141.000000)">
            <g id="编组-26" transform="translate(0.000000, 64.000000)">
                <g id="编组-2" transform="translate(0.000000, 60.000000)">
                    <g id="编组-14" transform="translate(20.000000, 0.000000)">
                        <g id="费用模版备份-2" transform="translate(10.000000, 17.000000)">
                            <rect id="矩形" x="0" y="0" width="20" height="20"></rect>
                            <path d="M16,2.51744344 C16.3865993,2.51744344 16.7365993,2.67414378 16.9899495,2.92749394 C17.2432997,3.18084411 17.4,3.53084411 17.4,3.91744344 L17.4,3.91744344 L17.4,15.9174434 C17.4,16.3040428 17.2432997,16.6540428 16.9899495,16.9073929 C16.7365993,17.1607431 16.3865993,17.3174434 16,17.3174434 L16,17.3174434 L4,17.3174434 C3.61340068,17.3174434 3.26340068,17.1607431 3.01005051,16.9073929 C2.75670034,16.6540428 2.6,16.3040428 2.6,15.9174434 L2.6,15.9174434 L2.6,3.91744344 C2.6,3.53084411 2.75670034,3.18084411 3.01005051,2.92749394 C3.26340068,2.67414378 3.61340068,2.51744344 4,2.51744344 L4,2.51744344 Z" id="矩形" stroke="currentColor" stroke-width="1.2"></path>
                            <g id="¥" transform="translate(7.205078, 6.046875)" fill="currentColor" fill-rule="nonzero" stroke="currentColor" stroke-width="0.2">
                                <polygon id="路径" points="2.8125 3.1875 4.54326923 0 5.62019231 0 3.61057692 3.45192308 5.11057692 3.45192308 5.11057692 4.19711538 3.26923077 4.19711538 3.26923077 5.72317032 5.11057692 5.72317032 5.11057692 6.46836263 3.26923077 6.46836263 3.26923077 8.65394082 2.32211538 8.65394082 2.32211538 6.46836263 0.519230769 6.46836263 0.519230769 5.72317032 2.32211538 5.72317032 2.32211538 4.19711538 0.519230769 4.19711538 0.519230769 3.45192308 2.01442308 3.45192308 0 0 1.08653846 0"></polygon>
                            </g>
                        </g>
                    </g>
                </g>
            </g>
        </g>
    </g>
</svg>
