<?xml version="1.0" encoding="UTF-8"?>
<svg width="16px" height="20px" viewBox="0 0 16 20" version="1.1" xmlns="http://www.w3.org/2000/svg" xmlns:xlink="http://www.w3.org/1999/xlink">
    <title>切片</title>
    <g id="页面-1" stroke="none" stroke-width="1" fill="none" fill-rule="evenodd">
        <g id="文档中心备份-2" transform="translate(-582.000000, -371.000000)">
            <g id="编组-34" transform="translate(556.000000, 62.000000)">
                <g id="编组-26备份-2" transform="translate(20.000000, 266.000000)">
                    <g id="分组-7" transform="translate(6.000000, 43.000000)">
                        <g id="分组-2-copy-2">
                            <path d="M11.698,0 L15.727,4.074 L15.727273,18.5234476 C15.727273,18.9093703 15.4144208,19.2222226 15.028498,19.2222226 L0.698775,19.2222226 C0.312852224,19.2222226 -5.07849603e-16,18.9093703 0,18.5234476 L0,0.698775 C-4.72619092e-17,0.312852224 0.312852224,-3.73196346e-16 0.698775,0 L11.698,0 Z" id="合并形状" fill="#FCEEEE"></path>
                            <path d="M11.6982678,0 L15.727273,4.07433607 L15.727273,18.4759999 C15.727273,18.8881273 15.3992522,19.2222226 14.994618,19.2222226 L0.732655013,19.2222226 C0.328020822,19.2222226 0,18.8881273 0,18.4759999 L0,0.746222698 C0,0.334095282 0.328020822,0 0.732655013,0 L11.6982678,0 Z M11.533,0.373 L0.732655013,0.373111349 C0.530337918,0.373111349 0.366327506,0.54015899 0.366327506,0.746222698 L0.366327506,18.4759999 C0.366327506,18.6820636 0.530337918,18.8491112 0.732655013,18.8491112 L14.994618,18.8491112 C15.1969351,18.8491112 15.3609455,18.6820636 15.3609455,18.4759999 L15.36,4.271 L12.178555,4.27160501 C11.822209,4.27160501 11.5333335,3.97737998 11.5333335,3.61443501 L11.533,0.373 Z" id="合并形状" fill="#F0A8A8" fill-rule="nonzero"></path>
                        </g>
                        <g id="pdf" transform="translate(4.718182, 4.805556)">
                            <rect id="矩形" fill="#000000" opacity="0" x="0" y="0" width="6.8085027" height="6.93458609"></rect>
                            <path d="M5.86287733,5.18167683 C5.35223963,5.14315135 4.86051443,4.95052396 4.46335177,4.60379465 C3.68793897,4.7771593 2.95035117,5.02757491 2.21276338,5.33577874 C1.62647564,6.39522939 1.07801293,6.93458609 0.605200239,6.93458609 C0.510637703,6.93458609 0.397162656,6.91532335 0.321512631,6.85753513 C0.113475047,6.76122144 0,6.5493313 0,6.33744117 C0,6.16407652 0.0378250158,5.68250804 1.83451323,4.89273574 C2.25058839,4.12222617 2.57210102,3.33245387 2.83687613,2.50415609 C2.60992604,2.04185035 2.11820084,0.90534874 2.45862598,0.327466568 C2.57210102,0.115576437 2.79905111,1.12410081e-15 3.04491371,0.0192627361 C3.23403878,0.0192627361 3.42316386,0.11557643 3.5366389,0.269678346 C3.7825015,0.616407651 3.76358899,1.34839174 3.44207637,2.42710513 C3.74467649,3.0049873 4.14183914,3.52508126 4.61465183,3.96812426 C5.01181449,3.89107331 5.40897715,3.83328509 5.8061398,3.83328508 C6.69502766,3.85254782 6.82741521,4.27632808 6.8085027,4.52674369 C6.8085027,5.18167682 6.18438995,5.18167682 5.86287733,5.18167683 L5.86287733,5.18167683 Z M0.567375223,6.37596665 L0.62411275,6.35670392 C0.888887854,6.26039022 1.09692544,6.06776283 1.24822549,5.81734722 C0.964537879,5.93292365 0.737587791,6.12555104 0.567375223,6.37596665 Z M3.08273872,0.597144915 L3.0260012,0.597144915 C3.0070887,0.597144915 2.96926368,0.597144915 2.95035117,0.616407651 C2.87470114,0.943874219 2.93143867,1.29060352 3.06382622,1.59880735 C3.17730126,1.27134078 3.17730126,0.924611476 3.08273872,0.597144915 L3.08273872,0.597144915 Z M3.21512628,3.39024209 L3.19621377,3.42876757 L3.17730126,3.40950483 C3.0070887,3.85254783 2.81796362,4.29559083 2.60992603,4.71937109 L2.64775105,4.70010835 L2.64775105,4.73863382 C3.06382622,4.58453191 3.51772639,4.44969274 3.93380156,4.35337904 L3.91488906,4.33411631 L3.97162658,4.33411631 C3.68793896,4.04517522 3.42316386,3.71770865 3.21512628,3.39024209 L3.21512628,3.39024209 Z M5.7872273,4.41116726 C5.61701473,4.41116726 5.46571467,4.41116726 5.2955021,4.44969274 C5.48462717,4.54600644 5.67375225,4.58453192 5.86287733,4.60379465 C5.99526488,4.62305739 6.12765243,4.60379465 6.24112748,4.56526917 C6.24112748,4.50748096 6.16547745,4.41116726 5.7872273,4.41116726 Z" id="形状" fill="#E15251" fill-rule="nonzero"></path>
                        </g>
                        <path d="M4.80555564,13.9797982 L5.7836056,13.9797982 C6.33292133,13.9797982 6.60757919,14.2367798 6.60757919,14.750743 C6.60757919,15.2683773 6.32957184,15.5290301 5.78025611,15.5290301 L5.0802135,15.5290301 L5.0802135,16.6010104 L4.80555564,16.6010104 L4.80555564,13.9797982 Z M5.0802135,14.240451 L5.0802135,15.2683773 L5.76685817,15.2683773 C5.96112836,15.2683773 6.10180678,15.2243233 6.19559239,15.1398865 C6.28602852,15.0554497 6.33292133,14.9269589 6.33292133,14.750743 C6.33292133,14.574527 6.28602852,14.4460362 6.19224291,14.3689418 C6.0984573,14.2808338 5.95777888,14.240451 5.76685817,14.240451 L5.0802135,14.240451 Z M6.95592575,13.9797982 L7.81339421,13.9797982 C8.19188614,13.9797982 8.47659247,14.0972755 8.67086266,14.3395724 C8.84838543,14.5598424 8.93882156,14.8792338 8.93882156,15.2904043 C8.93882156,15.6942325 8.84168646,16.0136239 8.65076575,16.2412362 C8.44979658,16.4798619 8.16174077,16.6010104 7.78659832,16.6010104 L6.95592575,16.6010104 L6.95592575,13.9797982 Z M7.23058362,14.240451 L7.23058362,16.3403576 L7.73970551,16.3403576 C8.05120772,16.3403576 8.28567176,16.2485785 8.44309761,16.0686914 C8.590475,15.8924754 8.66751318,15.6318227 8.66751318,15.2904043 C8.66751318,14.9379724 8.59717397,14.6773197 8.45984504,14.5084461 C8.31246765,14.3285589 8.08470259,14.240451 7.76985089,14.240451 L7.23058362,14.240451 Z M9.32066298,13.9797982 L10.9217174,13.9797982 L10.9217174,14.240451 L9.59532084,14.240451 L9.59532084,15.1215307 L10.8513782,15.1215307 L10.8513782,15.3821834 L9.59532084,15.3821834 L9.59532084,16.6010104 L9.32066298,16.6010104 L9.32066298,13.9797982 Z" id="PDF" fill="#E15251"></path>
                    </g>
                </g>
            </g>
        </g>
    </g>
</svg>