<?xml version="1.0" encoding="UTF-8"?>
<svg width="14px" height="14px" viewBox="0 0 14 14" version="1.1" xmlns="http://www.w3.org/2000/svg" xmlns:xlink="http://www.w3.org/1999/xlink">
    <title>编组 12</title>
    <g id="页面-2" stroke="none" stroke-width="1" fill="none" fill-rule="evenodd">
        <g id="图标" transform="translate(-177.000000, -307.000000)">
            <g id="编组-12" transform="translate(177.000000, 307.000000)">
                <circle id="形状结合" fill="#FFFFFF" opacity="0.2" cx="7" cy="7" r="7"></circle>
                <path d="M7,3 C7.27614237,3 7.5,3.22385763 7.5,3.5 L7.499,6.5 L10.5,6.5 C10.7761424,6.5 11,6.72385763 11,7 C11,7.27614237 10.7761424,7.5 10.5,7.5 L7.499,7.5 L7.5,10.5 C7.5,10.7761424 7.27614237,11 7,11 C6.72385763,11 6.5,10.7761424 6.5,10.5 L6.499,7.5 L3.5,7.5 C3.22385763,7.5 3,7.27614237 3,7 C3,6.72385763 3.22385763,6.5 3.5,6.5 L6.499,6.5 L6.5,3.5 C6.5,3.22385763 6.72385763,3 7,3 Z" id="形状结合" fill="#07F89C" transform="translate(7.000000, 7.000000) rotate(-315.000000) translate(-7.000000, -7.000000) "></path>
            </g>
        </g>
    </g>
</svg>