<?xml version="1.0" encoding="UTF-8"?>
<svg width="40px" height="40px" viewBox="0 0 40 40" version="1.1" xmlns="http://www.w3.org/2000/svg" xmlns:xlink="http://www.w3.org/1999/xlink">
    <title>感叹号-圈</title>
    <g id="页面-1" stroke="none" stroke-width="1" fill="none" fill-rule="evenodd">
        <g id="弹窗" transform="translate(-570.000000, -779.000000)">
            <g id="编组-36" transform="translate(60.000000, 157.000000)">
                <g id="编组-13备份-3" transform="translate(450.000000, 582.000000)">
                    <g id="感叹号-圈" transform="translate(60.000000, 40.000000)">
                        <rect id="矩形" fill="#000000" fill-rule="nonzero" opacity="0" x="0" y="0" width="40" height="40"></rect>
                        <path d="M20,2 C29.9411328,2 38,10.0588672 38,20 C38,29.9411328 29.9411328,38 20,38 C10.0588672,38 2,29.9411328 2,20 C2,10.0588672 10.0588672,2 20,2 Z M20,5.09375 C11.7674961,5.09375 5.09375,11.7674961 5.09375,20 C5.09375,28.2325039 11.7674961,34.90625 20,34.90625 C28.2325039,34.90625 34.90625,28.2325039 34.90625,20 C34.90625,11.7674961 28.2325039,5.09375 20,5.09375 Z M20,26.046875 C21.2426328,26.046875 22.25,27.0542422 22.25,28.296875 C22.25,29.5395078 21.2426328,30.546875 20,30.546875 C18.7573672,30.546875 17.75,29.5395078 17.75,28.296875 C17.75,27.0542422 18.7573672,26.046875 20,26.046875 Z M20,9.453125 C20.8542969,9.453125 21.546875,10.1457031 21.546875,11 L21.546875,11 L21.546875,22.9352656 C21.546875,23.7895977 20.8542969,24.4821406 20,24.4821406 C19.1457031,24.4821406 18.453125,23.7895977 18.453125,22.9352656 L18.453125,22.9352656 L18.453125,11 C18.453125,10.1457031 19.1457031,9.453125 20,9.453125 Z" id="形状结合" fill="#191C26"></path>
                    </g>
                </g>
            </g>
        </g>
    </g>
</svg>