<?xml version="1.0" encoding="UTF-8"?>
<svg width="40px" height="40px" viewBox="0 0 40 40" version="1.1" xmlns="http://www.w3.org/2000/svg" xmlns:xlink="http://www.w3.org/1999/xlink">
    <title>编组 5备份 3</title>
    <g id="20230828" stroke="none" stroke-width="1" fill="none" fill-rule="evenodd">
        <g id="40*40" transform="translate(-376.000000, -17.000000)">
            <g id="编组-5备份-3" transform="translate(376.000000, 17.000000)">
                <rect id="矩形" fill="#D8D8D8" opacity="0" x="0" y="0" width="40" height="40"></rect>
                <g id="编组-4" transform="translate(5.000000, 6.000000)" stroke="#000">
                    <path d="M17.6721311,0.5 C18.0863447,0.5 18.4613447,0.667893219 18.7327913,0.939339828 C19.0042379,1.21078644 19.1721311,1.58578644 19.1721311,2 L19.1721311,2 L19.1721311,23.5 L2.46721311,23.5 L2.46721311,2 C2.46721311,1.58578644 2.63510633,1.21078644 2.90655294,0.939339828 C3.17799955,0.667893219 3.55299955,0.5 3.96721311,0.5 L3.96721311,0.5 Z" id="矩形"></path>
                    <line x1="3.44262295" y1="4.5" x2="18.1967213" y2="4.5" id="直线-8" stroke-linecap="square"></line>
                    <rect id="矩形" x="0.5" y="23.5" width="20.6393443" height="3"></rect>
                    <path d="M11.4031081,7.56442831 L10.8139884,11.7849901 L10.8088185,11.8308487 C10.7950538,12.0070434 10.8430958,12.182119 10.9411293,12.3130191 C11.0391628,12.4439191 11.1780916,12.5184977 11.3237488,12.5184136 L13.821368,12.5180995 L9.96119962,19.1506352 L10.5402378,15.0063997 L10.5454078,14.9605411 C10.5592457,14.7843494 10.5112727,14.6092394 10.4132876,14.4782785 C10.3153025,14.3473176 10.1763976,14.2726581 10.0307359,14.2726621 L7.17354438,14.2726621 L11.4031081,7.56442831 L11.4031081,7.56442831 Z" id="路径" stroke-linejoin="round"></path>
                    <path d="M18.7622437,14.0170915 L22.2789532,14.0170915 C23.0788139,14.0170915 23.7272291,14.6655066 23.7272291,15.4653673 L23.7272291,19.3321234 C23.7272291,20.1319841 24.3756443,20.7803993 25.1755049,20.7803993 L25.8489242,20.7803993 C26.6487849,20.7803993 27.2972001,20.1319841 27.2972001,19.3321234 L27.2972001,10.9202916 L27.2972001,10.9202916" id="路径-13"></path>
                    <rect id="矩形" x="25.5" y="8.5" width="4" height="2" rx="1"></rect>
                    <rect id="矩形备份-2" x="26.5655738" y="6.5" width="1.95081967" height="2" rx="0.975409836"></rect>
                </g>
            </g>
        </g>
    </g>
</svg>