<?xml version="1.0" encoding="UTF-8"?>
<svg width="41px" height="41px" viewBox="0 0 41 41" version="1.1" xmlns="http://www.w3.org/2000/svg" xmlns:xlink="http://www.w3.org/1999/xlink">
    <title>充电枪</title>
    <g id="页面-1备份" stroke="none" stroke-width="1" fill="none" fill-rule="evenodd">
        <g id="新增图标优化" transform="translate(-601.000000, -607.000000)">
            <g id="充电枪" transform="translate(601.500000, 607.552469)">
                <rect id="矩形" x="0" y="0" width="40" height="40"></rect>
                <g transform="translate(5.000000, 8.000000)">
                    <polygon id="矩形备份" stroke="#525F7C" transform="translate(6.258921, 16.183907) rotate(20.000000) translate(-6.258921, -16.183907) " points="5.20046212 15.0811226 7.210517 15.1688406 7.31737959 17.0247116 5.26975796 17.2866923"></polygon>
                    <path d="M21.4596215,5.59602662 L27.9931748,5.59602662 C29.0977443,5.59602662 29.9931748,6.49145712 29.9931748,7.59602662 L29.9931748,22.5960266 C29.9931748,23.7005961 29.0977443,24.5960266 27.9931748,24.5960266 L14.9931748,24.5960266 C13.8886053,24.5960266 12.9931748,23.7005961 12.9931748,22.5960266 L12.9931748,9.78381873 L12.9931748,9.2464918" id="路径" stroke="#525F7C" stroke-linecap="round"></path>
                    <path d="M17.8694237,0.096026621 L17.8694237,9.09602662 L12.9661095,9.09602662 C12.0032518,9.68257282 11.3348535,10.3381346 10.9428001,11.0469377 C10.6941436,11.4964901 10.3426061,12.4989026 9.90074233,14.0600526 C9.78778969,14.4585944 9.5240014,14.7736471 9.18881203,14.9608353 C8.86069815,15.1440722 8.46416372,15.2047846 8.07372414,15.1013399 L8.07372414,15.1013399 L5.36957936,13.9953479 C4.9948683,13.8400434 4.7158442,13.5498531 4.56655087,13.2037095 C4.41725754,12.8575658 4.39769497,12.4554687 4.54190696,12.0763502 L4.54190696,12.0763502 L8.24106097,2.35165626 C8.49934241,1.67266102 8.95394281,1.10875361 9.5255878,0.714595011 C10.0972328,0.32043641 10.7859224,0.096026621 11.5123822,0.096026621 L11.5123822,0.096026621 L17.8694237,0.096026621 Z" id="矩形备份-4" stroke="#525F7C"></path>
                    <rect id="矩形备份-5" stroke="#525F7C" x="17.8794027" y="1.10094452" width="3" height="6"></rect>
                    <path d="M22.445018,11.0424592 C23.6309617,11.0021005 24.728969,10.9118432 25.5775104,11.7007419 C26.7559253,12.7963277 27.4931748,14.3600721 27.4931748,16.0960266 C27.4931748,17.7528808 26.8216019,19.2528808 25.7358155,20.3386673 C24.650029,21.4244537 23.150029,22.0960266 21.4931748,22.0960266 C19.8363205,22.0960266 18.3363205,21.4244537 17.2505341,20.3386673 C16.1647477,19.2528808 15.4931748,17.7528808 15.4931748,16.0960266 C15.4931748,14.4065179 16.1914899,12.8801158 17.3152099,11.7896749 C18.1982669,10.9327697 19.3658439,11.017258 20.6307464,11.0493474 C20.9130029,11.056508 21.2008692,11.063759 21.4931748,11.063759 C21.8163898,11.063759 22.1341953,11.0530368 22.445018,11.0424592 Z" id="椭圆形备份-9" stroke="#525F7C"></path>
                    <circle id="椭圆形备份-10" fill="#525F7C" cx="21.5107544" cy="16.0512613" r="1.15"></circle>
                    <circle id="椭圆形备份-13" fill="#525F7C" cx="19.7957189" cy="13.2981437" r="1"></circle>
                    <circle id="椭圆形备份-14" fill="#525F7C" cx="23.4448278" cy="13.2542985" r="1"></circle>
                    <circle id="椭圆形备份-15" fill="#525F7C" cx="17.883885" cy="16.0029914" r="1.15"></circle>
                    <circle id="椭圆形备份-16" fill="#525F7C" cx="25.1320657" cy="15.9810727" r="1.15"></circle>
                    <circle id="椭圆形备份-17" fill="#525F7C" cx="19.7002163" cy="19.1987063" r="1.15"></circle>
                    <circle id="椭圆形备份-18" fill="#525F7C" cx="23.3239674" cy="19.1366321" r="1.15"></circle>
                    <path d="M6.00846247,17.3663618 C5.79999658,19.3195519 5.54644529,20.6378455 5.24780859,21.3212426 C4.76757897,22.4201951 4.6545443,23.1352475 3.72631688,23.7033769 C2.54357181,24.4272859 0.933369422,23.6689831 0.398676039,22.5960266 C-0.283222011,21.227678 0.116315958,19.4690199 0.116315958,18.2937783 C0.116315958,16.8959263 0.116315958,10.7980002 0.116315958,0" id="路径-47备份" stroke="#525F7C"></path>
                </g>
            </g>
        </g>
    </g>
</svg>