<?xml version="1.0" encoding="UTF-8"?>
<svg width="40px" height="40px" viewBox="0 0 40 40" version="1.1" xmlns="http://www.w3.org/2000/svg" xmlns:xlink="http://www.w3.org/1999/xlink">
    <title>编组 8备份</title>
    <defs>
        <path d="M1.94885789,2.58663464 L1.10461268,3.40308959 L1.10461268,0.503432694 C1.10461268,0.225921281 0.861767715,2.15347709e-05 0.563113175,2.15347709e-05 L0.541422318,2.15347709e-05 C0.242844969,2.15347709e-05 0,0.225921281 0,0.503432694 L0,4.67464602 C0,4.85604057 0.103977169,5.01475183 0.258978026,5.10347509 C0.264072676,5.10641818 0.269244517,5.10914591 0.274184784,5.11201722 C0.278970667,5.11460139 0.283679358,5.11711378 0.288465241,5.11955439 C0.374147986,5.16420314 0.471332289,5.18738891 0.572607749,5.18502009 C0.593758265,5.18451761 0.614677205,5.18293839 0.635441762,5.18028244 C0.759025613,5.16449027 0.872265781,5.11086869 0.958720443,5.02623705 L2.74933543,3.29448256 C2.85061089,3.19542261 2.90433629,3.06513725 2.90063109,2.92760185 C2.89684869,2.78999466 2.83617605,2.66250882 2.72957436,2.56833009 C2.62312706,2.47422314 2.482947,2.42426247 2.33512497,2.42777982 C2.18714855,2.43136894 2.05005616,2.48764648 1.94885789,2.58663464 Z" id="path-1"></path>
        <filter x="-293.0%" y="-125.4%" width="686.0%" height="427.9%" filterUnits="objectBoundingBox" id="filter-2">
            <feOffset dx="0" dy="2" in="SourceAlpha" result="shadowOffsetOuter1"></feOffset>
            <feGaussianBlur stdDeviation="2.5" in="shadowOffsetOuter1" result="shadowBlurOuter1"></feGaussianBlur>
            <feColorMatrix values="0 0 0 0 0.670588235   0 0 0 0 0.749019608   0 0 0 0 0.866666667  0 0 0 0.44408326 0" type="matrix" in="shadowBlurOuter1"></feColorMatrix>
        </filter>
        <path d="M5.3034763,0 C5.00505333,0 4.76205398,0.225827963 4.76205398,0.503482942 L4.76205398,3.40313983 L3.91780877,2.58654132 C3.81661051,2.48769673 3.67951811,2.43141919 3.5315417,2.42775828 C3.38371966,2.42424093 3.24353961,2.4742016 3.1370923,2.56838033 C3.03049062,2.6624155 2.96981797,2.79004491 2.96611277,2.92765209 C2.96233038,3.06511571 3.01605578,3.19547286 3.11733124,3.29453281 L4.90794622,5.02614373 C4.99455527,5.11091894 5.10764105,5.16446874 5.2312249,5.1802609 C5.25198946,5.18298864 5.2729084,5.18456786 5.29405892,5.18499855 C5.39533438,5.18743916 5.49267306,5.16418161 5.57820143,5.11946107 C5.58298731,5.11716403 5.58754162,5.11465164 5.59217312,5.11206746 C5.59742215,5.10919616 5.60267118,5.10646842 5.60768864,5.10338177 C5.76284388,5.0147303 5.86666667,4.85601904 5.86666667,4.67462449 L5.86666667,0.503482942 C5.86666667,0.225827963 5.6238217,0 5.32524435,0 L5.3034763,0 Z" id="path-3"></path>
        <filter x="-293.0%" y="-125.4%" width="686.1%" height="427.9%" filterUnits="objectBoundingBox" id="filter-4">
            <feOffset dx="0" dy="2" in="SourceAlpha" result="shadowOffsetOuter1"></feOffset>
            <feGaussianBlur stdDeviation="2.5" in="shadowOffsetOuter1" result="shadowBlurOuter1"></feGaussianBlur>
            <feColorMatrix values="0 0 0 0 0.670588235   0 0 0 0 0.749019608   0 0 0 0 0.866666667  0 0 0 0.44408326 0" type="matrix" in="shadowBlurOuter1"></feColorMatrix>
        </filter>
    </defs>
    <g id="20230828" stroke="none" stroke-width="1" fill="none" fill-rule="evenodd">
        <g id="40*40" transform="translate(-16.000000, -17.000000)">
            <g id="编组-8备份" transform="translate(16.000000, 17.000000)">
                <rect id="矩形" fill="#D8D8D8" opacity="0" x="0" y="0" width="40" height="40"></rect>
                <g id="编组-6" transform="translate(6.000000, 8.000000)">
                    <line x1="3.87462687" y1="8.64900814" x2="3.87462687" y2="15.9823415" id="直线-3备份-3" stroke="#000" stroke-linecap="round" stroke-linejoin="round"></line>
                    <line x1="24.4099502" y1="8.08447044" x2="27.0766169" y2="8.08447044" id="直线-4备份-11" stroke="#000" stroke-linecap="round" stroke-linejoin="round"></line>
                    <line x1="24.4099502" y1="11.1773879" x2="27.0766169" y2="11.1773879" id="直线-4备份-12" stroke="#000" stroke-linecap="round" stroke-linejoin="round"></line>
                    <line x1="24.4099502" y1="14.2703054" x2="27.0766169" y2="14.2703054" id="直线-4备份-13" stroke="#000" stroke-linecap="round" stroke-linejoin="round"></line>
                    <line x1="24.4099502" y1="17.3632229" x2="27.0766169" y2="17.3632229" id="直线-4备份-14" stroke="#000" stroke-linecap="round" stroke-linejoin="round"></line>
                    <line x1="6.54129353" y1="8.64900814" x2="6.54129353" y2="15.9823415" id="直线-3备份-4" stroke="#000" stroke-linecap="round" stroke-linejoin="round"></line>
                    <line x1="9.2079602" y1="8.64900814" x2="9.2079602" y2="15.9823415" id="直线-3备份-5" stroke="#000" stroke-linecap="round" stroke-linejoin="round"></line>
                    <path d="M8.37147811,22.5723575 L8.50525103,23.904445 L6.51954079,24.1666667 L5.99504037,22.9288609 L8.37147811,22.5723575 Z" id="矩形备份-8" stroke="#000"></path>
                    <path d="M21.7048114,22.5723575 L21.8385844,23.904445 L19.8528741,24.1666667 L19.3283737,22.9288609 L21.7048114,22.5723575 Z" id="矩形备份-9" stroke="#000"></path>
                    <path d="M27.1243781,3.3602989 L27.5,21.984677 L0.875621875,22.3602989 L0.5,3.73592077 L27.1243781,3.3602989 Z" id="矩形备份-10" stroke="#000"></path>
                    <path d="M27.0132975,0.5 L25.4506482,2.63088539 C25.0499997,3.17722424 24.4130324,3.5 23.7355331,3.5 L23.7355331,3.5 L4.26446692,3.5 C3.58696759,3.5 2.95000028,3.17722424 2.54935179,2.63088539 L2.54935179,2.63088539 L0.986702508,0.5 L27.0132975,0.5 Z" id="矩形备份-11" stroke="#000" transform="translate(14.000000, 2.000000) scale(1, -1) translate(-14.000000, -2.000000) "></path>
                    <g id="编组-7备份" transform="translate(14.066667, 10.592593)">
                        <g id="Fill-11">
                            <use fill="black" fill-opacity="1" filter="url(#filter-2)" xlink:href="#path-1"></use>
                            <use fill="#FF1B1B" fill-rule="evenodd" xlink:href="#path-1"></use>
                        </g>
                        <g id="Fill-13">
                            <use fill="black" fill-opacity="1" filter="url(#filter-4)" xlink:href="#path-3"></use>
                            <use fill="#FF1B1B" fill-rule="evenodd" xlink:href="#path-3"></use>
                        </g>
                    </g>
                </g>
            </g>
        </g>
    </g>
</svg>