<?xml version="1.0" encoding="UTF-8"?>
<svg width="41px" height="41px" viewBox="0 0 41 41" version="1.1" xmlns="http://www.w3.org/2000/svg" xmlns:xlink="http://www.w3.org/1999/xlink">
    <title>带电显示器</title>
    <g id="页面-1备份" stroke="none" stroke-width="1" fill="none" fill-rule="evenodd">
        <g id="新增图标优化" transform="translate(-465.000000, -444.000000)">
            <g id="编组-21" transform="translate(65.500000, 416.500000)">
                <g id="编组-18" transform="translate(0.000000, 27.269553)">
                    <g id="带电显示器" transform="translate(390.000000, 0.730447)">
                        <g transform="translate(10.000000, 0.000000)">
                            <rect id="矩形备份-43" x="0" y="0" width="40" height="40"></rect>
                            <circle id="Oval备份-2" stroke="#525F7C" stroke-linecap="round" stroke-linejoin="round" cx="20" cy="22.4671399" r="8"></circle>
                            <line x1="15.5139687" y1="16.4671399" x2="24.4860313" y2="28.4671399" id="路径-6" stroke="#525F7C" stroke-linecap="round" stroke-linejoin="round" transform="translate(20.000000, 22.467140) rotate(-8.215568) translate(-20.000000, -22.467140) "></line>
                            <line x1="15.5139687" y1="16.4671399" x2="24.4860313" y2="28.4671399" id="路径-6备份" stroke="#525F7C" stroke-linecap="round" stroke-linejoin="round" transform="translate(20.000000, 22.467140) rotate(-98.215568) translate(-20.000000, -22.467140) "></line>
                            <path d="M20,3.94588812 C20,3.94588812 20,5.42009043 20,8.36849504" id="路径-5" stroke="#525F7C" stroke-linecap="round" stroke-linejoin="round"></path>
                            <line x1="20" y1="12.5268345" x2="20" y2="14.4770571" id="路径-5备份-2" stroke="#525F7C" stroke-linecap="round" stroke-linejoin="round"></line>
                            <line x1="17" y1="8.94766479" x2="23.1151832" y2="8.94766479" id="路径-4备份-5" stroke="#525F7C"></line>
                            <line x1="12.9140846" y1="30.4671399" x2="27.4698031" y2="30.4671399" id="路径-4备份-7" stroke="#525F7C"></line>
                            <line x1="15.1919439" y1="32.4671399" x2="25.1919439" y2="32.4671399" id="路径-4备份-9" stroke="#525F7C"></line>
                            <line x1="17.1919439" y1="34.4671399" x2="23.1919439" y2="34.4671399" id="路径-4备份-10" stroke="#525F7C"></line>
                            <line x1="17" y1="11.9476648" x2="23.1151832" y2="11.9476648" id="路径-4备份-6" stroke="#525F7C"></line>
                        </g>
                    </g>
                </g>
            </g>
        </g>
    </g>
</svg>