<?xml version="1.0" encoding="UTF-8"?>
<svg width="40px" height="40px" viewBox="0 0 40 40" version="1.1" xmlns="http://www.w3.org/2000/svg" xmlns:xlink="http://www.w3.org/1999/xlink">
    <title>编组 7</title>
    <g id="20230828" stroke="none" stroke-width="1" fill="none" fill-rule="evenodd">
        <g id="40*40" transform="translate(-556.000000, -16.000000)">
            <g id="编组-7" transform="translate(556.000000, 16.000000)">
                <g id="编组-2备份-3">
                    <rect id="矩形" x="0" y="0" width="40" height="40"></rect>
                </g>
                <g id="编组-5" transform="translate(6.000000, 5.000000)" stroke="#000" stroke-linecap="round" stroke-linejoin="round" stroke-width="0.903155292">
                    <path d="M3.12386393,24.3253706 L3.97855397,27.3429683 C4.08865259,27.7316862 4.44351705,28 4.84752616,28 L25.7676051,28 C26.266404,28 26.6707604,27.5956436 26.6707604,27.0968447 C26.6707604,27.0194016 26.6607997,26.9422801 26.6411236,26.8673783 L23.0140656,13.0601201 C22.9097887,12.6631652 22.5509699,12.3864313 22.1405471,12.3864313 L1.19445307,12.3864313 C0.69565418,12.3864313 0.291297783,12.7907877 0.291297783,13.2895866 C0.291297783,13.3728022 0.302798612,13.4556186 0.325473861,13.5356853 L2.05232394,19.6332241 L2.05232394,19.6332241 L0,28" id="路径-23"></path>
                    <line x1="24.4080121" y1="19.827415" x2="4.49049554" y2="19.827415" id="直线-2"></line>
                    <line x1="16.2599371" y1="15.2981516" x2="18.9759621" y2="25.262531" id="直线-3"></line>
                    <line x1="8.11186218" y1="15.2981516" x2="10.8278872" y2="25.262531" id="直线-3备份"></line>
                    <path d="M21.7650911,10.7121556 C20.7978989,7.84838848 18.0905427,5.78669853 14.9019246,5.78669853 C11.7824404,5.78669853 9.12357533,7.7599569 8.10410979,10.5270279 C8.06248613,10.6400044 8.02359535,10.7543042 7.98751767,10.869847" id="路径"></path>
                    <line x1="24.8878736" y1="12.9040593" x2="28" y2="12.9040593" id="路径-27"></line>
                    <line x1="23.5579306" y1="8.03188801" x2="26.2531111" y2="6.47494653" id="路径-27备份"></line>
                    <line x1="19.9227083" y1="4.4043119" x2="21.4787715" y2="1.70761015" id="路径-27备份-2"></line>
                    <line x1="14.9892156" y1="3.11388297" x2="14.9892156" y2="0" id="路径-27备份-3"></line>
                    <line x1="10.0582973" y1="4.33676589" x2="8.50223416" y2="1.64006413" id="路径-27备份-4"></line>
                    <line x1="6.50899268" y1="7.93464482" x2="3.81381219" y2="6.37770334" id="路径-27备份-5"></line>
                </g>
            </g>
        </g>
    </g>
</svg>