<?xml version="1.0" encoding="UTF-8"?>
<svg width="28px" height="55px" viewBox="0 0 28 55" version="1.1" xmlns="http://www.w3.org/2000/svg" xmlns:xlink="http://www.w3.org/1999/xlink">
    <title>编组 52</title>
    <g id="20230828" stroke="none" stroke-width="1" fill="none" fill-rule="evenodd">
        <g id="元件图标新" transform="translate(-753.000000, -18.000000)">
            <g id="编组-52" transform="translate(753.000000, 18.000000)">
                <g id="编组-16备份" transform="translate(0.000000, 0.000000)">
                    <path d="M14,0 C21.7319865,0 28,6.2680135 28,14 C28,21.7319865 21.7319865,28 14,28 C6.2680135,28 0,21.7319865 0,14 C0,6.2680135 6.2680135,0 14,0 Z M14,1 C6.82029825,1 1,6.82029825 1,14 C1,21.1797017 6.82029825,27 14,27 C21.1797017,27 27,21.1797017 27,14 C27,6.82029825 21.1797017,1 14,1 Z" id="矩形" fill="#000" fill-rule="nonzero"></path>
                    <g id="编组-15" transform="translate(7.000000, 7.000000)">
                        <rect id="矩形" fill-opacity="0" fill="#D8D8D8" x="0" y="0" width="14" height="14"></rect>
                        <path d="M6.71268872,1.18209539 C6.61154881,1.23726262 6.52842988,1.32038155 6.47326265,1.42152146 L0.641716876,12.1126887 C0.483039239,12.4035977 0.59023394,12.7680597 0.881142942,12.9267373 C0.969276102,12.97481 1.06806283,13 1.16845422,13 L12.8315458,13 C13.1629166,13 13.4315458,12.7313708 13.4315458,12.4 C13.4315458,12.2996086 13.4063558,12.2008219 13.3582831,12.1126887 L7.52673735,1.42152146 C7.38392747,1.15970336 7.07443228,1.04669384 6.80188867,1.14238611 L6.71268872,1.18209539 Z M7,2.544 L12.158,12 L1.841,12 L7,2.544 Z" id="路径-3" fill="#000"></path>
                    </g>
                </g>
                <g id="编组-16" transform="translate(0.000000, 27.000000)">
                    <path d="M14,0 C21.7319865,0 28,6.2680135 28,14 C28,21.7319865 21.7319865,28 14,28 C6.2680135,28 0,21.7319865 0,14 C0,6.2680135 6.2680135,0 14,0 Z M14,1 C6.82029825,1 1,6.82029825 1,14 C1,21.1797017 6.82029825,27 14,27 C21.1797017,27 27,21.1797017 27,14 C27,6.82029825 21.1797017,1 14,1 Z" id="矩形" fill="#000" fill-rule="nonzero"></path>
                    <g id="编组-15" transform="translate(7.000000, 7.000000)">
                        <rect id="矩形" fill-opacity="0" fill="#D8D8D8" x="0" y="0" width="14" height="14"></rect>
                        <path d="M3.1109127,0.610912703 C3.30617485,0.415650558 3.62275734,0.415650558 3.81801948,0.610912703 L3.81801948,0.610912703 L6.99946609,3.79146609 L10.1819805,0.610912703 C10.3555469,0.437346352 10.6249713,0.418061201 10.8198394,0.553057253 L10.8890873,0.610912703 C11.0843494,0.806174849 11.0843494,1.12275734 10.8890873,1.31801948 L10.8890873,1.31801948 L7.49946609,4.70746609 L7.5,13.5 C7.5,13.7761424 7.27614237,14 7,14 C6.72385763,14 6.5,13.7761424 6.5,13.5 L6.49946609,4.70746609 L3.1109127,1.31801948 C2.93734635,1.14445313 2.9180612,0.875028732 3.05305725,0.680160591 Z" id="形状结合" fill="#000"></path>
                    </g>
                </g>
            </g>
        </g>
    </g>
</svg>