<?xml version="1.0" encoding="UTF-8"?>
<svg width="41px" height="40px" viewBox="0 0 41 40" version="1.1" xmlns="http://www.w3.org/2000/svg" xmlns:xlink="http://www.w3.org/1999/xlink">
    <title>避雷器</title>
    <g id="页面-1备份" stroke="none" stroke-width="1" fill="none" fill-rule="evenodd">
        <g id="新增图标优化" transform="translate(-76.000000, -199.000000)">
            <g id="避雷器" transform="translate(76.250000, 199.000000)">
                <rect id="矩形备份-34" x="0" y="0" width="40" height="40"></rect>
                <g id="编组-58" transform="translate(13.000000, 3.475325)">
                    <rect id="矩形" stroke="#525F7C" x="0" y="4" width="14" height="20" rx="2"></rect>
                    <line x1="7" y1="0" x2="7" y2="14.4506701" id="路径-4备份-3" stroke="#525F7C"></line>
                    <path d="M5.73095753,10.1117237 L8.55824464,12.5248138 C8.82328388,12.7441821 9,13.0951761 9,13.4461777 C9,13.7971794 8.86746873,14.1042904 8.60241396,14.3675339 L5.77513462,16.9122496 C5.68678045,16.9561248 5.55425694,17 5.46590277,17 C5.3333715,17 5.24501732,16.9561171 5.15667091,16.8683744 C4.97996255,16.6928736 5.02413964,16.42963 5.200848,16.2541292 L8.02811957,13.7094289 C8.11647375,13.6216785 8.16065084,13.5339281 8.16065084,13.4461854 C8.16065084,13.358435 8.11647375,13.2706846 8.02811957,13.1829342 L5.15667091,10.7698364 C4.97996255,10.5943433 4.93578546,10.331092 5.11248605,10.1555989 C5.28919441,9.98009811 5.55425694,9.9362229 5.73095753,10.1117237 Z" id="路径" fill="#525F7C" fill-rule="nonzero" transform="translate(7.000000, 13.500000) rotate(-270.000000) translate(-7.000000, -13.500000) "></path>
                    <line x1="7" y1="24" x2="7" y2="28" id="路径-4备份-4" stroke="#525F7C"></line>
                    <line x1="0" y1="28.54935" x2="14" y2="28.54935" id="路径-4备份-7" stroke="#525F7C"></line>
                    <line x1="2" y1="30.54935" x2="12" y2="30.54935" id="路径-4备份-9" stroke="#525F7C"></line>
                    <line x1="4" y1="32.54935" x2="10" y2="32.54935" id="路径-4备份-10" stroke="#525F7C"></line>
                </g>
            </g>
        </g>
    </g>
</svg>