<?xml version="1.0" encoding="UTF-8"?>
<svg width="40px" height="80px" viewBox="0 0 40 80" version="1.1" xmlns="http://www.w3.org/2000/svg" xmlns:xlink="http://www.w3.org/1999/xlink">
    <title>矩形</title>
    <g id="20230828" stroke="none" stroke-width="1" fill="none" fill-rule="evenodd">
        <g id="元件图标40*40" transform="translate(-719.000000, -15.000000)">
            <g id="编组-14" transform="translate(699.000000, 15.000000)">
                <rect id="矩形" fill-opacity="0" fill="#D8D8D8" x="0" y="0" width="80" height="80"></rect>
                <g id="编组-52" transform="translate(20.000000, 0.000000)">
                    <g id="编组-16备份" transform="translate(0.000000, 39.272727)">
                        <path d="M20,0 C31.045695,0 40,9.11711055 40,20.3636364 C40,31.6101622 31.045695,40.7272727 20,40.7272727 C8.954305,40.7272727 0,31.6101622 0,20.3636364 C0,9.11711055 8.954305,0 20,0 Z M20,1.45454545 C9.74328322,1.45454545 1.42857143,9.92043382 1.42857143,20.3636364 C1.42857143,30.8068389 9.74328322,39.2727273 20,39.2727273 C30.2567168,39.2727273 38.5714286,30.8068389 38.5714286,20.3636364 C38.5714286,9.92043382 30.2567168,1.45454545 20,1.45454545 Z" id="矩形" fill="#000" fill-rule="nonzero"></path>
                        <g id="编组-15" transform="translate(10.000000, 10.181818)">
                            <rect id="矩形" fill-opacity="0" fill="#D8D8D8" x="0" y="0" width="20" height="20.3636364"></rect>
                            <path d="M9.58955532,1.71941148 C9.44506973,1.79965472 9.3263284,1.92055498 9.24751808,2.06766758 L0.916738395,17.6184563 C0.690056055,18.0415967 0.843191342,18.5717232 1.25877563,18.802527 C1.38468015,18.8724509 1.52580404,18.9090909 1.66922032,18.9090909 L18.3307797,18.9090909 C18.8041666,18.9090909 19.1879225,18.5183576 19.1879225,18.0363636 C19.1879225,17.8903398 19.1519368,17.74665 19.0832616,17.6184563 L10.7524819,2.06766758 C10.5484678,1.68684125 10.1063318,1.52246376 9.71698382,1.66165253 L9.58955532,1.71941148 Z M10,3.70036364 L17.3685714,17.4545455 L2.63,17.4545455 L10,3.70036364 Z" id="路径-3" fill="#000"></path>
                        </g>
                    </g>
                    <g id="编组-16">
                        <path d="M20,0 C31.045695,0 40,9.11711055 40,20.3636364 C40,31.6101622 31.045695,40.7272727 20,40.7272727 C8.954305,40.7272727 0,31.6101622 0,20.3636364 C0,9.11711055 8.954305,0 20,0 Z M20,1.45454545 C9.74328322,1.45454545 1.42857143,9.92043382 1.42857143,20.3636364 C1.42857143,30.8068389 9.74328322,39.2727273 20,39.2727273 C30.2567168,39.2727273 38.5714286,30.8068389 38.5714286,20.3636364 C38.5714286,9.92043382 30.2567168,1.45454545 20,1.45454545 Z" id="矩形" fill="#000" fill-rule="nonzero"></path>
                        <g id="编组-15" transform="translate(10.000000, 10.181818)">
                            <rect id="矩形" fill-opacity="0" fill="#D8D8D8" x="0" y="0" width="20" height="20.3636364"></rect>
                            <path d="M14.5547057,0.879581077 C14.8336516,0.605616331 15.2818742,0.609654373 15.555839,0.888600296 C15.8362449,1.17410449 15.8362449,1.63161506 15.555839,1.91711925 L15.555839,1.91711925 L10.7138566,6.84572028 L10.7142857,19.6493506 C10.7142857,20.0438398 10.3944891,20.3636364 10,20.3636364 C9.60551089,20.3636364 9.28571429,20.0438398 9.28571429,19.6493506 L9.28485658,6.84472028 L4.444161,1.91711925 C4.19179569,1.66016548 4.16655916,1.26388654 4.36845141,0.979067733 L4.444161,0.888600296 L4.444161,0.888600296 L4.45318022,0.879581077 C4.73212615,0.605616331 5.1803488,0.609654373 5.45431355,0.888600296 L5.45431355,0.888600296 L9.99985658,5.51672028 L14.5456865,0.888600296 C14.5471761,0.887083581 14.5486725,0.885573592 14.5501757,0.884070373 Z" id="形状结合" fill="#000"></path>
                        </g>
                    </g>
                </g>
            </g>
        </g>
    </g>
</svg>