<?xml version="1.0" encoding="UTF-8"?>
<svg width="40px" height="40px" viewBox="0 0 40 40" version="1.1" xmlns="http://www.w3.org/2000/svg" xmlns:xlink="http://www.w3.org/1999/xlink">
    <title>编组 10</title>
    <g id="20230828" stroke="none" stroke-width="1" fill="none" fill-rule="evenodd">
        <g id="40*40" transform="translate(-676.000000, -17.000000)">
            <g id="编组-10" transform="translate(676.000000, 17.000000)">
                <rect id="矩形" fill-opacity="0" fill="#D8D8D8" x="0" y="0" width="40" height="40"></rect>
                <g id="编组-9" transform="translate(1.500000, 11.000000)" stroke="#000">
                    <line x1="14.2022479" y1="10.164986" x2="21.8586782" y2="10.164986" id="直线-6" stroke-linecap="round" stroke-linejoin="round"></line>
                    <line x1="34.7786329" y1="8.85657835" x2="35.9825677" y2="8.85657835" id="直线-6备份" stroke-linecap="round" stroke-linejoin="round"></line>
                    <ellipse id="椭圆形" cx="29.5151086" cy="12.9549904" rx="2.84968826" ry="2.75500516"></ellipse>
                    <line x1="27.601001" y1="18.5349993" x2="35.2574313" y2="18.5349993" id="直线-7" stroke-linecap="round" stroke-linejoin="round"></line>
                    <line x1="7.50287141" y1="18.5349993" x2="24.7298396" y2="18.5349993" id="直线-7备份" stroke-linecap="round" stroke-linejoin="round"></line>
                    <ellipse id="椭圆形备份-2" cx="7.50287141" cy="12.9549904" rx="2.84968826" ry="2.75500516"></ellipse>
                    <path d="M10.4025268,13.0792276 C10.7663395,13.101806 11.0967688,13.1130952 11.3938148,13.1130952 C12.5771162,13.1130952 17.6815502,13.0641156 26.7071166,12.9661564 M32.1090068,12.9068698 L32.4650841,12.9068698 L36.5945042,12.9068698 C37.3332151,11.2223957 37.0626175,9.47946543 35.7827116,7.67807904 C34.2934127,6.07376803 31.0758077,5.17307483 26.1298965,4.97599946 C22.8695795,1.68843525 20.5452612,0.0446531439 19.1569417,0.0446531439 C16.2544101,-0.0558164299 14.8791509,0.0446531439 12.2292636,0.0446531439 C8.33593161,0.255061601 7.77648112,2.29813458 5.65173555,3.1665613 C3.52698998,4.03498802 1.48356561,3.89341381 0.905192414,4.27648102 C0.15948169,4.79387618 -0.30216743,7.01379227 0.229369959,10.1371057 C0.615708137,11.1124701 2.19185301,11.8530397 4.95780457,12.3588143" id="形状" stroke-linejoin="round"></path>
                    <line x1="16.1163555" y1="0.180770822" x2="16.1163555" y2="4.58497716" id="直线-5" stroke-linecap="square"></line>
                    <path d="M6.89620399,2.3554816 C7.63650898,4.21474182 9.22797275,5.14437192 11.6705953,5.14437192 C14.1132178,5.14437192 18.9329849,5.08824777 26.1298965,4.97599946" id="路径-4"></path>
                    <line x1="0.712408568" y1="6.00803954" x2="1.71240857" y2="6.00803954" id="直线-6备份-2" stroke-linecap="round" stroke-linejoin="round"></line>
                    <line x1="2.44234768" y1="18.5" x2="5.65238915" y2="18.5" id="直线-7备份-2" stroke-linecap="round" stroke-linejoin="round"></line>
                </g>
            </g>
        </g>
    </g>
</svg>