<?xml version="1.0" encoding="UTF-8"?>
<svg width="20px" height="20px" viewBox="0 0 20 20" version="1.1" xmlns="http://www.w3.org/2000/svg"
    xmlns:xlink="http://www.w3.org/1999/xlink">
    <title>事件管理</title>
    <g id="用户中心" stroke="none" stroke-width="1" fill="none" fill-rule="evenodd">
        <g id="切图板板" transform="translate(-51.000000, -727.000000)" fill-rule="nonzero">
            <g id="文件夹备份" transform="translate(51.000000, 727.000000)">
                <rect id="矩形" fill="#000000" opacity="0" x="0" y="0" width="20" height="20"></rect>
                <path
                    d="M8.76182799,2.72195595 L2.81378191,2.72195595 C2.31078248,2.7280219 1.83089019,2.93403771 1.48007659,3.29451852 C1.16823602,3.61495232 0.981182069,4.03401348 0.948845009,4.47802766 L0.944029423,4.64555875 L0.94401345,15.9372992 C0.936675707,16.4400627 1.12969905,16.925082 1.48048674,17.2853222 C1.79229802,17.6055357 2.20597911,17.8037609 2.6459144,17.8480852 L2.81197311,17.8574412 L16.7738329,17.8574412 C17.2766138,17.8514111 17.7563305,17.6455624 18.1071181,17.2853222 C18.4189294,16.9651087 18.6060874,16.5463043 18.6386638,16.1025456 L18.6435755,15.9351102 L18.6435755,9.00888832 C18.6435755,8.46711268 18.3773239,7.90893119 17.9122143,7.45525463 L17.7667831,7.32240773 L17.7143222,7.20845102 L17.7143222,6.11729883 C17.7143222,5.01626517 16.8585897,3.93828642 15.8490071,3.84663049 L15.7104491,3.84033598 L10.2831677,3.84033598 L10.1513633,3.76194325 L9.98698655,3.45933289 C9.77103832,3.04450456 9.3603569,2.77143942 8.90096189,2.72801362 L8.76182799,2.72195595 Z M8.72861973,3.95061017 L8.86117387,4.03040049 L10.8229006,7.73419689 C10.9199144,7.90654211 11.0886939,8.02405918 11.2781066,8.05732159 L11.3742957,8.06679535 L16.4413683,8.06679659 C16.7922657,8.06822906 17.3065865,8.54392093 17.3782706,8.90056264 L17.3867899,8.9804812 L17.3867899,15.9036183 C17.3930601,16.2153482 17.181369,16.4837177 16.8776465,16.5573334 L16.77317,16.5744513 L2.80031902,16.5741693 C2.48017156,16.5545131 2.22853245,16.3040899 2.19836777,15.9995213 L2.19600044,15.906703 L2.19600044,4.62153826 C2.18958858,4.30978565 2.40126647,4.04136042 2.70502219,3.96773091 L2.80951132,3.95061017 L8.72861973,3.95061017 Z M15.7289849,5.09488392 C16.0559131,5.09488392 16.4188086,5.56782057 16.4727042,6.00818016 L16.479541,6.11729883 L16.479541,6.66227154 L16.3386814,6.81199279 L16.3097742,6.8134783 L11.861175,6.8134783 L11.7282372,6.73295872 L10.8720918,5.09488392 L15.7289849,5.09488392 Z"
                    id="形状" fill="currentColor"></path>
            </g>
        </g>
    </g>
</svg>