<?xml version="1.0" encoding="UTF-8"?>
<svg width="20px" height="20px" viewBox="0 0 20 20" version="1.1" xmlns="http://www.w3.org/2000/svg"
    xmlns:xlink="http://www.w3.org/1999/xlink">
    <title>消息管理</title>
    <g id="用户中心" stroke="none" stroke-width="1" fill="none" fill-rule="evenodd">
        <g id="切图板板" transform="translate(-85.000000, -727.000000)" fill-rule="nonzero">
            <g id="消息中心" transform="translate(85.000000, 727.000000)">
                <rect id="矩形" fill="#000000" opacity="0" x="0" y="0" width="20" height="20"></rect>
                <path
                    d="M3.750625,12.3320898 L3.750625,7.90478516 C3.750625,4.45958984 6.54853516,1.66666016 10,1.66666016 C13.4514648,1.66666016 16.249375,4.45958984 16.249375,7.90478516 L16.249375,12.3320898 L17.433125,14.695625 C17.6410352,15.1104102 17.33875,15.5983398 16.8741602,15.5983398 L3.12583984,15.5983398 C2.66125,15.5983398 2.35916016,15.1104102 2.566875,14.695625 L3.750625,12.3320898 Z M15.863125,14.3508398 L15.0654102,12.7583398 C15.0220094,12.6717502 14.9993989,12.5762326 14.999375,12.479375 L14.999375,7.90478516 C14.999375,5.14853516 12.7610352,2.914375 10,2.914375 C7.23896484,2.914375 5.000625,5.14855469 5.000625,7.90480469 L5.000625,12.4791602 C5.00055065,12.5760806 4.97794381,12.6716565 4.93458984,12.7583398 L4.136875,14.350625 L15.863125,14.350625 L15.863125,14.3508398 Z M7.20478516,17.3258398 C7.07731262,17.2202284 6.99712065,17.0682209 6.98191642,16.903382 C6.96671219,16.7385431 7.01774633,16.5744317 7.12375,16.4472852 C7.34464616,16.1823591 7.73829385,16.146206 8.00375,16.3664648 C8.56442451,16.8325216 9.27091676,17.0869633 10,17.0854102 C10.7289181,17.086922 11.4352466,16.8325561 11.9958398,16.3666602 C12.2613012,16.146406 12.6549494,16.1825679 12.8758398,16.4475 C12.9818125,16.5746725 13.0328066,16.7387965 13.017562,16.9036317 C13.0023175,17.0684669 12.9220883,17.2204549 12.7945898,17.3260352 C12.0095462,17.9783243 11.0206726,18.3347619 10,18.3333441 C8.96521484,18.3333441 7.984375,17.9729102 7.20478516,17.325625 L7.20478516,17.3258398 Z"
                    id="形状" fill="currentColor"></path>
            </g>
        </g>
    </g>
</svg>