<?xml version="1.0" encoding="UTF-8"?>
<svg width="50px" height="50px" viewBox="0 0 50 50" version="1.1" xmlns="http://www.w3.org/2000/svg" xmlns:xlink="http://www.w3.org/1999/xlink">
    <g id="页面-4" stroke="none" stroke-width="1" fill="none" fill-rule="evenodd">
        <g id="能源监控备份" transform="translate(-233.000000, -221.000000)">
            <g id="编组-6" transform="translate(233.000000, 221.000000)">
                <rect id="矩形" x="0" y="0" width="50" height="50"></rect>
                <g id="编组-28" transform="translate(15.000000, 5.000000)" stroke="#4A4F5C" stroke-width="2">
                    <ellipse id="Oval" cx="4.875" cy="7.9245283" rx="3.875" ry="3.90566038"></ellipse>
                    <ellipse id="Oval" cx="4.875" cy="20" rx="3.875" ry="3.90566038"></ellipse>
                    <ellipse id="Oval" cx="4.875" cy="32.0754717" rx="3.875" ry="3.90566038"></ellipse>
                    <line x1="4.125" y1="0.416666667" x2="4.125" y2="39.5833333" id="Line-4" stroke-linecap="round" stroke-linejoin="round"></line>
                    <line x1="13.3392857" y1="7.9245283" x2="20.4107143" y2="7.9245283" id="Line-5" stroke-linecap="round" stroke-linejoin="round"></line>
                    <line x1="13.3392857" y1="20" x2="20.4107143" y2="20" id="Line-5" stroke-linecap="round" stroke-linejoin="round"></line>
                    <line x1="13.3392857" y1="32.0754717" x2="20.4107143" y2="32.0754717" id="Line-5" stroke-linecap="round" stroke-linejoin="round"></line>
                    <line x1="17.625" y1="29.1509434" x2="19.875" y2="35.754717" id="Line-6" stroke-linecap="round" stroke-linejoin="round"></line>
                    <line x1="13.125" y1="4.24528302" x2="15.375" y2="10.8490566" id="Line-6" stroke-linecap="round" stroke-linejoin="round"></line>
                    <line x1="17.625" y1="4.24528302" x2="19.875" y2="10.8490566" id="Line-6" stroke-linecap="round" stroke-linejoin="round"></line>
                    <line x1="13.125" y1="17.0754717" x2="15.375" y2="23.6792453" id="Line-6" stroke-linecap="round" stroke-linejoin="round"></line>
                    <line x1="17.625" y1="17.0754717" x2="19.875" y2="23.6792453" id="Line-6" stroke-linecap="round" stroke-linejoin="round"></line>
                    <line x1="13.125" y1="29.1509434" x2="15.375" y2="35.754717" id="Line-6" stroke-linecap="round" stroke-linejoin="round"></line>
                </g>
            </g>
        </g>
    </g>
</svg>